<svg width="475" height="476" viewBox="0 0 475 476" fill="none" xmlns="http://www.w3.org/2000/svg">
<g clip-path="url(#clip0_9_247)">
<path d="M35.9655 444.637C39.7895 457.384 37.5588 469.069 35.9655 473.318L33.5754 487.658L-10.2421 473.318L-20.599 384.09L-7.85208 332.305L24.0152 301.235L41.5422 255.027L118.024 228.736L399.253 224.753L474.141 249.45H486.091L501.228 376.919L474.141 424.72L451.037 452.604L433.51 478.895C351.186 489.517 179.209 505.504 149.891 484.472C120.573 463.439 113.244 418.878 113.244 399.227L97.31 415.957C85.6253 425.517 56.9979 444.637 35.9655 444.637Z" fill="#002869" stroke="black" stroke-width="3.18673"/>
<path d="M257.72 28.4232C249.941 14.9974 218.826 26.1856 233.272 53.0373C216.947 106.291 225.802 146.74 235.618 168.985C237.107 177.218 239.19 194.957 235.618 200.056C232.046 205.155 217.875 206.961 211.236 207.226L243.9 245.467C265.144 251.044 314.645 258.851 342.688 245.467C352.248 238.456 365.792 219.707 371.369 211.209C364.199 210.678 349.38 207.704 347.468 200.056C345.556 192.408 346.811 176.155 347.678 168.985C358.671 135.236 363.835 67.3045 346.621 46.3244C356.622 19.4727 329.952 17.235 322.173 25.0668C315.506 18.3539 267.722 17.235 257.72 28.4232Z" fill="#664C3F"/>
<path d="M251.866 183.326C243.9 183.326 239.165 177.025 235.618 168.985M333.925 183.326C341.095 180.936 345.187 176.631 347.678 168.985M235.618 168.985C225.802 146.74 216.947 106.291 233.272 53.0373C218.826 26.1856 249.941 14.9974 257.72 28.4232C267.722 17.235 315.506 18.3539 322.173 25.0668C329.952 17.235 356.622 19.4727 346.621 46.3244C363.835 67.3045 358.671 135.236 347.678 168.985M235.618 168.985C237.107 177.218 239.19 194.957 235.618 200.056C232.046 205.155 217.875 206.961 211.236 207.226L243.9 245.467C265.144 251.044 314.645 258.851 342.688 245.467C352.248 238.456 365.792 219.707 371.369 211.209C364.199 210.678 349.38 207.704 347.468 200.056C345.556 192.408 346.811 176.155 347.678 168.985" stroke="black" stroke-width="2.22252"/>
<path d="M306.616 92.1961C306.616 97.2495 305.244 100.209 302.954 101.967C300.594 103.778 297.02 104.511 292.169 104.511C287.31 104.511 284.052 103.774 281.987 102.004C279.967 100.273 278.834 97.3195 278.834 92.1961C278.834 87.0789 279.966 81.0999 282.261 76.4409C284.568 71.7562 287.885 68.6933 292.169 68.6933C296.482 68.6933 300.076 71.7917 302.657 76.4854C305.222 81.1495 306.616 87.1166 306.616 92.1961Z" fill="white" stroke="black" stroke-width="2.22252"/>
<path d="M293.835 81.7644C292.979 82.6402 291.576 82.6589 290.697 81.8063L289.322 80.4717C287.9 79.0916 288.859 76.6807 290.841 76.6543L293.556 76.618C295.537 76.5916 296.56 78.976 295.174 80.3936L293.835 81.7644Z" fill="black"/>
<ellipse cx="3.50925" cy="3.53312" rx="3.50925" ry="3.53312" transform="matrix(1 0 0 -1 271.055 74.6483)" fill="black"/>
<ellipse cx="3.50925" cy="3.53312" rx="3.50925" ry="3.53312" transform="matrix(1 0 0 -1 306.616 74.6483)" fill="black"/>
<path d="M128.381 207.226C143.677 204.677 190.522 206.164 212.032 207.226C220.796 217.849 239.279 240.368 243.103 245.467C225.257 248.016 184.148 244.405 165.825 242.28C152.016 240.156 118.502 237.181 94.92 242.28C73.4096 240.687 34.3721 282.911 41.5423 307.608C25.6086 302.509 3.03595 323.011 -6.25868 333.899C-7.58648 328.853 -8.01138 318.284 0.911462 316.372C9.8343 314.46 16.8451 304.952 19.2352 300.438C18.9696 289.284 19.5538 264.747 24.0153 255.824C26.4053 244.67 76.5963 218.38 102.09 212.006C123.601 211.209 109.26 210.413 128.381 207.226Z" fill="white" stroke="black" stroke-width="3.18673"/>
<path d="M199.285 268.571L147.501 316.372L292.497 459.774L429.527 313.185L376.149 266.181L199.285 268.571Z" stroke="white" stroke-width="3.18673"/>
<path d="M202.472 277.334L163.435 316.372L184.945 338.679C180.696 332.571 176.022 316.212 191.318 299.641C206.615 283.07 219.999 277.865 224.779 277.334H202.472Z" stroke="white" stroke-width="3.18673"/>
<path d="M322.771 367.359C317.672 362.898 245.227 363.376 209.642 364.172C213.626 368.156 223.345 377.716 230.356 384.09C260.311 373.892 268.331 388.339 268.597 396.836C285.858 397.899 322.134 398.749 329.145 393.65C338.705 393.012 339.501 383.824 338.705 379.309C337.643 376.388 332.969 369.909 322.771 367.359Z" stroke="white" stroke-width="3.18673"/>
<path d="M291.7 448.621L257.443 411.973C271.465 420.896 303.651 420.471 317.991 419.144L291.7 448.621Z" stroke="white" stroke-width="3.18673"/>
<path d="M372.165 292.471C368.341 282.911 353.576 276.803 346.672 274.944H372.165V292.471Z" stroke="white" stroke-width="3.18673"/>
<path d="M418.373 314.778L396.863 336.289C396.863 320.992 360.746 313.45 342.688 311.591C331.535 310.529 303.013 309.361 278.157 313.185C253.3 317.009 242.837 311.591 240.713 308.405C239.385 307.342 237.048 303.625 238.323 297.251C239.597 290.878 253.194 285.035 259.833 282.911C267.269 281.318 287.558 278.768 309.228 281.318C330.897 283.867 342.157 298.313 345.078 305.218C357.294 305.484 382.682 305.855 386.506 305.218C390.33 304.581 390.755 293.268 390.489 287.691L418.373 314.778Z" stroke="white" stroke-width="3.18673"/>
<path d="M367.385 216.786C362.924 228.896 346.937 242.546 339.501 247.857C357.825 247.06 398.615 247.22 415.186 254.23C431.757 243.395 466.174 248.122 481.311 251.84V230.33C480.78 227.409 475.097 221.566 456.614 221.566C442.592 210.094 428.464 209.882 423.153 211.21C421.029 212.537 416.142 214.874 413.593 213.6C411.044 212.325 402.439 209.882 398.456 208.819C389.958 206.429 371.847 204.677 367.385 216.786Z" fill="white" stroke="black" stroke-width="3.18673"/>
<path d="M176.978 270.961C156.53 280.786 116.59 308.245 120.414 339.475M55.0858 352.222C46.3223 347.442 43.9323 293.268 58.2726 276.537" stroke="black" stroke-width="3.18673"/>
<path d="M419.966 263.791C429.261 268.836 449.444 286.576 455.817 317.168" stroke="black" stroke-width="3.18673"/>
<path d="M139.534 353.816C145.642 356.737 157.858 364.651 157.858 372.936C157.858 383.293 171.401 407.99 197.692 413.567" stroke="black" stroke-width="3.18673"/>
<path d="M357.825 429.5C362.871 427.376 372.962 420.896 372.962 411.973C386.506 414.364 400.846 405.6 404.033 403.21C407.22 400.82 416.78 369.749 433.51 367.359" stroke="black" stroke-width="3.18673"/>
</g>
<defs>
<clipPath id="clip0_9_247">
<rect x="0.114746" y="0.885315" width="474.823" height="474.823" rx="31.8673" fill="white"/>
</clipPath>
</defs>
</svg>
