<svg width="476" height="476" viewBox="0 0 476 476" fill="none" xmlns="http://www.w3.org/2000/svg">
<circle cx="349.176" cy="133.135" r="94.0085" stroke="black" stroke-width="3.18673"/>
<path d="M359.386 179.412C352.379 191.675 344.223 187.463 340.013 179.412C328.782 157.934 305.563 113.123 302.53 105.711C301.519 99.309 308.286 98.2702 311.796 98.5509C332.011 98.2702 375.371 98.551 387.182 98.5509C398.452 98.5509 397.992 106.974 396.026 110.764C387.744 126.768 368.82 162.903 359.386 179.412Z" fill="#3FC4FF" stroke="black" stroke-width="3.18673"/>
<path d="M349.176 98.0806V187.365" stroke="black" stroke-width="3.18673"/>
<path d="M147.263 283.132C148.758 280.355 147.886 270.984 147.263 266.646L202.379 241.483L275.244 266.646C273.999 269.828 272.442 277.579 276.178 283.132C282.904 291.462 288.945 322.467 291.125 336.928C295.485 342.423 304.577 357.579 306.072 374.238C307.567 390.898 288.634 409.524 278.981 416.755L299.533 428.034C302.647 430.348 307.567 435.844 302.335 439.314C297.104 442.785 278.981 440.76 270.573 439.314C263.723 436.711 248.153 426.82 240.68 408.078C216.765 398.36 192.726 405.186 183.696 409.813C180.271 417.622 169.496 434.455 153.802 439.314C138.108 444.173 124.22 441.917 119.238 440.182C117.37 439.314 114.007 436.364 115.502 431.505C117.37 425.431 133.251 421.093 145.395 416.755C119.238 409.813 112.076 385.518 111.765 374.238C112.699 364.694 116.623 343.87 124.843 336.928C123.909 329.987 145.395 286.603 147.263 283.132Z" fill="#F0D9BA" stroke="black" stroke-width="1.59336"/>
<path d="M139.649 344.255C153.989 351.426 181.236 371.343 175.5 393.65" stroke="black" stroke-width="1.59336"/>
<path d="M279.053 341.865C264.713 349.036 237.466 368.953 243.203 391.26" stroke="black" stroke-width="1.59336"/>
<path d="M135.534 212.974C129.534 201.796 139.285 187.358 144.91 181.536C185.852 177.17 268.674 170.358 272.424 178.043C284.613 181.536 292.114 206.861 287.426 213.848C295.865 219.96 294.927 242.666 287.426 248.779C289.676 253.669 282.738 261.878 278.988 265.371C271.174 266.535 254.047 268.515 248.047 267.117C240.546 265.371 208.667 251.398 205.855 251.398C203.042 251.398 188.978 265.371 180.539 268.864C172.101 272.357 148.661 267.991 144.91 265.371C141.91 263.275 135.534 249.361 132.721 242.666C129.596 236.262 125.783 221.358 135.534 212.974Z" fill="#F0D9BA" stroke="black" stroke-width="1.59336"/>
<path d="M154.786 235.818C157.59 232.152 167.87 225.329 186.561 227.359C197.776 227.359 214.287 218.9 221.14 214.671C223.944 213.261 230.673 211.288 235.159 214.671C241.14 216.701 248.243 221.72 251.047 223.976L251.981 227.359C247.931 227.641 238.523 228.543 233.29 229.897L205.253 251.044" stroke="black" stroke-width="1.59336"/>
<path d="M250.706 201.649C250.388 203.589 250.515 207.801 253.575 209.131C249.75 211.791 248.794 217.999 248.794 220.77" stroke="black" stroke-width="1.59336"/>
<path d="M161.159 231.923C161.454 230.176 162.753 226.681 165.585 226.681C167.002 223.185 170.307 222.312 171.782 222.312C171.487 220.564 172.136 217.244 177.093 217.943C172.844 211.652 172.372 206.584 172.667 204.836" stroke="black" stroke-width="1.59336"/>
<path d="M193.027 225.55L177.093 217.583" stroke="black" stroke-width="1.59336"/>
<path d="M169.45 46.7212C160.292 32.0658 123.657 44.2786 140.666 73.5894C133.994 95.7764 130.985 175.806 144.736 181.893C173.814 177.545 196.014 184.212 212.272 194.938C220.714 187.111 243.789 172.675 268.552 177.545C285.436 180.866 282.582 105.385 274.12 66.2617C285.896 36.9509 254.495 34.5083 245.336 43.0573C237.486 35.7297 181.226 34.5084 169.45 46.7212Z" fill="#664C3F" stroke="black" stroke-width="2.22252"/>
<path d="M227.216 116.334C227.216 121.839 225.608 125.1 222.86 127.057C220.021 129.077 215.741 129.878 210.01 129.878C204.269 129.878 200.353 129.072 197.861 127.092C195.437 125.166 194.112 121.915 194.112 116.334C194.112 110.748 195.444 104.217 198.151 99.1217C200.861 94.0208 204.81 90.5774 210.01 90.5774C215.236 90.5774 219.514 94.0526 222.548 99.1673C225.575 104.27 227.216 110.789 227.216 116.334Z" fill="white" stroke="black" stroke-width="2.22252"/>
<path d="M211.636 105.265C210.796 106.062 209.482 106.078 208.62 105.302L206.34 103.251C204.835 101.896 205.77 99.4023 207.793 99.3773L212.294 99.3216C214.317 99.2966 215.323 101.767 213.857 103.158L211.636 105.265Z" fill="black"/>
<ellipse cx="4.13171" cy="3.85668" rx="4.13171" ry="3.85668" transform="matrix(1 0 0 -1 185.151 97.1794)" fill="black"/>
<ellipse cx="4.13171" cy="3.85668" rx="4.13171" ry="3.85668" transform="matrix(1 0 0 -1 227.019 97.1794)" fill="black"/>
<path d="M115.749 435.874C118.404 433.218 124.512 428.385 127.699 430.297" stroke="black" stroke-width="1.59336"/>
<path d="M128.496 441.451C129.027 439.592 130.886 435.715 134.072 435.077" stroke="black" stroke-width="1.59336"/>
<path d="M275.085 432.687C279.069 434.281 286.557 438.105 284.645 440.654" stroke="black" stroke-width="1.59336"/>
<path d="M291.019 431.094C295.002 432.156 302.332 435.396 299.782 439.857" stroke="black" stroke-width="1.59336"/>
</svg>
