<svg width="476" height="476" viewBox="0 0 476 476" fill="none" xmlns="http://www.w3.org/2000/svg">
<g clip-path="url(#clip0_9_248)">
<path d="M265.646 53.5247C254.599 34.5855 210.407 50.3681 230.925 88.2465C221.099 145.608 202.563 266.385 207.024 290.604C193.003 297.615 190.028 304.679 190.294 307.334C184.717 307.069 172.767 307.971 169.58 313.708C156.036 307.334 113.447 319.24 102.659 339.998C95.4772 353.816 87.2562 390.189 87.5217 408.513C66.2769 416.745 23.6278 440.858 22.9905 471.451C22.3531 502.043 48.7499 501.194 62.0279 496.945L475.506 484.994L482.676 302.554C469.398 290.073 435.353 265.11 405.398 265.11C397.75 255.55 375.124 245.724 364.767 242.006C373.568 202.232 389.006 115.796 380.358 88.2465C394.562 50.3681 356.684 47.2116 345.636 58.2594C336.167 48.7899 279.851 37.7421 265.646 53.5247Z" fill="#664C3F" stroke="black" stroke-width="3.15653"/>
<path d="M231.21 220.22C227.281 225.085 222.396 240.279 224.958 245.491C228.55 251.335 234.827 243.757 235.539 239.252C236.063 235.935 235.14 215.355 231.21 220.22Z" fill="black" stroke="black" stroke-width="2.44236"/>
<path d="M250.724 213.025C245.937 216.917 238.166 230.744 239.619 236.444C241.947 242.998 249.556 236.97 251.144 232.704C252.314 229.564 255.511 209.133 250.724 213.025Z" fill="black" stroke="black" stroke-width="2.44236"/>
<path d="M263.855 220.757C258.749 224.126 249.784 237.078 250.715 242.916C252.439 249.697 260.541 244.5 262.503 240.418C263.948 237.412 268.962 217.388 263.855 220.757Z" fill="black" stroke="black" stroke-width="2.44236"/>
<path d="M313.93 212.959C308.405 215.888 297.942 227.941 298.25 233.741C299.256 240.526 308.006 236.024 310.431 232.161C312.217 229.317 319.455 210.029 313.93 212.959Z" fill="black" stroke="black" stroke-width="2.44236"/>
<path d="M328.567 217.313C323.167 220.298 313.074 232.533 313.497 238.401C314.63 245.263 323.185 240.674 325.502 236.757C327.208 233.872 333.966 214.328 328.567 217.313Z" fill="black" stroke="black" stroke-width="2.44236"/>
<path d="M334.802 227.311C330.583 231.742 324.757 246.377 326.977 251.856C330.18 258.077 336.907 251.192 337.902 246.774C338.634 243.52 339.021 222.881 334.802 227.311Z" fill="black" stroke="black" stroke-width="2.44236"/>
<path d="M268.705 176.463C268.033 183.555 265.701 187.523 262.232 189.683C258.654 191.911 253.501 192.461 246.641 191.811C239.769 191.16 235.258 189.689 232.574 186.927C229.95 184.226 228.743 179.933 229.424 172.742C230.105 165.558 232.499 157.316 236.362 151.083C240.245 144.818 245.342 140.958 251.405 141.532C257.508 142.11 262.176 146.946 265.199 153.879C268.204 160.77 269.38 169.333 268.705 176.463Z" fill="white" stroke="black" stroke-width="3.15653"/>
<path d="M249.893 155.758C248.568 156.872 246.594 156.711 245.466 155.398L243.733 153.379C241.897 151.239 243.574 147.948 246.384 148.177L250.155 148.484C252.965 148.713 254.088 152.232 251.93 154.046L249.893 155.758Z" fill="black"/>
<path d="M273.137 131.541C275.857 135.469 283.808 142.315 293.851 138.275" stroke="black" stroke-width="3.18673"/>
<path d="M228.523 130.065C231.931 131.491 240.208 133.145 246.05 128.354" stroke="black" stroke-width="3.18673"/>
<path d="M96.2739 421.553C130.531 406.151 201.595 370.088 211.793 349.055C203.029 320.375 221.353 223.976 235.693 225.569C250.034 227.163 250.034 224.773 254.814 241.503C258.638 254.887 258.532 311.877 258 338.698C257.795 349.055 258.797 375.664 242.864 396.059C226.93 416.454 201.702 453.952 191.079 470.151" stroke="black" stroke-width="3.18673"/>
<path d="M445.221 375.326C439.91 379.309 428.969 389.826 427.694 400.023C415.584 402.573 407.246 421.799 404.59 431.094" stroke="black" stroke-width="3.18673"/>
<path d="M474.94 452.808C460.069 446.169 420.925 432.413 383.322 430.501C383.322 419.666 349.861 388.277 333.131 373.936C332.334 370.75 331.218 363.739 333.131 361.189C335.521 358.003 342.691 351.629 345.877 343.662C349.064 335.696 348.026 248.654 338.707 240.094C332.092 231.923 316.955 226.235 302.857 228.94C291.461 231.127 284.291 247.857 280.55 260.011C276.272 273.905 268.357 304.421 267.006 315.779C265.953 324.623 263.819 367.563 270.193 377.123C275.291 384.771 304.716 442.982 318.79 471.132" stroke="black" stroke-width="3.18673"/>
</g>
<defs>
<clipPath id="clip0_9_248">
<rect x="0.671997" y="0.885315" width="474.823" height="474.823" rx="31.8673" fill="white"/>
</clipPath>
</defs>
</svg>
