<svg width="475" height="476" viewBox="0 0 475 476" fill="none" xmlns="http://www.w3.org/2000/svg">
<g clip-path="url(#clip0_9_245)">
<path d="M288.399 151.458V40.7195V34.346H372.051V151.458H288.399Z" stroke="black" stroke-width="1.59336"/>
<path d="M258.922 356.206H297.163" stroke="black" stroke-width="1.59336"/>
<path d="M77.2782 337.085V114.811H201.561V337.085" stroke="black" stroke-width="1.59336"/>
<path d="M153.76 370.546C143.562 370.546 144.731 355.143 146.59 347.442L148.421 340.272C178.615 337.882 241.554 334.536 251.752 340.272C261.949 346.008 259.187 362.845 256.532 370.546L153.76 370.546Z" fill="white" stroke="black" stroke-width="1.59336"/>
<path d="M295.569 321.152C303.217 366.403 289.727 389.401 282.026 395.243C280.698 396.305 281.548 398.749 295.569 400.023C309.591 401.298 326.905 384.09 333.81 375.326C335.403 381.168 336.519 394.287 328.233 400.023C339.387 400.82 376.831 384.09 383.204 380.106C390.215 377.557 402.059 359.924 407.105 351.426L415.072 268.571C409.76 264.056 399.138 251.84 399.138 239.093C392.127 246.104 393.561 253.699 395.155 256.62C387.188 250.778 373.007 234.154 380.018 214.396C349.744 234.313 317.08 294.861 318.673 309.998C311.025 303.625 310.706 281.849 311.503 271.757C304.864 281.583 292.382 305.218 295.569 321.152Z" fill="#DC736F" stroke="black" stroke-width="1.59336"/>
<path d="M412.682 427.907V345.052L436.582 351.734V415.88L412.682 427.907Z" fill="white" stroke="black" stroke-width="1.59336"/>
<path d="M354.524 400.82V351.426L378.424 355.409V393.65L354.524 400.82Z" fill="white" stroke="black" stroke-width="1.59336"/>
<path d="M364.084 396.04C323.294 413.885 310.972 455.525 309.909 474.115C314.371 490.686 424.366 481.019 478.806 474.115C484.383 432.422 491.234 349.036 474.026 349.036C470.839 379.309 423.835 399.227 405.511 433.484C423.357 392.694 411.354 360.189 403.121 349.036C407.105 357.268 404.874 378.194 364.084 396.04Z" fill="#DC736F" stroke="black" stroke-width="1.59336"/>
<path d="M146.59 403.21C139.579 426.792 146.855 446.496 151.37 453.401C157.1 462.164 169.428 477.567 178.457 485.268H-6.37348C-14.6059 404.803 -27.0872 240.527 -11.1536 227.143C4.78007 213.759 -3.18673 197.666 15.1369 189.699C35.0118 181.058 36.6474 165.799 36.6474 139.508C48.1196 157.991 55.5317 183.326 52.581 199.259C45.942 235.11 35.8507 308.564 48.5976 315.575C58.7952 297.729 59.7512 246.529 58.9545 223.16C69.8425 247.591 89.5471 303.465 81.2616 331.509C72.9761 359.552 88.4317 397.368 97.1953 412.77C96.133 400.289 97.3546 371.98 110.739 358.596C110.739 374.529 118.706 401.882 127.469 417.55C125.876 411.177 132.568 406.397 146.59 403.21Z" fill="white"/>
<path d="M146.59 403.21C139.579 426.792 146.855 446.496 151.37 453.401C157.1 462.164 169.428 477.567 178.457 485.268H-6.37348C-14.6059 404.803 -27.0872 240.527 -11.1536 227.143C4.78007 213.759 -3.18673 197.666 15.1369 189.699C35.0118 181.058 36.6474 165.799 36.6474 139.508C48.1196 157.991 55.5317 183.326 52.581 199.259C45.942 235.11 35.8507 308.564 48.5976 315.575C58.7952 297.729 59.7512 246.529 58.9545 223.16C69.8425 247.591 89.5471 303.465 81.2616 331.509C72.9761 359.552 88.4317 397.368 97.1953 412.77C96.133 400.289 97.3546 371.98 110.739 358.596C110.739 374.529 118.706 401.882 127.469 417.55C125.876 411.177 132.568 406.397 146.59 403.21Z" fill="#CD3731" fill-opacity="0.7"/>
<path d="M146.59 403.21C139.579 426.792 146.855 446.496 151.37 453.401C157.1 462.164 169.428 477.567 178.457 485.268H-6.37348C-14.6059 404.803 -27.0872 240.527 -11.1536 227.143C4.78007 213.759 -3.18673 197.666 15.1369 189.699C35.0118 181.058 36.6474 165.799 36.6474 139.508C48.1196 157.991 55.5317 183.326 52.581 199.259C45.942 235.11 35.8507 308.564 48.5976 315.575C58.7952 297.729 59.7512 246.529 58.9545 223.16C69.8425 247.591 89.5471 303.465 81.2616 331.509C72.9761 359.552 88.4317 397.368 97.1953 412.77C96.133 400.289 97.3546 371.98 110.739 358.596C110.739 374.529 118.706 401.882 127.469 417.55C125.876 411.177 132.568 406.397 146.59 403.21Z" stroke="black" stroke-width="1.59336"/>
<path d="M329.827 463.758C333.013 450.48 346.876 422.012 376.831 414.364C390.852 409.902 397.013 401.351 398.341 397.633C399.935 411.708 399.297 443.841 390.374 453.401C411.885 438.264 433.395 434.281 445.345 415.957C451.719 438.264 441.628 453.401 434.192 463.758" stroke="black" stroke-width="1.59336"/>
<path d="M0 245.241C8.49795 240.196 20.9829 227.714 24.6972 219.747C29.0864 210.333 -6.37346 320.129 21.5104 341.64C43.8175 358.848 56.2989 340.843 59.7512 329.69C53.3777 346.42 42.8615 387.688 51.7844 418.918C60.7072 450.148 85.245 449.458 96.3986 445.209C100.648 441.756 107.871 432.143 102.772 421.308C121.892 434.692 119.768 448.13 116.316 453.175C113.129 459.283 111.536 471.18 130.656 469.906" stroke="black" stroke-width="1.59336"/>
<path d="M329.03 345.052V317.168L466.856 326.728C495.005 335.492 536.008 353.975 474.823 357.799C413.638 361.623 349.744 353.816 329.03 345.052Z" fill="white" stroke="black" stroke-width="1.59336"/>
<path d="M442.159 215.193C418.577 247.06 411.354 278.662 410.292 293.268L486.773 301.235V200.853C480.665 200.321 467.175 203.88 462.076 222.363C465.9 182.848 448.798 160.753 439.769 154.645C446.939 168.985 453.312 204.039 442.159 215.193Z" fill="#DC736F" stroke="black" stroke-width="1.59336"/>
<path d="M329.827 319.558C337.378 333.102 429.366 336.409 474.224 335.026C486.7 323.961 504.982 295.602 474.224 291.871C439.769 287.691 318.407 299.079 329.827 319.558Z" fill="white" stroke="black" stroke-width="1.59336"/>
<path d="M358.507 315.575V264.587H403.918V275.741C426.225 272.554 413.213 295.127 403.918 306.811V315.575C387.347 323.223 366.739 318.762 358.507 315.575Z" fill="white"/>
<path d="M403.918 306.811C403.918 309.91 403.918 312.869 403.918 315.575C387.347 323.223 366.739 318.762 358.507 315.575V264.587H403.918C403.918 267.401 403.918 271.273 403.918 275.741M403.918 306.811C403.918 296.623 403.918 284.924 403.918 275.741M403.918 306.811C413.213 295.127 426.225 272.554 403.918 275.741" stroke="black" stroke-width="1.59336"/>
<path d="M124.282 307.608C123.645 342.662 139.419 348.77 147.386 347.442L157.743 338.679L188.017 335.492L216.698 262.197L147.386 260.604C139.951 261.666 124.92 272.554 124.282 307.608Z" fill="white" stroke="black" stroke-width="1.59336"/>
<path d="M412.682 293.268L403.918 294.064" stroke="black" stroke-width="1.59336"/>
<path d="M358.507 264.587C365.412 268.571 384.16 274.147 403.918 264.587" stroke="black" stroke-width="1.59336"/>
<path d="M412.682 276.537L409.495 293.268" stroke="black" stroke-width="1.59336"/>
<path d="M431.802 274.944C433.395 264.322 439.131 238.775 449.329 221.566C447.736 241.483 451.719 270.164 460.482 271.757C467.493 273.032 469.246 257.948 469.246 250.247L474.026 256.62" stroke="black" stroke-width="1.59336"/>
<path d="M41.4275 60.6365C21.0324 85.493 -2.12448 74.7112 -11.1535 66.2133V-37.3554H470.839L493.943 -22.2185C505.097 -4.69146 518.8 35.302 484.383 55.0597C449.966 74.8175 412.682 50.5452 398.341 35.9393C380.283 50.0141 337.475 71.9494 310.706 47.0929C270.553 69.4 243.519 52.1386 235.021 40.7194C225.727 52.6697 200.286 70.1967 172.88 44.7029C144.2 85.493 101.975 72.3212 84.4483 60.6365C75.6848 68.0722 54.8118 78.4822 41.4275 60.6365Z" fill="#A4A0A0" stroke="black" stroke-width="1.59336"/>
<path d="M200.764 297.251V309.998" stroke="black" stroke-width="1.59336"/>
<path d="M157.743 208.819C141.809 260.444 146.59 331.349 153.76 339.475C169.928 357.799 234.225 357.799 250.955 339.475C262.197 327.163 254.142 222.363 239.005 204.039C246.175 184.919 227.054 183.326 221.478 188.902C216.698 184.122 182.44 183.326 175.27 191.292C169.693 181.732 147.386 189.699 157.743 208.819Z" fill="#664C3F" stroke="black" stroke-width="1.59336"/>
<path d="M172.083 350.629L173.677 347.442L199.967 350.629L227.851 349.832V351.426L226.258 354.612L223.071 357.002L215.104 357.799L205.544 356.206L199.171 354.612H198.374L192.797 356.206L186.424 357.002L178.457 356.206L174.473 354.612L172.083 350.629Z" fill="#664C3F" stroke="#664C3F" stroke-width="1.59336"/>
<path d="M210.324 236.703C210.324 240.299 209.341 242.404 207.701 243.655C206.009 244.945 203.445 245.467 199.967 245.467C196.483 245.467 194.146 244.942 192.665 243.682C191.218 242.45 190.407 240.35 190.407 236.703C190.407 233.061 191.218 228.805 192.863 225.489C194.516 222.156 196.893 219.973 199.967 219.973C203.062 219.973 205.638 222.181 207.487 225.521C209.325 228.841 210.324 233.088 210.324 236.703Z" fill="white" stroke="black" stroke-width="1.59336"/>
<path d="M201.157 229.279C200.545 229.902 199.545 229.915 198.916 229.309L197.949 228.377C196.924 227.389 197.61 225.655 199.033 225.636L200.943 225.611C202.366 225.592 203.098 227.307 202.099 228.322L201.157 229.279Z" fill="black"/>
<circle cx="2.51584" cy="2.51584" r="2.51584" transform="matrix(1 0 0 -1 184.83 224.208)" fill="black"/>
<circle cx="2.51584" cy="2.51584" r="2.51584" transform="matrix(1 0 0 -1 210.324 224.208)" fill="black"/>
<path d="M207.934 356.206L210.324 350.629" stroke="black" stroke-width="1.59336"/>
<path d="M217.494 357.799L219.088 352.222" stroke="black" stroke-width="1.59336"/>
<path d="M164.913 306.015C171.287 298.048 183.556 286.257 200.764 296.455C218.291 286.098 232.631 300.438 238.208 306.811M225.461 356.206C220.362 360.667 205.81 356.471 199.171 354.612C196.173 355.812 187.309 357.913 180.05 356.842M168.897 333.102C168.259 340.113 171.818 350.363 173.677 354.612C175.451 355.795 177.664 356.49 180.05 356.842M179.254 351.426L180.05 356.842M188.814 356.206L188.017 350.629" stroke="black" stroke-width="1.59336"/>
<path d="M225.461 356.206C229.445 352.222 231.675 339.316 231.038 335.492" stroke="black" stroke-width="1.59336"/>
<path d="M199.171 340.272V353.816" stroke="black" stroke-width="1.59336"/>
<path d="M173.358 249.577C182.057 259.276 197.934 280.696 191.855 288.791C185.776 296.886 175.391 289.731 170.959 285.142" stroke="black" stroke-width="1.59336"/>
<path d="M197.947 287.974C197.648 285.671 194.818 280.46 192.76 279.811C190.268 279.277 190.694 282.908 191.722 284.255C192.479 285.247 198.246 290.278 197.947 287.974Z" fill="black" stroke="black" stroke-width="0.90737"/>
<path d="M192.766 295.847C193.18 293.592 192.042 287.811 190.257 286.55C188.019 285.259 187.322 288.798 187.902 290.386C188.328 291.556 192.352 298.101 192.766 295.847Z" fill="black" stroke="black" stroke-width="0.90737"/>
<path d="M186.575 300.695C187.39 298.573 187.3 292.722 185.757 291.159C183.77 289.483 182.445 292.804 182.735 294.462C182.948 295.682 185.761 302.817 186.575 300.695Z" fill="black" stroke="black" stroke-width="0.90737"/>
<path d="M228.609 247.971C220.696 258.32 206.544 280.917 213.238 288.512C219.932 296.107 229.724 288.161 233.784 283.239" stroke="black" stroke-width="1.59336"/>
<path d="M207.101 288.175C207.219 285.854 209.632 280.438 211.633 279.631C214.075 278.903 213.935 282.556 213.015 283.98C212.338 285.028 206.983 290.495 207.101 288.175Z" fill="black" stroke="black" stroke-width="0.90737"/>
<path d="M212.882 295.617C212.292 293.402 212.974 287.549 214.656 286.153C216.786 284.691 217.757 288.164 217.304 289.793C216.97 290.993 213.471 297.832 212.882 295.617Z" fill="black" stroke="black" stroke-width="0.90737"/>
<path d="M219.433 299.966C218.454 297.915 218.087 292.074 219.503 290.396C221.352 288.569 222.933 291.777 222.774 293.452C222.657 294.685 220.411 302.018 219.433 299.966Z" fill="black" stroke="black" stroke-width="0.90737"/>
<path d="M200.764 295.658V308.405" stroke="black" stroke-width="1.59336"/>
<path d="M194.391 434.22V370.546H210.324V434.22C205.225 437.216 197.577 435.468 194.391 434.22Z" fill="black" stroke="black" stroke-width="1.59336"/>
<path d="M157.743 438.264V370.546H173.677V438.264C168.578 441.451 160.93 439.592 157.743 438.264Z" fill="white" stroke="black" stroke-width="1.59336"/>
<path d="M210.324 441.985V370.546H226.258V441.985C221.159 445.346 213.511 443.385 210.324 441.985Z" fill="white" stroke="black" stroke-width="1.59336"/>
<path d="M240.598 437.326V370.546H256.532V437.326C251.433 440.468 243.785 438.635 240.598 437.326Z" fill="white" stroke="black" stroke-width="1.59336"/>
<path d="M240.598 407.193L256.532 388.073V370.546H240.598V407.193Z" fill="black" stroke="black" stroke-width="1.59336"/>
</g>
<defs>
<clipPath id="clip0_9_245">
<rect y="0.885315" width="474.823" height="474.823" rx="31.8673" fill="white"/>
</clipPath>
</defs>
</svg>
