<svg width="476" height="476" viewBox="0 0 476 476" fill="none" xmlns="http://www.w3.org/2000/svg">
<g clip-path="url(#clip0_9_246)">
<path d="M108.617 121.892C59.0264 282.566 73.904 503.246 96.2197 528.538C146.54 585.567 346.654 585.567 398.725 528.538C433.714 490.216 408.643 164.044 361.531 107.014C383.847 47.5051 324.338 42.5459 306.981 59.9028C292.104 45.0256 185.483 42.546 163.168 67.3414C145.811 37.5868 76.3833 62.3823 108.617 121.892Z" fill="#664C3F" stroke="black" stroke-width="4.9591"/>
<path d="M272.268 208.676C272.268 219.867 269.209 226.419 264.104 230.311C258.837 234.327 250.858 235.951 240.034 235.951C229.189 235.951 221.915 234.317 217.307 230.395C212.803 226.561 210.279 220.024 210.279 208.676C210.279 197.339 212.803 184.093 217.921 173.772C223.066 163.398 230.465 156.605 240.034 156.605C249.664 156.605 257.682 163.477 263.438 173.872C269.159 184.205 272.268 197.424 272.268 208.676Z" fill="white" stroke="black" stroke-width="4.9591"/>
<path d="M243.737 185.569C241.83 187.507 238.719 187.548 236.761 185.661L233.751 182.76C230.561 179.686 232.697 174.29 237.127 174.231L243.069 174.152C247.499 174.094 249.777 179.431 246.669 182.589L243.737 185.569Z" fill="black"/>
<circle cx="7.83016" cy="7.83016" r="7.83016" transform="matrix(1 0 0 -1 192.922 169.786)" fill="black"/>
<circle cx="7.83016" cy="7.83016" r="7.83016" transform="matrix(1 0 0 -1 272.268 169.786)" fill="black"/>
<path d="M95.576 416.126C105.785 365.642 136.208 264.714 176.232 264.871C216.257 265.028 218.093 314.852 214.008 339.744" stroke="black" stroke-width="6.2995"/>
<path d="M164.417 249.491C157.273 255.265 145.571 275.578 147.642 283.854C150.997 293.353 162.349 284.407 164.761 278.158C166.538 273.556 171.561 243.717 164.417 249.491Z" fill="black" stroke="black" stroke-width="3.58736"/>
<path d="M196.403 245.366C188.393 249.604 173.243 267.301 173.706 275.929C175.186 286.037 187.872 279.528 191.38 273.838C193.964 269.647 204.414 241.127 196.403 245.366Z" fill="black" stroke="black" stroke-width="3.58736"/>
<path d="M184.099 267.893L233.688 214.469C239.565 213.769 241.646 218.265 241.952 220.6C226.647 237.532 195.303 272.097 192.364 274.899C188.691 274.899 184.099 270.52 184.099 267.893Z" fill="white" stroke="black" stroke-width="1.59336"/>
<ellipse cx="4.51811" cy="2.67442" rx="4.51811" ry="2.67442" transform="matrix(0.811323 0.584598 -0.620955 0.783846 187.116 265.921)" fill="#A71414"/>
<path d="M210.864 251.194C205.202 258.172 198.378 280.281 202.266 288.044C207.68 296.779 216.729 285.914 217.67 279.329C218.363 274.48 216.525 244.216 210.864 251.194Z" fill="black" stroke="black" stroke-width="3.58736"/>
<path d="M380.497 287.105C396.331 336.116 419.256 439.007 384.287 458.479C349.318 477.95 323.308 435.415 314.673 411.714" stroke="black" stroke-width="6.2995"/>
<path d="M398.871 474.019C403.978 466.384 409.122 443.513 404.686 436.226C398.662 428.15 390.478 440.064 390.03 446.748C389.701 451.669 393.764 481.654 398.871 474.019Z" fill="black" stroke="black" stroke-width="3.58736"/>
<path d="M376.259 485.365C381.165 477.746 385.703 454.896 381.071 447.601C374.83 439.514 366.959 451.404 366.688 458.083C366.489 463.002 371.352 492.984 376.259 485.365Z" fill="black" stroke="black" stroke-width="3.58736"/>
<path d="M359.003 488.271C361.377 479.604 358.724 456.619 352.04 451.078C343.568 445.261 339.658 458.849 341.447 465.256C342.765 469.974 356.63 496.938 359.003 488.271Z" fill="black" stroke="black" stroke-width="3.58736"/>
</g>
<defs>
<clipPath id="clip0_9_246">
<rect x="0.557373" y="0.885315" width="474.823" height="474.823" rx="31.8673" fill="white"/>
</clipPath>
</defs>
</svg>
