<svg width="476" height="477" viewBox="0 0 476 477" fill="none" xmlns="http://www.w3.org/2000/svg">
<g clip-path="url(#clip0_4_197)">
<path d="M181.035 301.943C177.583 271.138 184.173 217.657 239.193 215.901C314.081 213.511 310.894 262.905 314.081 301.943" stroke="#352020" stroke-width="1.59336"/>
<path d="M161.458 105.76C138.45 119.123 93.7524 358.962 74.2797 476.416H399.624C412.207 476.416 329.522 128.827 307.054 105.76C316.041 78.7165 283.687 77.1257 275.598 86.6705C265.412 78.9817 229.762 68.2173 193.812 86.6705C178.534 67.5809 149.774 87.4659 161.458 105.76Z" fill="#656565" stroke="black" stroke-width="1.59336"/>
<path d="M198.562 220.681C180.77 215.37 150.761 214.786 173.068 254.938C180.079 246.653 192.985 228.648 198.562 220.681Z" fill="#664C3F" stroke="black" stroke-width="1.59336"/>
<path d="M294.164 219.258C311.957 213.947 341.965 213.363 319.658 253.515C312.647 245.23 299.741 227.225 294.164 219.258Z" fill="#664C3F" stroke="black" stroke-width="1.59336"/>
<path d="M173.068 161.165C174.123 168.172 177.814 182.918 184.143 185.843C190.471 188.768 190.471 181.578 189.68 177.617C191.262 182.187 195.534 191.51 199.963 192.241C204.393 192.972 204.973 187.671 204.709 184.929C205.237 188.281 207.557 195.166 212.62 195.897C217.682 196.629 219.475 192.546 219.739 190.413C221.057 192.241 224.643 195.897 228.44 195.897C232.237 195.897 235.296 192.851 236.351 191.327C236.614 192.851 238.407 195.897 243.47 195.897C248.532 195.897 251.38 192.851 252.171 191.327C254.281 193.46 259.29 197.177 262.455 194.983C265.619 192.79 268.519 187.976 269.574 185.843C269.837 187.976 271.314 192.241 275.111 192.241C278.908 192.241 284.076 179.445 286.185 173.047C285.922 175.18 286.027 179.445 288.559 179.445C291.09 179.445 294.887 169.695 296.469 164.821C296.469 166.649 296.785 170.305 298.051 170.305C299.633 170.305 302.797 163.907 302.006 159.336" stroke="white" stroke-width="1.59336"/>
<path d="M239.99 215.901C185.815 217.813 178.645 274.059 181.832 301.943C203.342 308.582 245.885 326.799 243.973 346.557C242.061 366.315 225.649 374.972 217.683 376.831C218.479 370.988 217.523 358.507 207.326 355.32C197.128 352.134 186.081 364.615 181.832 371.254C179.973 371.254 174.502 369.501 167.492 362.49C156.019 375.237 156.869 443.752 158.728 476.416H348.338C347.011 447.204 341.965 385.594 332.405 372.847C326.669 377.309 324.172 377.362 323.641 376.831C320.189 367.536 310.416 350.222 298.944 355.32C284.604 361.694 290.977 378.424 286.994 376.831C283.01 375.237 266.28 360.1 270.264 346.557C274.247 333.013 302.928 310.706 317.268 301.943C323.641 274.855 307.708 213.511 239.99 215.901Z" fill="#664C3F" stroke="black" stroke-width="1.59336"/>
<path d="M270.264 274.855C272.122 275.121 276 275.493 276.637 274.855" stroke="black" stroke-width="1.59336"/>
<path d="M228.836 274.855C230.695 275.121 234.572 275.493 235.21 274.855" stroke="black" stroke-width="1.59336"/>
<path d="M254.33 121.096C258.579 126.141 269.626 133.205 279.824 121.096H254.33Z" fill="black" stroke="black" stroke-width="1.59336"/>
<path d="M195.375 121.096C199.624 126.141 210.672 133.205 220.869 121.096H195.375Z" fill="black" stroke="black" stroke-width="1.59336"/>
<path d="M165.101 235.021C162.446 235.021 157.453 236.296 158.728 241.395C160.321 247.768 170.678 244.582 169.882 241.395" stroke="black" stroke-width="1.59336"/>
<path d="M260.023 360.677C260.679 356.65 265.942 347.666 269.591 346.644C273.994 345.848 273.04 352.197 271.16 354.503C269.775 356.2 259.368 364.704 260.023 360.677Z" fill="black" stroke="black" stroke-width="1.59336"/>
<path d="M268.67 374.788C268.07 370.807 270.396 360.725 273.601 358.614C277.603 356.475 278.625 362.725 277.517 365.48C276.702 367.509 269.269 378.768 268.67 374.788Z" fill="black" stroke="black" stroke-width="1.59336"/>
<path d="M279.26 383.648C277.95 379.878 278.441 369.613 281.238 366.958C284.82 364.128 286.957 370.033 286.355 372.926C285.911 375.056 280.57 387.418 279.26 383.648Z" fill="black" stroke="black" stroke-width="1.59336"/>
<path d="M252.958 359.084C252.302 355.057 247.04 346.072 243.391 345.051C238.988 344.255 239.942 350.603 241.822 352.909C243.207 354.607 253.614 363.111 252.958 359.084Z" fill="black" stroke="black" stroke-width="1.59336"/>
<path d="M244.312 373.194C244.911 369.214 242.586 359.131 239.381 357.02C235.379 354.882 234.357 361.132 235.465 363.887C236.28 365.916 243.713 377.174 244.312 373.194Z" fill="black" stroke="black" stroke-width="1.59336"/>
<path d="M233.722 382.055C235.032 378.285 234.541 368.02 231.744 365.365C228.162 362.535 226.025 368.44 226.627 371.333C227.07 373.463 232.412 385.825 233.722 382.055Z" fill="black" stroke="black" stroke-width="1.59336"/>
<path d="M217.482 356.474C217.361 360.063 214.372 368.472 211.849 369.75C208.766 370.912 208.899 365.262 210.045 363.048C210.889 361.418 217.603 352.885 217.482 356.474Z" fill="#E83BD4" stroke="black" stroke-width="1.59336"/>
<path d="M212.856 348.93C212.596 352.435 209.201 360.851 206.554 362.287C203.336 363.65 203.687 358.137 204.951 355.894C205.882 354.243 213.116 345.425 212.856 348.93Z" fill="#E83BD4" stroke="black" stroke-width="1.59336"/>
<path d="M202.574 349.07C202.614 352.502 199.884 361.128 197.311 362.887C194.148 364.655 194.026 359.265 195.119 356.916C195.924 355.187 202.534 345.638 202.574 349.07Z" fill="#E83BD4" stroke="black" stroke-width="1.59336"/>
<path d="M288.123 355.201C288.244 358.79 291.233 367.199 293.757 368.478C296.84 369.639 296.707 363.989 295.56 361.775C294.716 360.145 288.002 351.613 288.123 355.201Z" fill="#E83BD4" stroke="black" stroke-width="1.59336"/>
<path d="M292.749 347.657C293.009 351.162 296.405 359.579 299.051 361.014C302.27 362.378 301.919 356.864 300.655 354.621C299.724 352.97 292.489 344.153 292.749 347.657Z" fill="#E83BD4" stroke="black" stroke-width="1.59336"/>
<path d="M303.032 347.797C302.992 351.229 305.721 359.855 308.294 361.614C311.457 363.382 311.58 357.992 310.486 355.643C309.681 353.914 303.072 344.366 303.032 347.797Z" fill="#E83BD4" stroke="black" stroke-width="1.59336"/>
<path d="M260.703 163.32C260.703 169.947 258.546 174.252 254.703 176.944C250.8 179.678 245.027 180.847 237.6 180.847C230.17 180.847 224.607 179.677 220.91 176.955C217.269 174.274 215.292 169.973 215.292 163.32C215.292 156.631 217.296 148 221.135 141.064C224.984 134.108 230.548 129.063 237.6 129.063C244.66 129.063 250.424 134.119 254.471 141.078C258.507 148.018 260.703 156.644 260.703 163.32Z" fill="#9E9E9E" stroke="black" stroke-width="1.59336"/>
<path d="M239.083 151.307C238.597 151.563 238.014 151.551 237.539 151.276L228.704 146.146C227.282 145.32 227.892 143.142 229.537 143.175L247.405 143.536C249.05 143.569 249.572 145.77 248.117 146.538L239.083 151.307Z" fill="black"/>
<line y1="-0.796682" x2="8.53401" y2="-0.796682" transform="matrix(0.358479 0.933538 -0.960596 0.27795 228.836 176.863)" stroke="white" stroke-width="1.59336"/>
<path d="M238.396 176.863V183.237" stroke="white" stroke-width="1.59336"/>
<path d="M247.956 176.863L244.77 183.237" stroke="white" stroke-width="1.59336"/>
<path d="M206.529 215.104C237.759 187.061 267.342 203.42 278.23 215.104C286.994 213.511 323.641 219.088 325.235 244.581C326.509 264.977 340.637 274.324 347.542 276.449C344.355 278.042 337.185 279.636 333.998 273.262C336.548 294.932 326.031 299.818 320.455 299.553C322.313 298.756 325.553 295.729 323.641 289.992C317.268 298.915 309.832 297.959 306.911 296.366C308.504 296.1 312.169 293.338 314.081 284.416C318.064 264.499 293.367 241.395 291.774 244.581C290.499 247.131 293.367 253.079 294.961 255.735C286.994 252.548 270.742 242.829 269.467 229.445C264.687 234.225 233.616 227.054 212.902 235.021C208.322 236.783 204.041 237.165 200.155 236.655C186.134 247.522 188.471 270.368 191.392 280.432C190.33 280.167 188.205 278.361 188.205 273.262C178.645 284.416 187.409 307.519 191.392 314.69C179.282 312.14 171.475 298.225 169.085 291.586C167.226 293.179 164.145 297.641 166.695 302.739C154.585 293.816 159.525 282.557 163.508 278.042C161.384 279.901 155.541 283.3 149.168 282.026C162.552 275.652 168.023 257.063 169.085 248.565L173.068 254.938L189.799 232.951C184.93 230.029 181.345 226.044 179.442 223.071C184.222 225.461 196.331 227.214 206.529 215.104Z" fill="#E2F8FF"/>
<path d="M200.155 236.655C204.041 237.165 208.322 236.783 212.902 235.021C233.616 227.054 264.687 234.225 269.467 229.445C270.742 242.829 286.994 252.548 294.961 255.735C293.367 253.079 290.499 247.131 291.774 244.581C293.367 241.395 318.064 264.499 314.081 284.416C312.169 293.338 308.504 296.1 306.911 296.366C309.832 297.959 317.268 298.915 323.641 289.992C325.553 295.729 322.313 298.756 320.455 299.553C326.031 299.818 336.548 294.932 333.998 273.262C337.185 279.636 344.355 278.042 347.542 276.449C340.637 274.324 326.509 264.977 325.235 244.581C323.641 219.088 286.994 213.511 278.23 215.104C267.342 203.42 237.759 187.061 206.529 215.104C196.331 227.214 184.222 225.461 179.442 223.071C181.345 226.044 184.93 230.029 189.799 232.951M200.155 236.655C186.134 247.522 188.471 270.368 191.392 280.432C190.33 280.167 188.205 278.361 188.205 273.262C178.645 284.416 187.409 307.519 191.392 314.69C179.282 312.14 171.475 298.225 169.085 291.586C167.226 293.179 164.145 297.641 166.695 302.739C154.585 293.816 159.525 282.557 163.508 278.042C161.384 279.901 155.541 283.3 149.168 282.026C162.552 275.652 168.023 257.063 169.085 248.565L173.068 254.938L189.799 232.951M200.155 236.655C196.279 236.146 192.796 234.75 189.799 232.951" stroke="black" stroke-width="1.59336"/>
<path d="M207.326 227.851C225.171 215.104 253.533 205.544 273.45 222.274C278.23 225.461 279.027 231.835 273.45 234.225C263.184 238.624 236.803 245.856 217.683 250.955C198.562 256.054 183.691 244.05 178.645 237.411C180.77 239.536 189.48 240.598 207.326 227.851Z" fill="#0052BA" stroke="black" stroke-width="1.59336"/>
<path d="M288.141 376.034C288.164 379.497 288.447 387.361 289.401 391.119" stroke="black" stroke-width="1.59336"/>
<path d="M217.746 376.175C217.099 379.576 215.4 387.26 213.783 390.784" stroke="black" stroke-width="1.59336"/>
<path d="M323.641 376.831C324.438 379.221 326.031 384.957 326.031 388.781" stroke="black" stroke-width="1.59336"/>
<path d="M181.832 371.254C179.973 374.706 176.574 382.408 177.848 385.594" stroke="black" stroke-width="1.59336"/>
<circle cx="270.264" cy="278.839" r="4.78009" fill="black"/>
<circle cx="235.21" cy="278.839" r="4.78009" fill="black"/>
<path d="M271.06 296.366C271.06 304.596 262.999 311.503 252.737 311.503C242.474 311.503 234.413 304.596 234.413 296.366C234.413 288.136 242.474 281.229 252.737 281.229C262.999 281.229 271.06 288.136 271.06 296.366Z" fill="#D9D9D9" stroke="black" stroke-width="1.59336"/>
<path d="M253.423 294.71C252.937 294.966 252.354 294.954 251.879 294.679L243.045 289.549C241.622 288.723 242.232 286.545 243.877 286.578L261.745 286.938C263.39 286.972 263.912 289.173 262.457 289.941L253.423 294.71Z" fill="black"/>
</g>
<defs>
<clipPath id="clip0_4_197">
<rect x="0.984863" width="474.823" height="476.416" rx="31.8673" fill="white"/>
</clipPath>
</defs>
</svg>
