<svg width="476" height="476" viewBox="0 0 476 476" fill="none" xmlns="http://www.w3.org/2000/svg">
<g clip-path="url(#clip0_4_199)">
<path d="M21.0209 120.282L17.0375 254.922L27.3943 274.839L112.639 259.702C106.266 222.523 93.041 141.634 91.1289 115.502C89.7299 96.382 72.8052 101.959 70.4152 107.536C65.3695 106.473 52.8882 105.305 43.328 109.129C28.9877 95.5853 17.0375 111.519 21.0209 120.282Z" fill="#002869" stroke="black" stroke-width="1.59336"/>
<path d="M133.204 100.963C121.732 113.073 131.079 212.233 137.187 260.299L226.416 254.723C225.088 205.594 218.289 104.468 201.718 92.9961C200.922 72.2824 181.801 77.8592 180.208 87.4193C176.225 83.9671 164.912 79.1338 151.527 87.4193C141.171 76.2658 127.627 87.4193 133.204 100.963Z" fill="#002869" stroke="black" stroke-width="1.59336"/>
<path d="M278.349 109.011C263.053 117.297 256.573 209.659 255.246 254.804L335.711 260.381C340.756 221.609 349.413 139.285 343.677 120.165C350.847 97.061 329.337 98.6543 325.354 103.434C321.636 100.248 311.969 94.8302 303.047 98.6543C295.876 83.5174 272.773 95.4676 278.349 109.011Z" fill="#002869" stroke="black" stroke-width="1.59336"/>
<path d="M382.715 137.902C376.979 145.55 373.951 225.537 373.155 264.575L456.806 270.152C458.931 234.832 461.905 159.731 456.806 141.886C460.63 117.029 440.076 120.375 436.092 125.155C433.437 120.906 423.664 114.958 405.819 125.155C393.868 108.425 374.748 128.342 382.715 137.902Z" fill="#002869" stroke="black" stroke-width="1.59336"/>
<path d="M398.648 145.776C400.872 148.417 406.654 152.114 411.992 145.776H398.648Z" fill="white" stroke="black" stroke-width="0.83396"/>
<path d="M427.329 145.776C429.553 148.417 435.335 152.114 440.672 145.776H427.329Z" fill="white" stroke="black" stroke-width="0.83396"/>
<path d="M67.811 129.843C70.0349 132.484 75.8171 136.181 81.1544 129.843H67.811Z" fill="white" stroke="black" stroke-width="0.83396"/>
<path d="M36.9545 129.843C39.1784 132.484 44.9605 136.181 50.2978 129.843H36.9545Z" fill="white" stroke="black" stroke-width="0.83396"/>
<path d="M140.523 123.469C144.507 128.279 154.863 135.012 164.424 123.469H140.523Z" fill="white" stroke="black" stroke-width="0.83396"/>
<path d="M283.089 129.843C285.507 134.526 292.479 141.733 301.022 133.098L283.089 129.843Z" fill="white" stroke="black" stroke-width="0.83396"/>
<path d="M175.577 122.076C179.91 126.573 190.743 132.51 199.41 120.282L175.577 122.076Z" fill="white" stroke="black" stroke-width="0.83396"/>
<path d="M309.555 133.417C312.273 137.879 319.696 144.465 327.65 135.119L309.555 133.417Z" fill="white" stroke="black" stroke-width="0.83396"/>
<path d="M77.4355 260.889C46.283 246.202 10.9118 254.77 -2.87964 260.889V475.603H478.2V357.47L484.69 264.082C449.806 257.43 375.981 247.479 359.755 260.889C342.084 235.005 99.3396 228.163 77.4355 260.889Z" fill="white" stroke="black" stroke-width="1.59336"/>
<path d="M77.5853 261.295C73.3363 279.088 68.3438 318.816 82.3654 335.387C68.0251 340.963 55.2782 406.291 66.4318 425.412C66.4318 442.62 66.4318 465.511 66.4318 474.806" stroke="black" stroke-width="1.59336"/>
<path d="M66.4318 425.412H382.715V474.806" stroke="black" stroke-width="1.59336"/>
<path d="M359.611 260.499C368.109 275.901 380.006 312.761 359.611 336.98C392.275 351.32 385.901 413.462 382.715 425.412" stroke="black" stroke-width="1.59336"/>
<path d="M1.10376 342.557C115.826 329.013 375.545 332.997 473.536 342.557" stroke="black" stroke-width="1.59336"/>
<path d="M381.918 425.412C405.287 426.209 456.487 426.687 474.333 422.225" stroke="black" stroke-width="1.59336"/>
<path d="M66.4318 425.412C46.7803 425.146 6.36193 423.659 1.90051 419.835" stroke="black" stroke-width="1.59336"/>
<path d="M173.187 339.37L182.747 285.196L261.619 282.806L277.553 339.37C283.129 342.291 295.558 349.408 300.656 354.507C305.755 349.408 312.872 349.727 315.793 350.524C321.37 352.383 332.046 360.881 330.134 380.001C328.222 399.121 317.121 402.839 311.81 402.308L259.229 395.92L254.449 397.528L247.279 399.121H239.312L232.142 398.325L231.345 397.528L229.752 395.138L227.362 391.154L224.971 395.935L222.581 398.325L218.598 399.121H209.835L201.071 397.528L197.088 396.731L193.474 397.176L150.88 403.901C122.996 400.715 120.606 361.146 134.15 352.117C137.336 349.993 145.144 347.018 150.88 352.117C153.429 348.293 166.814 342.026 173.187 339.37Z" fill="#664C3F" stroke="black" stroke-width="1.59336"/>
<mask id="path-22-inside-1_4_199" fill="white">
<path fill-rule="evenodd" clip-rule="evenodd" d="M275.539 250.075C278.369 273.359 256.937 295.117 227.668 298.675C198.4 302.233 172.379 286.243 169.548 262.96C168.386 253.401 171.314 244.099 177.194 236.208C175.234 234.601 173.984 232.16 173.984 229.428C173.984 224.588 177.907 220.664 182.747 220.664C185.686 220.664 188.286 222.111 189.876 224.33C197.569 219.201 206.997 215.626 217.419 214.36C229.236 212.923 240.524 214.673 249.97 218.804C251.466 216.112 254.338 214.291 257.636 214.291C262.476 214.291 266.399 218.215 266.399 223.054C266.399 225.097 265.7 226.976 264.529 228.466C270.554 234.365 274.527 241.755 275.539 250.075Z"/>
</mask>
<path fill-rule="evenodd" clip-rule="evenodd" d="M275.539 250.075C278.369 273.359 256.937 295.117 227.668 298.675C198.4 302.233 172.379 286.243 169.548 262.96C168.386 253.401 171.314 244.099 177.194 236.208C175.234 234.601 173.984 232.16 173.984 229.428C173.984 224.588 177.907 220.664 182.747 220.664C185.686 220.664 188.286 222.111 189.876 224.33C197.569 219.201 206.997 215.626 217.419 214.36C229.236 212.923 240.524 214.673 249.97 218.804C251.466 216.112 254.338 214.291 257.636 214.291C262.476 214.291 266.399 218.215 266.399 223.054C266.399 225.097 265.7 226.976 264.529 228.466C270.554 234.365 274.527 241.755 275.539 250.075Z" fill="#664C3F"/>
<path d="M227.668 298.675L227.476 297.094L227.668 298.675ZM275.539 250.075L273.957 250.268L273.957 250.268L275.539 250.075ZM169.548 262.96L167.967 263.152L167.967 263.152L169.548 262.96ZM177.194 236.208L178.472 237.16L179.381 235.94L178.205 234.976L177.194 236.208ZM189.876 224.33L188.581 225.258L189.478 226.51L190.76 225.656L189.876 224.33ZM217.419 214.36L217.227 212.778L217.419 214.36ZM249.97 218.804L249.332 220.264L250.659 220.844L251.363 219.578L249.97 218.804ZM264.529 228.466L263.276 227.482L262.393 228.605L263.414 229.605L264.529 228.466ZM227.86 300.257C257.646 296.636 280.095 274.358 277.12 249.883L273.957 250.268C276.642 272.359 256.227 293.599 227.476 297.094L227.86 300.257ZM167.967 263.152C170.942 287.627 198.075 303.878 227.86 300.257L227.476 297.094C198.724 300.589 173.816 284.859 171.13 262.767L167.967 263.152ZM175.917 235.256C169.828 243.427 166.749 253.13 167.967 263.152L171.13 262.767C170.024 253.671 172.8 244.771 178.472 237.16L175.917 235.256ZM172.391 229.428C172.391 232.658 173.871 235.543 176.184 237.44L178.205 234.976C176.598 233.658 175.577 231.663 175.577 229.428H172.391ZM182.747 219.071C177.027 219.071 172.391 223.708 172.391 229.428H175.577C175.577 225.468 178.787 222.258 182.747 222.258V219.071ZM191.172 223.402C189.295 220.783 186.221 219.071 182.747 219.071V222.258C185.15 222.258 187.277 223.438 188.581 225.258L191.172 223.402ZM217.227 212.778C206.565 214.074 196.899 217.733 188.992 223.004L190.76 225.656C198.24 220.669 207.43 217.179 217.611 215.941L217.227 212.778ZM250.609 217.344C240.891 213.095 229.315 211.308 217.227 212.778L217.611 215.941C229.157 214.538 240.157 216.252 249.332 220.264L250.609 217.344ZM251.363 219.578C252.589 217.372 254.94 215.884 257.636 215.884V212.698C253.736 212.698 250.343 214.853 248.577 218.03L251.363 219.578ZM257.636 215.884C261.596 215.884 264.806 219.095 264.806 223.054H267.992C267.992 217.335 263.356 212.698 257.636 212.698V215.884ZM264.806 223.054C264.806 224.727 264.235 226.262 263.276 227.482L265.781 229.451C267.166 227.69 267.992 225.467 267.992 223.054H264.806ZM277.12 249.883C276.06 241.163 271.897 233.45 265.643 227.328L263.414 229.605C269.211 235.28 272.994 242.346 273.957 250.268L277.12 249.883Z" fill="black" mask="url(#path-22-inside-1_4_199)"/>
<path d="M239.202 268.453C239.471 276.369 233.66 279.005 224.426 279.319C215.191 279.633 208.418 277.425 208.149 269.51C207.88 261.595 214.134 248.581 223.369 248.266C232.604 247.952 238.932 260.538 239.202 268.453Z" fill="white"/>
<path d="M225.151 256.611C224.576 257.049 223.778 257.044 223.207 256.6L221.687 255.415C220.487 254.48 221.154 252.556 222.675 252.565L225.73 252.582C227.252 252.591 227.896 254.523 226.686 255.444L225.151 256.611Z" fill="black"/>
<path d="M212.225 250.142C212.225 249.085 211.805 248.072 211.058 247.325C210.311 246.578 209.298 246.158 208.241 246.158C207.185 246.158 206.172 246.578 205.425 247.325C204.677 248.072 204.258 249.085 204.258 250.142L208.241 250.142H212.225Z" fill="black"/>
<path d="M242.499 250.142C242.499 249.085 242.079 248.072 241.332 247.325C240.585 246.578 239.572 246.158 238.515 246.158C237.459 246.158 236.445 246.578 235.698 247.325C234.951 248.072 234.532 249.085 234.532 250.142L238.515 250.142H242.499Z" fill="black"/>
<path d="M192.974 324.233C187.928 341.229 181.183 379.204 194.567 395.138C206.039 401.511 218.598 399.918 223.248 398.325C227.362 395.138 229.447 387.97 221.133 383.188M221.133 383.188C219.595 382.303 217.668 381.494 215.281 380.798C218.468 381.951 220.51 382.872 221.133 383.188ZM221.133 383.188V340.167" stroke="black" stroke-width="1.59336"/>
<path d="M261.677 324.233C266.722 341.229 273.467 379.204 260.083 395.138C248.611 401.511 236.183 399.918 231.403 398.325C228.265 394.963 225.203 387.97 233.517 383.188M233.517 383.188C235.055 382.303 236.982 381.494 239.369 380.798C236.183 381.951 234.14 382.872 233.517 383.188ZM233.517 383.188V340.167" stroke="black" stroke-width="1.59336"/>
</g>
<defs>
<clipPath id="clip0_4_199">
<rect x="0.307129" y="0.78009" width="474.823" height="474.823" rx="31.8673" fill="white"/>
</clipPath>
</defs>
</svg>
