<svg width="476" height="475" viewBox="0 0 476 475" fill="none" xmlns="http://www.w3.org/2000/svg">
<g clip-path="url(#clip0_12_461)">
<rect x="0.557373" y="0.177246" width="474.823" height="474.823" rx="31.8673" fill="#CD3731" fill-opacity="0.7"/>
<path d="M186.981 2.56726L339.944 475" stroke="#D1D1D1" stroke-opacity="0.5" stroke-width="3.18673"/>
<path d="M31.628 2.56726L239.562 475" stroke="#D1D1D1" stroke-opacity="0.5" stroke-width="3.18673"/>
<path d="M1.35406 35.2312L220.442 486.95" stroke="#D1D1D1" stroke-opacity="0.5" stroke-width="3.18673"/>
<path d="M381.372 475.797L258.682 0.973877" stroke="#DADADA" stroke-opacity="0.5" stroke-width="3.18673"/>
<path d="M-10.5962 87.8122L297.72 -13.3665" stroke="#DADADA" stroke-opacity="0.5" stroke-width="3.18673"/>
<path d="M-10.5962 146.767L504.857 34.4344" stroke="#DADADA" stroke-opacity="0.5" stroke-width="3.18673"/>
<path d="M-16.173 191.381L497.687 126.85" stroke="#DADADA" stroke-opacity="0.5" stroke-width="3.18673"/>
<path d="M484.94 213.688L-20.9531 235.995" stroke="#DADADA" stroke-opacity="0.5" stroke-width="3.18673"/>
<path d="M492.11 284.593L-30.5132 267.066" stroke="#DADADA" stroke-opacity="0.5" stroke-width="3.18673"/>
<path d="M484.144 342.751L-26.5298 300.526" stroke="#DADADA" stroke-opacity="0.5" stroke-width="3.18673"/>
<path d="M484.144 392.145L-28.9199 326.817" stroke="#DADADA" stroke-opacity="0.5" stroke-width="3.18673"/>
<path d="M490.517 443.929L-39.2767 341.954" stroke="#DADADA" stroke-opacity="0.5" stroke-width="3.18673"/>
<path d="M-21.7497 376.211L473.787 478.187" stroke="#DADADA" stroke-opacity="0.5" stroke-width="3.18673"/>
<path d="M124.84 274.236L123.246 223.248" stroke="#525252" stroke-width="3.18673"/>
<path d="M293.737 241.572L316.84 269.294L280.652 269.294L293.737 241.572Z" fill="#FFAAA7" fill-opacity="0.7"/>
<path d="M324.01 341.954L342.803 366.401L311.184 363.577L324.01 341.954Z" fill="#FFAAA7" fill-opacity="0.7"/>
<path d="M335.961 384.975L354.284 408.079L324.173 404.271L335.961 384.975Z" fill="#FFAAA7" fill-opacity="0.7"/>
<path d="M350.089 444.558L331.977 424.012L362.078 429.018L350.089 444.558Z" fill="#FFAAA7" fill-opacity="0.7"/>
<path d="M257.457 113.764L279.061 135.877L245.306 142.19L257.457 113.764Z" fill="#FFAAA7" fill-opacity="0.7"/>
<path d="M278.6 185.804L300.132 209.001L265.954 212.328L278.6 185.804Z" fill="#FFAAA7" fill-opacity="0.7"/>
<path d="M233.834 40.7696L257.111 61.1136L223.958 70.0639L233.834 40.7696Z" fill="#FFAAA7" fill-opacity="0.7"/>
<path d="M340.022 173.467L342.201 210.485L337.718 210.749L335.816 178.43L335.599 178.443L326.915 184.976L326.647 180.421L335.539 173.731L340.022 173.467ZM353.858 210.089C352.966 210.142 352.182 209.867 351.506 209.266C350.83 208.665 350.465 207.919 350.413 207.027C350.361 206.135 350.635 205.351 351.236 204.675C351.837 203.999 352.583 203.635 353.475 203.582C354.367 203.53 355.151 203.804 355.827 204.405C356.503 205.006 356.868 205.752 356.92 206.644C356.955 207.235 356.836 207.786 356.564 208.298C356.304 208.809 355.936 209.229 355.459 209.56C354.994 209.877 354.46 210.054 353.858 210.089ZM363.363 201.622L363.146 197.934L377.899 171.238L380.574 171.081L380.91 176.792L379.102 176.899L367.956 197.071L367.973 197.36L389.88 196.071L390.114 200.047L363.363 201.622ZM381.234 208.188L380.721 199.476L380.62 197.759L379.055 171.17L383.321 170.919L385.5 207.937L381.234 208.188ZM408.932 207.066C406.811 207.19 404.877 206.881 403.128 206.138C401.379 205.394 399.949 204.317 398.839 202.908C397.728 201.498 397.069 199.856 396.862 197.982L401.2 197.726C401.467 199.391 402.308 200.732 403.722 201.75C405.148 202.754 406.806 203.2 408.698 203.089C410.216 203 411.545 202.565 412.684 201.784C413.835 201.003 414.712 199.972 415.314 198.691C415.927 197.398 416.187 195.962 416.094 194.383C415.999 192.768 415.559 191.349 414.773 190.126C413.999 188.89 412.976 187.94 411.704 187.278C410.431 186.615 409.005 186.324 407.426 186.405C406.293 186.459 405.14 186.703 403.968 187.134C402.796 187.554 401.841 188.064 401.102 188.663L396.879 188.404L398.048 170.052L417.28 168.92L417.514 172.897L402.041 173.808L401.383 184.802L401.599 184.789C402.323 184.142 403.246 183.585 404.367 183.12C405.488 182.655 406.67 182.386 407.911 182.313C410.176 182.18 412.227 182.604 414.062 183.584C415.908 184.551 417.393 185.939 418.515 187.747C419.649 189.555 420.287 191.658 420.428 194.056C420.567 196.417 420.161 198.557 419.209 200.475C418.269 202.381 416.909 203.924 415.129 205.105C413.347 206.274 411.282 206.927 408.932 207.066ZM440.622 205.201C439.103 205.266 437.567 205.066 436.016 204.601C434.466 204.136 433.025 203.284 431.694 202.044C430.363 200.792 429.252 199.062 428.36 196.853C427.467 194.633 426.92 191.811 426.719 188.389C426.526 185.111 426.662 182.189 427.128 179.623C427.593 177.044 428.359 174.852 429.426 173.048C430.492 171.232 431.823 169.824 433.421 168.823C435.031 167.821 436.878 167.259 438.963 167.137C441.035 167.015 442.904 167.322 444.567 168.058C446.242 168.782 447.635 169.849 448.746 171.258C449.857 172.668 450.619 174.322 451.033 176.221L446.623 176.48C446.115 174.841 445.239 173.508 443.993 172.481C442.748 171.454 441.149 170.998 439.197 171.113C436.329 171.282 434.143 172.662 432.639 175.254C431.147 177.844 430.527 181.393 430.781 185.901L431.07 185.884C431.684 184.82 432.434 183.899 433.319 183.122C434.216 182.331 435.219 181.704 436.328 181.24C437.438 180.775 438.625 180.506 439.89 180.431C442.011 180.307 443.982 180.723 445.804 181.679C447.625 182.624 449.12 183.993 450.29 185.787C451.459 187.568 452.114 189.651 452.254 192.037C452.389 194.327 452 196.454 451.088 198.418C450.175 200.37 448.824 201.961 447.034 203.191C445.255 204.408 443.118 205.078 440.622 205.201ZM440.388 201.224C441.907 201.135 443.246 200.675 444.406 199.845C445.579 199.014 446.477 197.94 447.101 196.621C447.736 195.302 448.008 193.859 447.916 192.293C447.826 190.762 447.401 189.391 446.64 188.178C445.891 186.952 444.898 186.001 443.661 185.324C442.436 184.647 441.064 184.353 439.546 184.442C438.401 184.509 437.348 184.801 436.387 185.317C435.425 185.821 434.594 186.487 433.893 187.314C433.204 188.14 432.678 189.072 432.316 190.109C431.953 191.134 431.804 192.201 431.869 193.31C431.956 194.78 432.38 196.133 433.142 197.37C433.916 198.606 434.929 199.581 436.18 200.293C437.443 201.005 438.846 201.315 440.388 201.224ZM471.662 203.374C469.541 203.499 467.606 203.189 465.858 202.446C464.109 201.702 462.679 200.626 461.568 199.216C460.458 197.806 459.799 196.164 459.592 194.29L463.93 194.035C464.197 195.7 465.038 197.041 466.452 198.058C467.877 199.062 469.536 199.509 471.428 199.397C472.946 199.308 474.275 198.873 475.414 198.093C476.565 197.312 477.442 196.281 478.043 195C478.656 193.706 478.917 192.27 478.824 190.691C478.729 189.077 478.288 187.658 477.503 186.434C476.729 185.198 475.706 184.249 474.433 183.586C473.161 182.923 471.735 182.632 470.156 182.713C469.022 182.768 467.87 183.011 466.698 183.443C465.526 183.862 464.57 184.372 463.832 184.972L459.609 184.712L460.778 166.361L480.01 165.229L480.244 169.205L464.771 170.116L464.112 181.11L464.329 181.097C465.053 180.45 465.975 179.894 467.097 179.429C468.218 178.964 469.399 178.695 470.641 178.622C472.906 178.488 474.956 178.912 476.792 179.892C478.638 180.86 480.122 182.247 481.244 184.056C482.379 185.863 483.016 187.966 483.157 190.364C483.296 192.726 482.89 194.866 481.939 196.784C480.999 198.689 479.639 200.232 477.859 201.413C476.077 202.582 474.012 203.236 471.662 203.374Z" fill="#FFAAA7" fill-opacity="0.7"/>
<path d="M348.077 273.337C345.591 273.356 343.391 272.932 341.477 272.066C339.575 271.187 338.087 269.973 337.013 268.424C335.939 266.863 335.4 265.08 335.397 263.077C335.373 261.508 335.67 260.057 336.287 258.724C336.905 257.38 337.753 256.257 338.833 255.355C339.924 254.441 341.145 253.859 342.495 253.607L342.494 253.39C340.716 252.945 339.296 251.96 338.234 250.435C337.172 248.898 336.64 247.145 336.637 245.178C336.61 243.295 337.074 241.607 338.029 240.115C338.983 238.623 340.302 237.442 341.985 236.572C343.681 235.702 345.615 235.259 347.788 235.243C349.936 235.226 351.859 235.64 353.555 236.484C355.251 237.328 356.588 238.489 357.565 239.967C358.554 241.444 359.062 243.124 359.088 245.007C359.091 246.974 358.567 248.735 357.517 250.288C356.478 251.829 355.092 252.835 353.357 253.307L353.359 253.524C354.7 253.756 355.912 254.32 356.993 255.217C358.074 256.102 358.94 257.212 359.589 258.547C360.239 259.87 360.576 261.316 360.6 262.885C360.603 264.889 360.074 266.679 359.011 268.257C357.961 269.822 356.492 271.058 354.604 271.966C352.727 272.861 350.552 273.319 348.077 273.337ZM348.047 269.354C349.725 269.341 351.171 269.059 352.386 268.506C353.601 267.954 354.537 267.18 355.193 266.185C355.85 265.191 356.179 264.029 356.181 262.701C356.158 261.301 355.787 260.067 355.066 258.998C354.346 257.929 353.368 257.091 352.132 256.485C350.908 255.879 349.512 255.582 347.942 255.594C346.361 255.606 344.951 255.924 343.713 256.549C342.486 257.174 341.521 258.027 340.817 259.106C340.125 260.186 339.79 261.426 339.813 262.826C339.811 264.154 340.14 265.31 340.799 266.295C341.471 267.28 342.424 268.039 343.659 268.573C344.895 269.106 346.357 269.367 348.047 269.354ZM347.913 251.755C349.241 251.745 350.416 251.471 351.438 250.932C352.472 250.393 353.281 249.644 353.865 248.686C354.449 247.728 354.743 246.609 354.745 245.33C354.723 244.074 354.419 242.984 353.833 242.059C353.246 241.122 352.438 240.404 351.408 239.905C350.378 239.394 349.181 239.143 347.817 239.153C346.429 239.164 345.218 239.433 344.184 239.96C343.15 240.475 342.353 241.205 341.792 242.151C341.232 243.084 340.963 244.179 340.984 245.434C340.982 246.714 341.274 247.828 341.861 248.777C342.46 249.726 343.28 250.463 344.322 250.986C345.364 251.509 346.561 251.765 347.913 251.755ZM379.206 273.101C377.081 273.117 375.165 272.709 373.457 271.877C371.748 271.045 370.376 269.897 369.338 268.432C368.301 266.967 367.727 265.293 367.616 263.411L371.962 263.378C372.143 265.055 372.914 266.437 374.275 267.525C375.647 268.601 377.281 269.132 379.176 269.117C380.696 269.106 382.046 268.739 383.223 268.018C384.413 267.297 385.341 266.312 386.007 265.064C386.686 263.803 387.019 262.382 387.007 260.801C386.995 259.184 386.628 257.744 385.906 256.482C385.196 255.208 384.223 254.207 382.986 253.48C381.749 252.753 380.34 252.39 378.759 252.39C377.624 252.386 376.46 252.57 375.268 252.941C374.076 253.301 373.096 253.761 372.327 254.322L368.123 253.847L370.229 235.579L389.494 235.432L389.524 239.416L374.026 239.534L372.805 250.479L373.022 250.478C373.778 249.868 374.728 249.36 375.872 248.953C377.015 248.546 378.209 248.338 379.452 248.328C381.721 248.311 383.747 248.839 385.53 249.912C387.325 250.973 388.736 252.435 389.764 254.298C390.804 256.161 391.334 258.294 391.352 260.696C391.37 263.061 390.855 265.178 389.807 267.045C388.771 268.9 387.333 270.371 385.495 271.459C383.656 272.536 381.56 273.083 379.206 273.101ZM410.733 272.861C408.005 272.882 405.676 272.157 403.745 270.687C401.814 269.205 400.331 267.049 399.296 264.22C398.26 261.379 397.727 257.943 397.697 253.912C397.666 249.904 398.147 246.478 399.139 243.634C400.144 240.777 401.6 238.594 403.508 237.082C405.427 235.559 407.739 234.787 410.443 234.766C413.147 234.746 415.464 235.482 417.395 236.977C419.338 238.459 420.827 240.62 421.862 243.461C422.91 246.29 423.449 249.708 423.479 253.715C423.51 257.747 423.029 261.191 422.037 264.047C421.045 266.892 419.594 269.07 417.687 270.581C415.779 272.08 413.461 272.84 410.733 272.861ZM410.702 268.878C413.406 268.857 415.497 267.537 416.974 264.919C418.451 262.3 419.171 258.577 419.134 253.748C419.109 250.538 418.745 247.806 418.039 245.554C417.346 243.302 416.356 241.59 415.067 240.417C413.791 239.243 412.259 238.663 410.473 238.677C407.793 238.697 405.709 240.035 404.22 242.69C402.731 245.333 402.005 249.062 402.042 253.878C402.066 257.089 402.425 259.815 403.118 262.055C403.811 264.295 404.796 265.995 406.072 267.156C407.361 268.318 408.904 268.891 410.702 268.878ZM442.092 272.622C439.968 272.639 438.051 272.231 436.343 271.399C434.635 270.567 433.262 269.418 432.225 267.953C431.187 266.489 430.613 264.815 430.502 262.933L434.848 262.9C435.03 264.576 435.801 265.959 437.161 267.047C438.533 268.123 440.167 268.654 442.062 268.639C443.583 268.628 444.932 268.261 446.109 267.54C447.299 266.819 448.227 265.834 448.894 264.586C449.572 263.325 449.905 261.904 449.893 260.323C449.881 258.705 449.514 257.266 448.792 256.004C448.082 254.729 447.109 253.729 445.872 253.002C444.635 252.275 443.226 251.911 441.645 251.911C440.51 251.908 439.347 252.092 438.155 252.463C436.962 252.822 435.982 253.282 435.214 253.843L431.009 253.368L433.115 235.101L452.38 234.954L452.41 238.937L436.912 239.055L435.691 250.001L435.909 250C436.664 249.39 437.614 248.882 438.758 248.475C439.902 248.068 441.095 247.86 442.338 247.85C444.608 247.833 446.634 248.361 448.416 249.434C450.211 250.494 451.622 251.956 452.65 253.82C453.691 255.683 454.22 257.815 454.238 260.217C454.256 262.583 453.741 264.7 452.693 266.566C451.657 268.421 450.22 269.893 448.381 270.981C446.542 272.057 444.446 272.604 442.092 272.622Z" fill="#FFAAA7" fill-opacity="0.7"/>
<path d="M373.718 370.192C372.775 370.074 371.849 369.792 370.941 369.345C370.034 368.898 369.234 368.223 368.542 367.321C367.852 366.411 367.346 365.23 367.025 363.776C366.705 362.315 366.661 360.519 366.891 358.389C367.112 356.349 367.499 354.562 368.052 353.028C368.606 351.487 369.305 350.216 370.15 349.214C370.995 348.206 371.962 347.475 373.05 347.024C374.146 346.574 375.343 346.419 376.641 346.559C377.931 346.699 379.05 347.082 379.999 347.708C380.957 348.328 381.705 349.13 382.243 350.114C382.782 351.098 383.08 352.196 383.138 353.409L380.393 353.112C380.25 352.049 379.848 351.137 379.187 350.375C378.526 349.613 377.588 349.166 376.373 349.034C374.587 348.841 373.097 349.465 371.901 350.906C370.713 352.349 369.964 354.472 369.652 357.276L369.833 357.296C370.322 356.704 370.879 356.214 371.505 355.826C372.14 355.432 372.823 355.15 373.555 354.978C374.287 354.807 375.047 354.764 375.834 354.849C377.154 354.992 378.326 355.453 379.35 356.232C380.374 357.003 381.154 358.002 381.689 359.228C382.225 360.447 382.412 361.799 382.252 363.284C382.097 364.709 381.637 365.98 380.871 367.096C380.106 368.205 379.109 369.045 377.878 369.618C376.656 370.183 375.269 370.375 373.718 370.192ZM373.986 367.717C374.931 367.819 375.804 367.674 376.605 367.283C377.414 366.893 378.079 366.323 378.6 365.575C379.129 364.828 379.446 363.967 379.551 362.992C379.654 362.039 379.534 361.15 379.191 360.324C378.857 359.491 378.343 358.801 377.651 358.256C376.966 357.711 376.151 357.388 375.206 357.286C374.494 357.209 373.814 357.279 373.169 357.498C372.523 357.709 371.942 358.033 371.424 358.47C370.914 358.908 370.493 359.428 370.163 360.029C369.833 360.623 369.63 361.265 369.556 361.956C369.457 362.871 369.578 363.749 369.919 364.59C370.268 365.432 370.791 366.138 371.489 366.706C372.194 367.276 373.026 367.613 373.986 367.717ZM386.592 371.267L399.105 351.996L399.124 351.816L387.243 350.53L387.511 348.055L402.272 349.652L401.99 352.263L389.517 371.583L386.592 371.267ZM402.087 368.163L402.335 365.868L414.195 350.943L415.86 351.123L415.476 354.679L414.351 354.557L405.39 365.835L405.37 366.015L419.006 367.491L418.738 369.966L402.087 368.163ZM412.421 374.063L413.008 368.64L413.124 367.571L414.915 351.021L417.571 351.309L415.076 374.35L412.421 374.063ZM432.307 352.585C433.251 352.695 434.176 352.977 435.083 353.432C435.99 353.887 436.789 354.565 437.481 355.467C438.173 356.362 438.68 357.536 439.001 358.99C439.321 360.443 439.367 362.228 439.138 364.343C438.917 366.391 438.525 368.188 437.963 369.736C437.409 371.277 436.709 372.552 435.864 373.561C435.026 374.571 434.059 375.301 432.963 375.751C431.875 376.203 430.682 376.358 429.384 376.218C428.094 376.078 426.97 375.698 426.013 375.079C425.064 374.452 424.316 373.647 423.77 372.662C423.233 371.67 422.94 370.557 422.891 369.323L425.636 369.62C425.769 370.704 426.166 371.631 426.826 372.401C427.495 373.164 428.437 373.611 429.652 373.743C431.43 373.935 432.916 373.31 434.112 371.869C435.315 370.429 436.07 368.291 436.377 365.455L436.197 365.436C435.709 366.021 435.151 366.51 434.524 366.905C433.897 367.3 433.218 367.583 432.486 367.755C431.754 367.926 430.99 367.968 430.195 367.882C428.875 367.739 427.699 367.282 426.667 366.51C425.644 365.732 424.864 364.733 424.328 363.514C423.801 362.288 423.617 360.933 423.778 359.448C423.931 358.037 424.385 356.781 425.142 355.68C425.907 354.571 426.901 353.73 428.124 353.157C429.355 352.584 430.749 352.394 432.307 352.585ZM432.039 355.06C431.094 354.958 430.217 355.102 429.408 355.493C428.608 355.876 427.943 356.442 427.415 357.189C426.894 357.929 426.582 358.78 426.478 359.74C426.374 360.7 426.49 361.596 426.824 362.429C427.168 363.256 427.681 363.941 428.366 364.486C429.059 365.024 429.878 365.344 430.823 365.446C431.536 365.523 432.215 365.456 432.86 365.245C433.506 365.027 434.084 364.699 434.594 364.261C435.113 363.816 435.537 363.297 435.867 362.703C436.198 362.101 436.4 361.459 436.474 360.776C436.571 359.876 436.445 359.009 436.095 358.174C435.753 357.34 435.229 356.639 434.525 356.069C433.827 355.5 432.999 355.164 432.039 355.06ZM452.077 354.725C453.021 354.835 453.947 355.117 454.854 355.572C455.761 356.027 456.56 356.705 457.251 357.607C457.944 358.502 458.45 359.676 458.771 361.13C459.092 362.583 459.138 364.368 458.909 366.483C458.687 368.531 458.295 370.329 457.733 371.876C457.179 373.418 456.48 374.693 455.634 375.701C454.796 376.711 453.83 377.441 452.734 377.892C451.645 378.343 450.452 378.498 449.155 378.358C447.864 378.218 446.741 377.839 445.783 377.219C444.834 376.593 444.087 375.787 443.541 374.802C443.003 373.81 442.71 372.697 442.662 371.463L445.407 371.76C445.54 372.844 445.937 373.771 446.597 374.541C447.266 375.304 448.207 375.751 449.423 375.883C451.2 376.075 452.687 375.451 453.882 374.009C455.086 372.569 455.841 370.431 456.147 367.596L455.967 367.576C455.479 368.161 454.922 368.651 454.295 369.046C453.667 369.441 452.988 369.724 452.256 369.895C451.524 370.066 450.761 370.109 449.966 370.023C448.646 369.88 447.47 369.422 446.438 368.65C445.414 367.872 444.634 366.873 444.099 365.654C443.571 364.428 443.388 363.073 443.548 361.588C443.701 360.178 444.156 358.922 444.913 357.82C445.678 356.711 446.672 355.87 447.895 355.297C449.125 354.724 450.519 354.534 452.077 354.725ZM451.809 357.2C450.864 357.098 449.987 357.242 449.178 357.633C448.378 358.017 447.714 358.582 447.185 359.329C446.665 360.07 446.353 360.92 446.249 361.88C446.145 362.84 446.26 363.737 446.595 364.57C446.938 365.396 447.452 366.081 448.137 366.626C448.83 367.164 449.649 367.484 450.594 367.586C451.306 367.663 451.985 367.597 452.63 367.386C453.276 367.167 453.854 366.839 454.365 366.401C454.883 365.956 455.307 365.437 455.637 364.843C455.968 364.241 456.17 363.599 456.244 362.916C456.342 362.016 456.216 361.149 455.866 360.314C455.523 359.481 455 358.779 454.295 358.209C453.598 357.641 452.769 357.304 451.809 357.2Z" fill="#FFAAA7" fill-opacity="0.7"/>
<path d="M381.476 393.092L378.982 416.133L376.192 415.831L378.37 395.715L378.235 395.7L372.205 398.826L372.512 395.991L378.686 392.789L381.476 393.092ZM386.208 417.097C385.653 417.037 385.198 416.787 384.844 416.347C384.489 415.906 384.342 415.408 384.402 414.853C384.462 414.298 384.713 413.843 385.153 413.489C385.594 413.134 386.092 412.987 386.647 413.047C387.202 413.107 387.656 413.358 388.011 413.798C388.365 414.239 388.513 414.737 388.453 415.292C388.413 415.659 388.283 415.986 388.062 416.274C387.848 416.562 387.578 416.783 387.25 416.937C386.931 417.085 386.583 417.138 386.208 417.097ZM399.607 418.685C398.062 418.517 396.727 418.096 395.601 417.42C394.483 416.737 393.647 415.877 393.092 414.838C392.537 413.791 392.331 412.646 392.473 411.401C392.572 410.426 392.86 409.546 393.34 408.763C393.82 407.973 394.427 407.337 395.162 406.855C395.906 406.366 396.706 406.092 397.562 406.033L397.577 405.898C396.505 405.494 395.694 404.78 395.145 403.757C394.596 402.726 394.392 401.6 394.532 400.378C394.651 399.207 395.061 398.193 395.76 397.335C396.46 396.478 397.364 395.84 398.472 395.421C399.587 395.003 400.82 394.867 402.17 395.013C403.505 395.157 404.669 395.553 405.661 396.199C406.654 396.845 407.4 397.662 407.9 398.65C408.408 399.638 408.602 400.718 408.483 401.888C408.343 403.11 407.891 404.165 407.127 405.054C406.371 405.936 405.438 406.461 404.327 406.629L404.313 406.764C405.129 407.004 405.84 407.442 406.447 408.076C407.054 408.704 407.512 409.455 407.819 410.331C408.128 411.199 408.233 412.121 408.135 413.097C407.992 414.341 407.535 415.415 406.761 416.317C405.997 417.213 404.995 417.875 403.758 418.303C402.528 418.724 401.145 418.851 399.607 418.685ZM399.875 416.209C400.918 416.322 401.836 416.251 402.63 415.995C403.424 415.74 404.061 415.327 404.54 414.757C405.019 414.186 405.307 413.489 405.404 412.665C405.491 411.794 405.349 411.001 404.979 410.285C404.608 409.57 404.061 408.979 403.338 408.514C402.622 408.049 401.776 407.764 400.801 407.659C399.818 407.552 398.92 407.649 398.106 407.948C397.3 408.247 396.639 408.707 396.124 409.327C395.617 409.947 395.32 410.693 395.233 411.564C395.136 412.388 395.257 413.129 395.596 413.788C395.942 414.448 396.479 414.988 397.207 415.408C397.936 415.829 398.825 416.096 399.875 416.209ZM401.059 405.274C401.884 405.363 402.633 405.277 403.307 405.016C403.987 404.756 404.544 404.349 404.975 403.797C405.407 403.244 405.67 402.57 405.763 401.776C405.84 400.995 405.73 400.297 405.432 399.68C405.136 399.056 404.686 398.552 404.082 398.168C403.479 397.776 402.754 397.535 401.907 397.443C401.044 397.35 400.273 397.429 399.593 397.682C398.914 397.927 398.366 398.323 397.95 398.87C397.535 399.41 397.289 400.07 397.213 400.851C397.119 401.645 397.22 402.358 397.516 402.989C397.819 403.621 398.276 404.138 398.885 404.537C399.494 404.937 400.219 405.183 401.059 405.274ZM421.648 397.121C422.592 397.231 423.518 397.514 424.425 397.968C425.331 398.423 426.131 399.102 426.822 400.004C427.515 400.898 428.021 402.072 428.342 403.526C428.662 404.98 428.708 406.764 428.479 408.879C428.258 410.927 427.866 412.725 427.304 414.273C426.75 415.814 426.05 417.089 425.205 418.098C424.367 419.107 423.4 419.837 422.304 420.288C421.216 420.739 420.023 420.895 418.725 420.754C417.435 420.614 416.311 420.235 415.354 419.615C414.405 418.989 413.658 418.183 413.112 417.198C412.574 416.207 412.281 415.094 412.232 413.859L414.977 414.156C415.111 415.241 415.507 416.168 416.168 416.937C416.836 417.7 417.778 418.147 418.993 418.279C420.771 418.471 422.257 417.847 423.453 416.405C424.656 414.965 425.411 412.827 425.718 409.992L425.538 409.972C425.05 410.557 424.492 411.047 423.865 411.442C423.238 411.837 422.559 412.12 421.827 412.291C421.095 412.462 420.332 412.505 419.537 412.419C418.216 412.276 417.04 411.818 416.008 411.047C414.985 410.268 414.205 409.269 413.669 408.05C413.142 406.824 412.958 405.469 413.119 403.984C413.272 402.574 413.726 401.318 414.483 400.216C415.248 399.107 416.242 398.266 417.465 397.693C418.696 397.121 420.09 396.93 421.648 397.121ZM421.38 399.597C420.435 399.494 419.558 399.638 418.749 400.029C417.949 400.413 417.284 400.978 416.756 401.725C416.235 402.466 415.923 403.316 415.819 404.276C415.715 405.236 415.831 406.133 416.166 406.966C416.509 407.792 417.023 408.478 417.707 409.022C418.4 409.56 419.219 409.88 420.164 409.983C420.877 410.06 421.556 409.993 422.201 409.782C422.847 409.563 423.425 409.235 423.935 408.797C424.454 408.352 424.878 407.833 425.208 407.239C425.539 406.637 425.741 405.995 425.815 405.313C425.912 404.413 425.786 403.545 425.436 402.711C425.094 401.877 424.571 401.175 423.866 400.606C423.169 400.037 422.34 399.7 421.38 399.597ZM438.901 422.938C437.356 422.771 436.02 422.349 434.894 421.673C433.777 420.991 432.94 420.13 432.385 419.091C431.831 418.045 431.625 416.899 431.767 415.655C431.865 414.679 432.154 413.8 432.633 413.017C433.113 412.227 433.721 411.59 434.456 411.108C435.199 410.62 435.999 410.346 436.855 410.287L436.87 410.152C435.798 409.747 434.988 409.034 434.438 408.01C433.89 406.98 433.685 405.854 433.825 404.632C433.944 403.461 434.354 402.447 435.054 401.589C435.754 400.731 436.658 400.093 437.765 399.674C438.88 399.256 440.113 399.12 441.463 399.266C442.798 399.411 443.962 399.806 444.954 400.453C445.947 401.099 446.693 401.916 447.193 402.903C447.701 403.891 447.895 404.971 447.776 406.142C447.636 407.364 447.184 408.419 446.42 409.308C445.665 410.189 444.731 410.714 443.621 410.883L443.606 411.018C444.422 411.258 445.134 411.695 445.74 412.33C446.348 412.957 446.805 413.709 447.113 414.584C447.421 415.452 447.526 416.374 447.428 417.35C447.286 418.595 446.828 419.668 446.055 420.571C445.29 421.467 444.289 422.129 443.051 422.556C441.822 422.977 440.438 423.105 438.901 422.938ZM439.169 420.463C440.211 420.576 441.13 420.504 441.924 420.249C442.718 419.993 443.354 419.58 443.833 419.01C444.313 418.44 444.601 417.742 444.697 416.918C444.784 416.047 444.642 415.254 444.272 414.539C443.902 413.823 443.355 413.233 442.631 412.767C441.915 412.303 441.069 412.018 440.094 411.912C439.112 411.806 438.213 411.902 437.399 412.201C436.593 412.501 435.932 412.96 435.418 413.58C434.91 414.201 434.613 414.946 434.527 415.817C434.43 416.641 434.551 417.383 434.889 418.042C435.235 418.702 435.772 419.242 436.501 419.662C437.229 420.082 438.119 420.349 439.169 420.463ZM440.352 409.527C441.178 409.616 441.927 409.531 442.6 409.27C443.281 409.009 443.837 408.603 444.269 408.05C444.7 407.497 444.963 406.824 445.056 406.03C445.133 405.249 445.023 404.55 444.726 403.934C444.429 403.31 443.979 402.806 443.375 402.422C442.773 402.03 442.048 401.788 441.2 401.697C440.338 401.603 439.566 401.683 438.886 401.936C438.207 402.181 437.66 402.577 437.244 403.124C436.829 403.663 436.583 404.323 436.506 405.104C436.412 405.898 436.513 406.611 436.809 407.243C437.113 407.875 437.569 408.391 438.178 408.791C438.788 409.191 439.512 409.436 440.352 409.527Z" fill="#FFAAA7" fill-opacity="0.7"/>
<path d="M388.473 453.555C386.809 453.186 385.491 452.419 384.521 451.254C383.552 450.081 382.95 448.56 382.715 446.692C382.481 444.817 382.637 442.649 383.182 440.189C383.724 437.744 384.496 435.724 385.498 434.13C386.51 432.53 387.702 431.404 389.076 430.75C390.458 430.09 391.974 429.943 393.624 430.309C395.274 430.675 396.583 431.448 397.55 432.628C398.526 433.802 399.131 435.327 399.364 437.203C399.607 439.072 399.457 441.23 398.915 443.675C398.37 446.135 397.596 448.166 396.592 449.767C395.59 451.361 394.402 452.485 393.028 453.139C391.656 453.785 390.138 453.924 388.473 453.555ZM389.012 451.124C390.662 451.49 392.12 450.979 393.386 449.59C394.651 448.201 395.611 446.034 396.264 443.088C396.698 441.128 396.858 439.413 396.743 437.943C396.636 436.474 396.272 435.292 395.651 434.398C395.037 433.504 394.186 432.937 393.095 432.695C391.46 432.333 390.004 432.857 388.725 434.266C387.449 435.667 386.485 437.838 385.834 440.776C385.4 442.736 385.237 444.446 385.346 445.908C385.455 447.369 385.817 448.543 386.432 449.428C387.054 450.316 387.914 450.881 389.012 451.124ZM401.722 456.352C401.177 456.231 400.753 455.932 400.449 455.455C400.145 454.978 400.053 454.467 400.174 453.922C400.295 453.377 400.594 452.953 401.071 452.649C401.548 452.345 402.059 452.254 402.604 452.374C403.149 452.495 403.573 452.794 403.877 453.271C404.181 453.748 404.272 454.259 404.152 454.804C404.072 455.165 403.906 455.476 403.655 455.737C403.411 456 403.118 456.19 402.775 456.307C402.442 456.418 402.091 456.433 401.722 456.352ZM414.932 459.418C413.635 459.131 412.525 458.614 411.601 457.868C410.676 457.123 410.001 456.231 409.574 455.194C409.147 454.156 409.031 453.057 409.227 451.895L411.879 452.482C411.755 453.529 412.031 454.479 412.708 455.332C413.393 456.179 414.314 456.731 415.47 456.987C416.398 457.193 417.272 457.158 418.09 456.884C418.915 456.611 419.618 456.141 420.199 455.473C420.788 454.8 421.19 453.981 421.404 453.017C421.623 452.03 421.6 451.101 421.337 450.231C421.083 449.356 420.63 448.61 419.978 447.995C419.326 447.379 418.519 446.96 417.556 446.739C416.865 446.578 416.13 446.528 415.352 446.587C414.576 446.639 413.914 446.782 413.368 447.017L410.873 446.139L414.711 435.306L426.467 437.911L425.928 440.342L416.47 438.246L414.196 444.743L414.329 444.772C414.874 444.507 415.524 444.33 416.278 444.242C417.031 444.154 417.787 444.194 418.546 444.362C419.931 444.669 421.091 445.274 422.027 446.177C422.972 447.074 423.627 448.162 423.993 449.441C424.366 450.721 424.39 452.094 424.065 453.56C423.745 455.004 423.136 456.221 422.236 457.211C421.346 458.196 420.264 458.892 418.992 459.298C417.721 459.696 416.368 459.736 414.932 459.418ZM427.565 461.893L442.122 444.115L442.161 443.939L430.494 441.353L431.032 438.923L445.528 442.135L444.96 444.698L430.438 462.529L427.565 461.893ZM451.591 467.541C450.666 467.321 449.777 466.938 448.924 466.394C448.071 465.849 447.35 465.091 446.762 464.118C446.176 463.138 445.803 461.908 445.644 460.428C445.487 458.94 445.64 457.151 446.104 455.059C446.548 453.055 447.129 451.322 447.847 449.858C448.567 448.387 449.402 447.201 450.352 446.298C451.303 445.389 452.344 444.769 453.476 444.441C454.614 444.113 455.821 444.091 457.095 444.373C458.362 444.654 459.433 445.158 460.307 445.885C461.191 446.606 461.846 447.485 462.273 448.523C462.7 449.56 462.875 450.685 462.8 451.897L460.104 451.299C460.079 450.227 459.78 449.276 459.207 448.446C458.633 447.616 457.75 447.068 456.557 446.804C454.804 446.416 453.254 446.872 451.907 448.173C450.567 449.476 449.588 451.504 448.971 454.257L449.147 454.296C449.699 453.761 450.307 453.336 450.972 453.019C451.646 452.697 452.356 452.492 453.102 452.402C453.849 452.312 454.608 452.353 455.382 452.525C456.678 452.812 457.792 453.399 458.724 454.285C459.657 455.164 460.322 456.243 460.719 457.521C461.118 458.791 461.155 460.156 460.832 461.614C460.522 463.014 459.925 464.226 459.041 465.251C458.159 466.269 457.075 466.994 455.789 467.428C454.511 467.856 453.112 467.894 451.591 467.541ZM452.129 465.11C453.057 465.316 453.941 465.268 454.781 464.968C455.627 464.668 456.351 464.176 456.951 463.49C457.559 462.805 457.968 461.984 458.181 461.027C458.388 460.091 458.366 459.194 458.116 458.335C457.875 457.47 457.441 456.729 456.813 456.11C456.192 455.494 455.418 455.083 454.49 454.877C453.79 454.722 453.107 454.717 452.441 454.863C451.777 455.002 451.163 455.26 450.6 455.638C450.045 456.017 449.57 456.487 449.175 457.049C448.782 457.603 448.51 458.219 448.36 458.897C448.161 459.795 448.184 460.682 448.431 461.555C448.686 462.431 449.128 463.19 449.758 463.832C450.396 464.475 451.187 464.901 452.129 465.11ZM464.268 470.026L478.825 452.248L478.864 452.072L467.197 449.486L467.736 447.056L482.231 450.268L481.663 452.831L467.141 470.662L464.268 470.026Z" fill="#FFAAA7" fill-opacity="0.7"/>
<path d="M324.947 135.087C322.237 135.402 319.843 134.932 317.766 133.678C315.687 132.413 313.98 130.43 312.646 127.729C311.31 125.016 310.41 121.657 309.945 117.652C309.483 113.672 309.592 110.214 310.272 107.279C310.963 104.331 312.175 102.003 313.909 100.295C315.654 98.5735 317.869 97.5569 320.555 97.2452C323.241 96.9334 325.624 97.4164 327.704 98.6939C329.795 99.9581 331.509 101.947 332.844 104.659C334.191 107.359 335.095 110.699 335.557 114.68C336.022 118.685 335.915 122.16 335.236 125.107C334.556 128.042 333.349 130.363 331.615 132.071C329.879 133.767 327.657 134.773 324.947 135.087ZM324.488 131.13C327.174 130.818 329.11 129.281 330.296 126.519C331.482 123.756 331.797 119.977 331.24 115.181C330.87 111.991 330.213 109.315 329.269 107.152C328.338 104.988 327.168 103.392 325.761 102.365C324.365 101.336 322.78 100.924 321.006 101.13C318.344 101.439 316.416 102.993 315.222 105.793C314.027 108.581 313.706 112.367 314.262 117.151C314.632 120.341 315.282 123.012 316.212 125.164C317.143 127.316 318.305 128.901 319.699 129.918C321.105 130.933 322.701 131.338 324.488 131.13ZM346.442 132.374C345.554 132.477 344.756 132.247 344.047 131.685C343.338 131.124 342.932 130.399 342.829 129.512C342.726 128.625 342.955 127.826 343.517 127.117C344.078 126.408 344.803 126.002 345.69 125.899C346.578 125.796 347.376 126.025 348.085 126.587C348.794 127.149 349.2 127.873 349.303 128.76C349.372 129.348 349.284 129.905 349.042 130.431C348.811 130.956 348.467 131.397 348.01 131.754C347.564 132.098 347.041 132.304 346.442 132.374ZM367.91 130.101C365.44 130.387 363.207 130.203 361.211 129.548C359.226 128.879 357.616 127.832 356.381 126.408C355.145 124.972 354.417 123.258 354.198 121.266C354.005 119.708 354.144 118.234 354.614 116.843C355.084 115.439 355.806 114.232 356.782 113.219C357.769 112.193 358.92 111.482 360.235 111.087L360.21 110.871C358.395 110.62 356.877 109.793 355.657 108.392C354.436 106.978 353.718 105.293 353.503 103.337C353.274 101.468 353.553 99.7405 354.341 98.1543C355.129 96.5682 356.313 95.252 357.893 94.2059C359.485 93.1583 361.36 92.5093 363.518 92.2588C365.653 92.0111 367.609 92.2155 369.386 92.872C371.163 93.5285 372.617 94.5385 373.748 95.902C374.89 97.2641 375.576 98.8797 375.805 100.749C376.02 102.705 375.689 104.511 374.812 106.168C373.945 107.812 372.675 108.962 371.001 109.618L371.026 109.834C372.385 109.919 373.65 110.35 374.822 111.125C375.992 111.889 376.972 112.899 377.762 114.156C378.551 115.401 379.041 116.803 379.234 118.36C379.453 120.352 379.12 122.189 378.233 123.872C377.358 125.541 376.03 126.928 374.251 128.034C372.482 129.127 370.368 129.815 367.91 130.101ZM367.451 126.144C369.118 125.95 370.525 125.514 371.674 124.834C372.822 124.153 373.669 123.283 374.214 122.224C374.76 121.164 374.962 119.974 374.821 118.654C374.647 117.264 374.145 116.077 373.314 115.092C372.482 114.107 371.42 113.379 370.126 112.91C368.844 112.439 367.423 112.294 365.865 112.475C364.294 112.657 362.926 113.126 361.762 113.88C360.61 114.634 359.743 115.585 359.159 116.735C358.587 117.882 358.388 119.151 358.562 120.541C358.703 121.861 359.154 122.975 359.916 123.883C360.689 124.79 361.719 125.442 363.005 125.84C364.29 126.237 365.772 126.339 367.451 126.144ZM365.422 108.662C366.741 108.509 367.879 108.109 368.837 107.463C369.807 106.816 370.531 105.985 371.009 104.969C371.486 103.954 371.657 102.81 371.522 101.538C371.365 100.292 370.945 99.2409 370.263 98.3845C369.579 97.516 368.698 96.8891 367.62 96.5038C366.541 96.1065 365.324 95.9865 363.969 96.1437C362.59 96.3038 361.415 96.7014 360.444 97.3367C359.471 97.96 358.757 98.7719 358.302 99.7726C357.846 100.761 357.696 101.878 357.853 103.124C357.988 104.396 358.399 105.473 359.084 106.353C359.782 107.232 360.677 107.876 361.769 108.284C362.861 108.692 364.079 108.818 365.422 108.662ZM394.656 88.645C396.168 88.4816 397.712 88.594 399.289 88.9822C400.865 89.3705 402.352 90.1457 403.751 91.3079C405.148 92.4581 406.355 94.1105 407.37 96.2651C408.386 98.4196 409.09 101.188 409.482 104.569C409.862 107.842 409.888 110.786 409.56 113.4C409.242 116.001 408.602 118.239 407.641 120.112C406.692 121.985 405.442 123.466 403.891 124.558C402.353 125.648 400.547 126.313 398.472 126.554C396.41 126.793 394.522 126.599 392.809 125.971C391.106 125.331 389.654 124.339 388.453 122.995C387.263 121.639 386.411 120.006 385.898 118.097L390.286 117.588C390.878 119.232 391.826 120.538 393.129 121.505C394.443 122.458 396.071 122.822 398.013 122.597C400.855 122.267 402.953 120.766 404.308 118.093C405.674 115.419 406.095 111.816 405.569 107.283L405.281 107.317C404.726 108.402 404.03 109.364 403.191 110.202C402.353 111.041 401.393 111.723 400.312 112.25C399.231 112.776 398.055 113.113 396.784 113.261C394.674 113.506 392.677 113.209 390.793 112.37C388.92 111.518 387.349 110.236 386.081 108.524C384.824 106.799 384.057 104.749 383.782 102.375C383.52 100.121 383.784 98 384.574 96.0126C385.375 94.0118 386.628 92.3474 388.333 91.0193C390.05 89.6899 392.158 88.8985 394.656 88.645ZM395.115 92.6018C393.604 92.7772 392.287 93.3128 391.164 94.2088C390.051 95.0913 389.215 96.2092 388.655 97.5623C388.106 98.902 387.92 100.339 388.098 101.874C388.276 103.409 388.774 104.767 389.592 105.948C390.42 107.115 391.465 108.003 392.726 108.61C393.998 109.203 395.389 109.413 396.9 109.237C398.039 109.105 399.075 108.76 400.006 108.202C400.937 107.633 401.722 106.916 402.363 106.051C403.015 105.174 403.493 104.213 403.797 103.169C404.1 102.113 404.188 101.04 404.061 99.9484C403.894 98.5096 403.39 97.201 402.548 96.0227C401.719 94.843 400.653 93.9338 399.352 93.295C398.062 92.6547 396.65 92.4237 395.115 92.6018ZM426.261 84.9768C427.774 84.8135 429.318 84.9259 430.894 85.3141C432.47 85.7023 433.958 86.4775 435.356 87.6398C436.754 88.79 437.96 90.4424 438.976 92.597C439.991 94.7515 440.695 97.5194 441.088 100.901C441.468 104.174 441.493 107.118 441.165 109.732C440.847 112.333 440.208 114.571 439.246 116.444C438.297 118.316 437.047 119.798 435.497 120.89C433.958 121.979 432.152 122.645 430.078 122.886C428.015 123.125 426.128 122.931 424.414 122.303C422.712 121.662 421.26 120.67 420.059 119.327C418.868 117.971 418.017 116.338 417.503 114.429L421.892 113.92C422.484 115.564 423.431 116.87 424.734 117.837C426.048 118.79 427.676 119.154 429.619 118.929C432.46 118.599 434.558 117.098 435.913 114.425C437.28 111.751 437.7 108.148 437.174 103.615L436.886 103.649C436.332 104.734 435.635 105.696 434.797 106.534C433.958 107.373 432.999 108.055 431.917 108.582C430.836 109.108 429.66 109.445 428.389 109.593C426.279 109.838 424.282 109.541 422.398 108.702C420.525 107.85 418.955 106.568 417.687 104.856C416.429 103.131 415.663 101.081 415.387 98.7069C415.125 96.4526 415.39 94.3318 416.18 92.3444C416.98 90.3436 418.233 88.6792 419.938 87.3512C421.656 86.0218 423.763 85.2303 426.261 84.9768ZM426.721 88.9337C425.21 89.109 423.893 89.6447 422.769 90.5406C421.657 91.4232 420.82 92.541 420.26 93.8941C419.711 95.2338 419.525 96.6711 419.704 98.2059C419.882 99.7406 420.38 101.099 421.197 102.28C422.025 103.447 423.07 104.335 424.331 104.942C425.603 105.535 426.995 105.745 428.506 105.569C429.645 105.437 430.68 105.092 431.612 104.534C432.542 103.964 433.328 103.247 433.969 102.383C434.62 101.506 435.098 100.545 435.402 99.5008C435.705 98.4449 435.793 97.3714 435.666 96.2803C435.5 94.8414 434.995 93.5329 434.154 92.3546C433.324 91.1749 432.259 90.2657 430.957 89.6268C429.668 88.9866 428.255 88.7556 426.721 88.9337ZM462.546 119.117C459.837 119.432 457.443 118.962 455.365 117.709C453.286 116.443 451.58 114.46 450.245 111.759C448.91 109.046 448.009 105.687 447.545 101.683C447.083 97.7017 447.192 94.2439 447.872 91.3093C448.563 88.3612 449.775 86.0332 451.509 84.3251C453.253 82.6036 455.469 81.587 458.155 81.2753C460.84 80.9636 463.224 81.4465 465.304 82.724C467.395 83.9882 469.108 85.9767 470.444 88.6895C471.79 91.389 472.694 94.7292 473.156 98.71C473.621 102.715 473.514 106.191 472.835 109.137C472.155 112.072 470.948 114.393 469.214 116.101C467.479 117.797 465.256 118.803 462.546 119.117ZM462.087 115.16C464.773 114.849 466.709 113.312 467.895 110.549C469.082 107.787 469.396 104.007 468.84 99.211C468.47 96.0215 467.813 93.3453 466.869 91.1825C465.937 89.0182 464.768 87.4222 463.36 86.3947C461.965 85.3657 460.38 84.9543 458.605 85.1602C455.944 85.4692 454.016 87.0236 452.822 89.8234C451.626 92.6113 451.306 96.3973 451.861 101.182C452.231 104.371 452.882 107.042 453.812 109.194C454.742 111.346 455.904 112.931 457.298 113.948C458.704 114.964 460.301 115.368 462.087 115.16Z" fill="#FFAAA7" fill-opacity="0.7"/>
<path d="M313.368 66.4109C311.303 66.9098 309.344 66.9485 307.492 66.5269C305.639 66.1053 304.041 65.2992 302.698 64.1087C301.354 62.9182 300.415 61.4191 299.879 59.6113L304.103 58.5908C304.661 60.1821 305.726 61.3528 307.298 62.103C308.879 62.8387 310.591 62.984 312.433 62.5389C313.911 62.1817 315.142 61.5181 316.124 60.548C317.119 59.5751 317.799 58.405 318.164 57.0377C318.538 55.6558 318.539 54.1964 318.168 52.6593C317.788 51.087 317.103 49.7685 316.113 48.7038C315.132 47.6245 313.956 46.8715 312.587 46.445C311.217 46.0184 309.762 45.9849 308.222 46.3445C307.116 46.5993 306.025 47.043 304.949 47.6756C303.869 48.2965 303.019 48.9676 302.399 49.6887L298.197 50.1825L296.093 31.9144L314.819 27.3899L315.755 31.262L300.689 34.9019L301.99 45.8385L302.201 45.7874C302.799 45.0222 303.608 44.3113 304.629 43.6548C305.65 42.9983 306.765 42.524 307.974 42.232C310.18 41.6991 312.273 41.7522 314.252 42.3915C316.241 43.0162 317.948 44.1189 319.373 45.6994C320.81 47.2771 321.81 49.2334 322.375 51.5684C322.93 53.8681 322.91 56.0462 322.314 58.1026C321.727 60.1444 320.662 61.9043 319.119 63.3823C317.573 64.8486 315.656 65.8581 313.368 66.4109ZM343.803 59.0577C341.386 59.6417 339.147 59.7293 337.086 59.3207C335.035 58.8975 333.309 58.0538 331.911 56.7897C330.51 55.5138 329.58 53.9006 329.121 51.95C328.741 50.4275 328.7 48.9473 328.998 47.5092C329.294 46.0594 329.865 44.7727 330.711 43.6493C331.566 42.5114 332.622 41.6663 333.88 41.1141L333.829 40.9029C331.996 40.8738 330.39 40.2375 329.009 38.994C327.625 37.7387 326.708 36.1534 326.258 34.2381C325.804 32.4105 325.872 30.6617 326.462 28.9917C327.052 27.3217 328.067 25.8718 329.509 24.6418C330.962 23.409 332.744 22.5375 334.856 22.0272C336.945 21.5226 338.911 21.4884 340.755 21.9246C342.599 22.3608 344.165 23.1871 345.452 24.4035C346.751 25.6171 347.628 27.1377 348.082 28.9652C348.532 30.8806 348.422 32.714 347.753 34.4653C347.092 36.2021 345.971 37.4975 344.389 38.3516L344.44 38.5628C345.799 38.4828 347.107 38.7566 348.364 39.3843C349.618 40.0003 350.713 40.8843 351.65 42.0365C352.583 43.1769 353.24 44.5084 353.621 46.0309C354.079 47.9814 353.971 49.8456 353.295 51.6232C352.628 53.3863 351.479 54.9245 349.846 56.2378C348.223 57.5366 346.209 58.4765 343.803 59.0577ZM342.868 55.1857C344.499 54.7916 345.843 54.1874 346.9 53.3731C347.958 52.5588 348.693 51.5926 349.106 50.4746C349.519 49.3565 349.575 48.1507 349.275 46.8572C348.935 45.499 348.292 44.3814 347.347 43.5044C346.403 42.6274 345.26 42.0342 343.919 41.725C342.589 41.4129 341.161 41.4411 339.636 41.8097C338.099 42.181 336.798 42.8119 335.735 43.7023C334.682 44.5898 333.936 45.6394 333.496 46.8509C333.068 48.0596 333.024 49.3431 333.365 50.7013C333.665 51.9948 334.248 53.0461 335.114 53.8551C335.992 54.6613 337.093 55.1839 338.417 55.4227C339.742 55.6616 341.225 55.5825 342.868 55.1857ZM338.735 38.0784C340.025 37.7666 341.107 37.2321 341.979 36.4749C342.864 35.7148 343.481 34.8018 343.832 33.736C344.183 32.6702 344.215 31.5139 343.926 30.2674C343.619 29.0499 343.075 28.0575 342.294 27.2901C341.509 26.511 340.559 25.9955 339.443 25.7437C338.323 25.4801 337.101 25.5085 335.775 25.8288C334.426 26.1548 333.307 26.692 332.42 27.4403C331.53 28.1769 330.92 29.0695 330.59 30.1179C330.257 31.1546 330.243 32.2817 330.55 33.4991C330.839 34.7457 331.376 35.7644 332.164 36.5553C332.963 37.3433 333.929 37.8735 335.063 38.146C336.196 38.4185 337.42 38.396 338.735 38.0784ZM365.327 14.6655C366.808 14.32 368.354 14.2444 369.966 14.4387C371.577 14.633 373.148 15.2222 374.677 16.2063C376.204 17.1787 377.602 18.6726 378.871 20.6882C380.14 22.7037 381.175 25.3659 381.974 28.6747C382.748 31.8779 383.13 34.7969 383.121 37.4318C383.121 40.0521 382.757 42.3504 382.03 44.3268C381.315 46.3002 380.254 47.9226 378.847 49.1938C377.452 50.4622 375.74 51.3416 373.71 51.832C371.692 52.3196 369.795 52.3558 368.018 51.9406C366.25 51.5109 364.688 50.7022 363.334 49.5145C361.988 48.3123 360.944 46.7948 360.203 44.962L364.498 43.9245C365.285 45.4853 366.383 46.6666 367.794 47.4682C369.214 48.2553 370.874 48.4192 372.775 47.96C375.555 47.2881 377.456 45.5436 378.477 42.7264C379.509 39.9064 379.49 36.2788 378.418 31.8436L378.136 31.9117C377.717 33.056 377.143 34.0952 376.412 35.0292C375.682 35.9632 374.812 36.7571 373.802 37.4107C372.793 38.0644 371.666 38.5415 370.423 38.842C368.358 39.3409 366.339 39.2884 364.368 38.6843C362.405 38.0656 360.691 36.9834 359.225 35.4377C357.767 33.8774 356.758 31.9357 356.197 29.6125C355.664 27.4066 355.669 25.2694 356.212 23.2009C356.765 21.1178 357.806 19.3137 359.338 17.7888C360.881 16.261 362.877 15.2199 365.327 14.6655ZM366.262 18.5375C364.784 18.8947 363.541 19.586 362.535 20.6116C361.537 21.6225 360.842 22.8335 360.451 24.2445C360.068 25.6409 360.058 27.09 360.421 28.5919C360.784 30.0938 361.442 31.3813 362.397 32.4546C363.361 33.5133 364.505 34.2674 365.831 34.7171C367.165 35.1522 368.572 35.1911 370.05 34.8339C371.165 34.5646 372.151 34.0967 373.008 33.4301C373.863 32.7517 374.556 31.9448 375.087 31.0092C375.627 30.059 375.985 29.0474 376.161 27.9743C376.333 26.8895 376.29 25.8132 376.032 24.7455C375.692 23.3375 375.033 22.0997 374.055 21.0321C373.088 19.9617 371.921 19.1883 370.551 18.712C369.194 18.2328 367.764 18.1746 366.262 18.5375ZM405.483 44.1556C402.831 44.7963 400.398 44.6204 398.184 43.6279C395.966 42.6237 394.032 40.862 392.38 38.3428C390.726 35.8119 389.425 32.5869 388.478 28.668C387.537 24.7725 387.226 21.327 387.545 18.3316C387.874 15.3215 388.795 12.8637 390.309 10.958C391.832 9.03777 393.907 7.76015 396.536 7.12514C399.164 6.49014 401.588 6.6806 403.808 7.69652C406.037 8.69788 407.979 10.464 409.633 12.995C411.297 15.5114 412.599 18.7173 413.54 22.6127C414.487 26.5317 414.802 29.9947 414.486 33.0019C414.166 35.9974 413.25 38.448 411.736 40.3537C410.219 42.2476 408.134 43.5149 405.483 44.1556ZM404.547 40.2836C407.175 39.6486 408.911 37.8881 409.753 35.0022C410.596 32.1163 410.45 28.3266 409.316 23.6333C408.562 20.5122 407.586 17.9354 406.387 15.9029C405.2 13.8675 403.845 12.4251 402.324 11.5757C400.814 10.7235 399.191 10.5072 397.454 10.9267C394.849 11.5561 393.124 13.3327 392.278 16.2567C391.43 19.1689 391.571 22.9658 392.702 27.6474C393.456 30.7685 394.425 33.3409 395.61 35.3645C396.794 37.3882 398.14 38.8202 399.647 39.6607C401.165 40.4983 402.799 40.706 404.547 40.2836Z" fill="#FFAAA7" fill-opacity="0.7"/>
<path d="M225.949 46.3847L326.819 168.711L352.847 148.012L362.437 242.909L278.434 218.896L302.233 194.911L220.438 81.0234" stroke="white" stroke-width="4.78009"/>
<path d="M139.18 205.721L192.558 229.622C193.62 233.34 195.426 242.05 194.151 247.149C201.162 254.16 203.446 269.19 203.711 275.829C206.367 280.078 211.36 289.373 210.085 292.56C221.238 302.12 241.156 355.498 241.156 361.871C241.156 366.97 240.093 375.68 239.562 379.398C238.234 382.054 233.826 388.002 226.815 390.552C224.088 391.543 212.998 395.299 198.68 400.112L203.711 482.17L30.0347 486.154L14.101 471.017L8.36306 343.547C4.56357 339.429 1.06481 335.596 -1.83264 332.394V214.485C1.88521 214.485 10.4363 213.847 14.8977 211.298C20.4745 208.111 25.2546 203.331 30.0347 201.738C33.8587 200.463 45.4372 194.302 50.7484 191.381L76.2422 205.721L122.45 267.066L125.637 211.298L139.18 205.721Z" fill="black"/>
<path d="M8.36306 343.547C24.413 360.943 45.8289 383.429 49.9517 384.975C55.0505 386.887 94.0348 384.178 112.89 382.585L127.23 424.012C145.729 417.846 176.187 407.674 198.68 400.112M8.36306 343.547C4.56357 339.429 1.06481 335.596 -1.83264 332.394V214.485C1.88521 214.485 10.4363 213.847 14.8977 211.298C20.4745 208.111 25.2546 203.331 30.0347 201.738C33.8587 200.463 45.4372 194.302 50.7484 191.381L76.2422 205.721L122.45 267.066L125.637 211.298L139.18 205.721L192.558 229.622C193.62 233.34 195.426 242.05 194.151 247.149C201.162 254.16 203.446 269.19 203.711 275.829C206.367 280.078 211.36 289.373 210.085 292.56C221.238 302.12 241.155 355.498 241.155 361.871C241.155 366.97 240.093 375.68 239.562 379.398C238.234 382.054 233.826 388.002 226.815 390.552C224.088 391.543 212.998 395.299 198.68 400.112M8.36306 343.547L14.101 471.017L30.0347 486.153L203.711 482.17L198.68 400.112" stroke="black" stroke-width="3.18673"/>
<path d="M124.043 408.079L80.2256 384.975H112.89L124.043 408.079Z" fill="#664C3F" stroke="#664C3F" stroke-width="3.18673"/>
<path d="M86.5991 234.402L91.3792 222.452L92.1759 218.468L108.906 221.655L122.45 234.402L123.247 270.252L103.329 249.539L86.5991 234.402Z" fill="white" stroke="white" stroke-width="3.18673"/>
<path d="M88.1925 236.792C106.782 252.991 145.076 292.082 149.537 318.85" stroke="#525252" stroke-width="3.18673"/>
<path d="M87.3958 239.979L53.1384 192.974L134.4 205.721C133.869 208.908 123.565 226.276 121.653 235.199C112.093 226.435 111.296 224.842 102.533 224.045C95.5219 223.408 89.5203 234.402 87.3958 239.979Z" fill="white" stroke="black" stroke-width="3.18673"/>
<path d="M55.0331 92.2128C39.0995 143.838 44.375 184.051 51.5451 192.178L100.143 220.858L139.18 205.721C150.422 193.409 158.301 105.756 143.164 87.4328C150.334 68.3124 128.328 66.719 122.751 72.2958C117.971 67.5157 83.7137 66.719 76.5436 74.6858C70.9668 65.1256 44.6763 73.0925 55.0331 92.2128Z" fill="#664C3F" stroke="black" stroke-width="1.59336"/>
<path d="M195.745 336.459C198.294 324.987 178.218 323.181 167.861 323.712L175.031 350.799C180.873 350.799 193.195 347.931 195.745 336.459Z" fill="#664C3F" stroke="#664C3F" stroke-width="3.18673"/>
<path d="M50.7484 300.526C64.77 296.065 69.3377 307.697 69.8688 314.07L64.292 314.867L55.5285 311.68C54.9974 310.352 53.2978 306.263 50.7484 300.526Z" fill="#664C3F" stroke="#664C3F" stroke-width="3.18673"/>
<path d="M172.641 355.498C178.483 352.311 191.443 345.619 196.541 344.344" stroke="#525252" stroke-width="3.18673"/>
<path d="M139.977 205.721L155.91 229.622L144.757 239.979L161.487 254.319C156.176 275.564 146.51 318.372 150.334 319.647" stroke="#525252" stroke-width="3.18673"/>
<path d="M8.52423 346.734C20.4745 358.419 45.6496 382.107 50.7484 383.381C55.8472 384.656 135.728 383.913 175.031 383.381C174.234 364.527 171.047 326.02 164.674 322.834C158.301 319.647 105.719 317.788 80.2257 317.257C78.8978 316.195 75.4456 314.389 72.2588 315.663C68.4348 313.751 65.3542 315.398 64.292 316.46C63.2298 314.867 59.8306 311.839 54.7318 312.477C54.0945 309.927 50.2173 301.323 48.3584 297.34" stroke="#525252" stroke-width="3.18673"/>
<path d="M112.093 384.178C120.06 395.597 134.4 421.144 128.027 431.979C145.872 426.88 202.915 402.767 229.205 391.348C235.048 387.365 245.936 376.211 242.749 363.464C238.765 347.531 218.052 297.34 211.678 292.56C212.953 288.736 207.96 280.344 205.305 276.626C205.305 269.987 203.393 254.638 195.745 246.352C197.657 233.605 194.417 229.356 192.558 228.825L139.977 204.925" stroke="#525252" stroke-width="3.18673"/>
<path d="M51.5451 192.974L43.5782 219.265L65.0887 232.808V244.759C69.8688 250.336 80.5443 261.967 85.0057 263.879C90.5825 266.269 122.45 290.17 127.23 294.153C132.01 298.136 148.74 317.257 148.74 320.444" stroke="#525252" stroke-width="3.18673"/>
<path d="M117.81 133.27C117.81 138.346 116.423 141.318 114.107 143.084C111.718 144.905 108.099 145.642 103.189 145.642C98.2698 145.642 94.9701 144.901 92.8802 143.122C90.8371 141.383 89.6921 138.418 89.6921 133.27C89.6921 128.128 90.8371 122.119 93.1587 117.438C95.4922 112.732 98.8487 109.651 103.189 109.651C107.557 109.651 111.194 112.768 113.805 117.483C116.4 122.17 117.81 128.166 117.81 133.27Z" fill="white" stroke="black" stroke-width="2.24946"/>
<path d="M104.869 122.789C104.004 123.668 102.592 123.687 101.704 122.831L100.339 121.515C98.8921 120.12 99.8608 117.672 101.87 117.646L104.566 117.61C106.575 117.583 107.608 120.005 106.199 121.437L104.869 122.789Z" fill="black"/>
<circle cx="3.55177" cy="3.55177" r="3.55177" transform="matrix(1 0 0 -1 81.819 115.63)" fill="black"/>
<circle cx="3.55177" cy="3.55177" r="3.55177" transform="matrix(1 0 0 -1 117.81 115.63)" fill="black"/>
<path d="M117.67 115.696C118.732 117.024 120.856 117.589 124.84 115.995C128.027 115.199 125.902 131.398 124.84 135.912" stroke="#0FC5FF" stroke-width="3.18673" stroke-linecap="round"/>
<path d="M123.247 141.987V143.58" stroke="#0FC5FF" stroke-width="3.18673" stroke-linecap="round"/>
<mask id="path-51-outside-1_12_461" maskUnits="userSpaceOnUse" x="201.321" y="252.589" width="239" height="157" fill="black">
<rect fill="white" x="201.321" y="252.589" width="239" height="157"/>
<path d="M252.164 255.966V311.589H245.646L215.336 267.916H214.793V311.589H208.057V255.966H214.575L244.994 299.747H245.537V255.966H252.164ZM281.721 312.458C277.955 312.458 274.65 311.561 271.807 309.769C268.983 307.976 266.774 305.469 265.18 302.246C263.605 299.023 262.818 295.257 262.818 290.947C262.818 286.602 263.605 282.808 265.18 279.567C266.774 276.326 268.983 273.81 271.807 272.017C274.65 270.225 277.955 269.328 281.721 269.328C285.487 269.328 288.782 270.225 291.607 272.017C294.449 273.81 296.658 276.326 298.234 279.567C299.827 282.808 300.624 286.602 300.624 290.947C300.624 295.257 299.827 299.023 298.234 302.246C296.658 305.469 294.449 307.976 291.607 309.769C288.782 311.561 285.487 312.458 281.721 312.458ZM281.721 306.7C284.581 306.7 286.935 305.967 288.782 304.5C290.629 303.033 291.996 301.105 292.883 298.715C293.77 296.325 294.214 293.736 294.214 290.947C294.214 288.159 293.77 285.561 292.883 283.152C291.996 280.744 290.629 278.798 288.782 277.313C286.935 275.828 284.581 275.086 281.721 275.086C278.86 275.086 276.506 275.828 274.659 277.313C272.812 278.798 271.445 280.744 270.558 283.152C269.671 285.561 269.227 288.159 269.227 290.947C269.227 293.736 269.671 296.325 270.558 298.715C271.445 301.105 272.812 303.033 274.659 304.5C276.506 305.967 278.86 306.7 281.721 306.7ZM328.551 269.871V275.303H306.932V269.871H328.551ZM313.233 259.877H319.642V299.638C319.642 301.449 319.905 302.807 320.43 303.712C320.973 304.6 321.661 305.197 322.494 305.505C323.345 305.795 324.241 305.939 325.183 305.939C325.889 305.939 326.468 305.903 326.921 305.831C327.374 305.74 327.736 305.668 328.007 305.614L329.311 311.371C328.877 311.534 328.27 311.697 327.491 311.86C326.713 312.041 325.726 312.132 324.531 312.132C322.72 312.132 320.946 311.743 319.208 310.964C317.488 310.185 316.057 308.999 314.916 307.406C313.794 305.813 313.233 303.803 313.233 301.377V259.877ZM236.738 372.214L230.98 373.844C230.618 372.884 230.083 371.952 229.377 371.046C228.689 370.123 227.748 369.363 226.553 368.765C225.358 368.168 223.828 367.869 221.963 367.869C219.41 367.869 217.282 368.457 215.58 369.634C213.896 370.793 213.054 372.269 213.054 374.061C213.054 375.655 213.634 376.913 214.793 377.836C215.951 378.76 217.762 379.529 220.224 380.145L226.417 381.666C230.147 382.571 232.926 383.956 234.755 385.821C236.584 387.668 237.498 390.049 237.498 392.964C237.498 395.354 236.81 397.491 235.434 399.374C234.076 401.257 232.175 402.742 229.73 403.828C227.286 404.915 224.443 405.458 221.202 405.458C216.947 405.458 213.425 404.534 210.637 402.687C207.849 400.841 206.083 398.143 205.341 394.594L211.425 393.073C212.004 395.318 213.1 397.002 214.711 398.125C216.341 399.247 218.468 399.809 221.094 399.809C224.081 399.809 226.453 399.175 228.209 397.907C229.984 396.622 230.871 395.083 230.871 393.29C230.871 391.842 230.364 390.629 229.35 389.651C228.336 388.655 226.779 387.913 224.679 387.424L217.726 385.794C213.905 384.889 211.099 383.486 209.306 381.584C207.532 379.665 206.645 377.266 206.645 374.387C206.645 372.033 207.306 369.951 208.627 368.14C209.967 366.33 211.787 364.908 214.086 363.876C216.404 362.844 219.029 362.328 221.963 362.328C226.091 362.328 229.332 363.234 231.686 365.044C234.058 366.855 235.742 369.245 236.738 372.214ZM265.289 362.871V368.303H243.67V362.871H265.289ZM249.971 352.877H256.381V392.638C256.381 394.449 256.643 395.807 257.168 396.712C257.712 397.6 258.4 398.197 259.232 398.505C260.083 398.795 260.98 398.939 261.921 398.939C262.627 398.939 263.207 398.903 263.659 398.831C264.112 398.74 264.474 398.668 264.746 398.614L266.05 404.371C265.615 404.534 265.008 404.697 264.23 404.86C263.451 405.041 262.464 405.132 261.269 405.132C259.459 405.132 257.684 404.743 255.946 403.964C254.226 403.185 252.796 401.999 251.655 400.406C250.532 398.813 249.971 396.803 249.971 394.377V352.877ZM291.43 405.458C287.664 405.458 284.36 404.561 281.517 402.769C278.692 400.976 276.483 398.469 274.89 395.246C273.315 392.023 272.527 388.257 272.527 383.947C272.527 379.602 273.315 375.808 274.89 372.567C276.483 369.326 278.692 366.81 281.517 365.017C284.36 363.225 287.664 362.328 291.43 362.328C295.196 362.328 298.492 363.225 301.316 365.017C304.159 366.81 306.368 369.326 307.943 372.567C309.537 375.808 310.333 379.602 310.333 383.947C310.333 388.257 309.537 392.023 307.943 395.246C306.368 398.469 304.159 400.976 301.316 402.769C298.492 404.561 295.196 405.458 291.43 405.458ZM291.43 399.7C294.291 399.7 296.645 398.967 298.492 397.5C300.339 396.033 301.706 394.105 302.593 391.715C303.48 389.325 303.924 386.736 303.924 383.947C303.924 381.159 303.48 378.561 302.593 376.152C301.706 373.744 300.339 371.798 298.492 370.313C296.645 368.828 294.291 368.086 291.43 368.086C288.569 368.086 286.216 368.828 284.369 370.313C282.522 371.798 281.155 373.744 280.268 376.152C279.38 378.561 278.937 381.159 278.937 383.947C278.937 386.736 279.38 389.325 280.268 391.715C281.155 394.105 282.522 396.033 284.369 397.5C286.216 398.967 288.569 399.7 291.43 399.7ZM326.527 379.493V404.589H320.118V362.871H326.31V369.39H326.853C327.831 367.271 329.316 365.569 331.307 364.284C333.299 362.98 335.87 362.328 339.021 362.328C341.845 362.328 344.317 362.908 346.435 364.066C348.554 365.207 350.201 366.945 351.378 369.281C352.555 371.599 353.144 374.532 353.144 378.081V404.589H346.734V378.515C346.734 375.238 345.883 372.685 344.181 370.856C342.479 369.01 340.143 368.086 337.174 368.086C335.128 368.086 333.299 368.53 331.688 369.417C330.094 370.304 328.836 371.599 327.912 373.301C326.989 375.003 326.527 377.067 326.527 379.493ZM370.831 389.379L370.723 381.449H372.026L390.278 362.871H398.208L378.762 382.535H378.219L370.831 389.379ZM364.856 404.589V348.966H371.266V404.589H364.856ZM391.364 404.589L375.068 383.947L379.631 379.493L399.512 404.589H391.364ZM436.008 372.214L430.25 373.844C429.888 372.884 429.354 371.952 428.647 371.046C427.959 370.123 427.018 369.363 425.823 368.765C424.628 368.168 423.098 367.869 421.233 367.869C418.68 367.869 416.552 368.457 414.85 369.634C413.166 370.793 412.324 372.269 412.324 374.061C412.324 375.655 412.904 376.913 414.063 377.836C415.222 378.76 417.032 379.529 419.495 380.145L425.687 381.666C429.417 382.571 432.196 383.956 434.025 385.821C435.854 387.668 436.768 390.049 436.768 392.964C436.768 395.354 436.08 397.491 434.704 399.374C433.346 401.257 431.445 402.742 429.001 403.828C426.556 404.915 423.713 405.458 420.472 405.458C416.217 405.458 412.696 404.534 409.907 402.687C407.119 400.841 405.354 398.143 404.611 394.594L410.695 393.073C411.274 395.318 412.37 397.002 413.981 398.125C415.611 399.247 417.738 399.809 420.364 399.809C423.351 399.809 425.723 399.175 427.48 397.907C429.254 396.622 430.141 395.083 430.141 393.29C430.141 391.842 429.634 390.629 428.62 389.651C427.606 388.655 426.049 387.913 423.949 387.424L416.996 385.794C413.175 384.889 410.369 383.486 408.576 381.584C406.802 379.665 405.915 377.266 405.915 374.387C405.915 372.033 406.576 369.951 407.897 368.14C409.237 366.33 411.057 364.908 413.357 363.876C415.674 362.844 418.3 362.328 421.233 362.328C425.361 362.328 428.602 363.234 430.956 365.044C433.328 366.855 435.012 369.245 436.008 372.214Z"/>
</mask>
<path d="M252.164 255.966V311.589H245.646L215.336 267.916H214.793V311.589H208.057V255.966H214.575L244.994 299.747H245.537V255.966H252.164ZM281.721 312.458C277.955 312.458 274.65 311.561 271.807 309.769C268.983 307.976 266.774 305.469 265.18 302.246C263.605 299.023 262.818 295.257 262.818 290.947C262.818 286.602 263.605 282.808 265.18 279.567C266.774 276.326 268.983 273.81 271.807 272.017C274.65 270.225 277.955 269.328 281.721 269.328C285.487 269.328 288.782 270.225 291.607 272.017C294.449 273.81 296.658 276.326 298.234 279.567C299.827 282.808 300.624 286.602 300.624 290.947C300.624 295.257 299.827 299.023 298.234 302.246C296.658 305.469 294.449 307.976 291.607 309.769C288.782 311.561 285.487 312.458 281.721 312.458ZM281.721 306.7C284.581 306.7 286.935 305.967 288.782 304.5C290.629 303.033 291.996 301.105 292.883 298.715C293.77 296.325 294.214 293.736 294.214 290.947C294.214 288.159 293.77 285.561 292.883 283.152C291.996 280.744 290.629 278.798 288.782 277.313C286.935 275.828 284.581 275.086 281.721 275.086C278.86 275.086 276.506 275.828 274.659 277.313C272.812 278.798 271.445 280.744 270.558 283.152C269.671 285.561 269.227 288.159 269.227 290.947C269.227 293.736 269.671 296.325 270.558 298.715C271.445 301.105 272.812 303.033 274.659 304.5C276.506 305.967 278.86 306.7 281.721 306.7ZM328.551 269.871V275.303H306.932V269.871H328.551ZM313.233 259.877H319.642V299.638C319.642 301.449 319.905 302.807 320.43 303.712C320.973 304.6 321.661 305.197 322.494 305.505C323.345 305.795 324.241 305.939 325.183 305.939C325.889 305.939 326.468 305.903 326.921 305.831C327.374 305.74 327.736 305.668 328.007 305.614L329.311 311.371C328.877 311.534 328.27 311.697 327.491 311.86C326.713 312.041 325.726 312.132 324.531 312.132C322.72 312.132 320.946 311.743 319.208 310.964C317.488 310.185 316.057 308.999 314.916 307.406C313.794 305.813 313.233 303.803 313.233 301.377V259.877ZM236.738 372.214L230.98 373.844C230.618 372.884 230.083 371.952 229.377 371.046C228.689 370.123 227.748 369.363 226.553 368.765C225.358 368.168 223.828 367.869 221.963 367.869C219.41 367.869 217.282 368.457 215.58 369.634C213.896 370.793 213.054 372.269 213.054 374.061C213.054 375.655 213.634 376.913 214.793 377.836C215.951 378.76 217.762 379.529 220.224 380.145L226.417 381.666C230.147 382.571 232.926 383.956 234.755 385.821C236.584 387.668 237.498 390.049 237.498 392.964C237.498 395.354 236.81 397.491 235.434 399.374C234.076 401.257 232.175 402.742 229.73 403.828C227.286 404.915 224.443 405.458 221.202 405.458C216.947 405.458 213.425 404.534 210.637 402.687C207.849 400.841 206.083 398.143 205.341 394.594L211.425 393.073C212.004 395.318 213.1 397.002 214.711 398.125C216.341 399.247 218.468 399.809 221.094 399.809C224.081 399.809 226.453 399.175 228.209 397.907C229.984 396.622 230.871 395.083 230.871 393.29C230.871 391.842 230.364 390.629 229.35 389.651C228.336 388.655 226.779 387.913 224.679 387.424L217.726 385.794C213.905 384.889 211.099 383.486 209.306 381.584C207.532 379.665 206.645 377.266 206.645 374.387C206.645 372.033 207.306 369.951 208.627 368.14C209.967 366.33 211.787 364.908 214.086 363.876C216.404 362.844 219.029 362.328 221.963 362.328C226.091 362.328 229.332 363.234 231.686 365.044C234.058 366.855 235.742 369.245 236.738 372.214ZM265.289 362.871V368.303H243.67V362.871H265.289ZM249.971 352.877H256.381V392.638C256.381 394.449 256.643 395.807 257.168 396.712C257.712 397.6 258.4 398.197 259.232 398.505C260.083 398.795 260.98 398.939 261.921 398.939C262.627 398.939 263.207 398.903 263.659 398.831C264.112 398.74 264.474 398.668 264.746 398.614L266.05 404.371C265.615 404.534 265.008 404.697 264.23 404.86C263.451 405.041 262.464 405.132 261.269 405.132C259.459 405.132 257.684 404.743 255.946 403.964C254.226 403.185 252.796 401.999 251.655 400.406C250.532 398.813 249.971 396.803 249.971 394.377V352.877ZM291.43 405.458C287.664 405.458 284.36 404.561 281.517 402.769C278.692 400.976 276.483 398.469 274.89 395.246C273.315 392.023 272.527 388.257 272.527 383.947C272.527 379.602 273.315 375.808 274.89 372.567C276.483 369.326 278.692 366.81 281.517 365.017C284.36 363.225 287.664 362.328 291.43 362.328C295.196 362.328 298.492 363.225 301.316 365.017C304.159 366.81 306.368 369.326 307.943 372.567C309.537 375.808 310.333 379.602 310.333 383.947C310.333 388.257 309.537 392.023 307.943 395.246C306.368 398.469 304.159 400.976 301.316 402.769C298.492 404.561 295.196 405.458 291.43 405.458ZM291.43 399.7C294.291 399.7 296.645 398.967 298.492 397.5C300.339 396.033 301.706 394.105 302.593 391.715C303.48 389.325 303.924 386.736 303.924 383.947C303.924 381.159 303.48 378.561 302.593 376.152C301.706 373.744 300.339 371.798 298.492 370.313C296.645 368.828 294.291 368.086 291.43 368.086C288.569 368.086 286.216 368.828 284.369 370.313C282.522 371.798 281.155 373.744 280.268 376.152C279.38 378.561 278.937 381.159 278.937 383.947C278.937 386.736 279.38 389.325 280.268 391.715C281.155 394.105 282.522 396.033 284.369 397.5C286.216 398.967 288.569 399.7 291.43 399.7ZM326.527 379.493V404.589H320.118V362.871H326.31V369.39H326.853C327.831 367.271 329.316 365.569 331.307 364.284C333.299 362.98 335.87 362.328 339.021 362.328C341.845 362.328 344.317 362.908 346.435 364.066C348.554 365.207 350.201 366.945 351.378 369.281C352.555 371.599 353.144 374.532 353.144 378.081V404.589H346.734V378.515C346.734 375.238 345.883 372.685 344.181 370.856C342.479 369.01 340.143 368.086 337.174 368.086C335.128 368.086 333.299 368.53 331.688 369.417C330.094 370.304 328.836 371.599 327.912 373.301C326.989 375.003 326.527 377.067 326.527 379.493ZM370.831 389.379L370.723 381.449H372.026L390.278 362.871H398.208L378.762 382.535H378.219L370.831 389.379ZM364.856 404.589V348.966H371.266V404.589H364.856ZM391.364 404.589L375.068 383.947L379.631 379.493L399.512 404.589H391.364ZM436.008 372.214L430.25 373.844C429.888 372.884 429.354 371.952 428.647 371.046C427.959 370.123 427.018 369.363 425.823 368.765C424.628 368.168 423.098 367.869 421.233 367.869C418.68 367.869 416.552 368.457 414.85 369.634C413.166 370.793 412.324 372.269 412.324 374.061C412.324 375.655 412.904 376.913 414.063 377.836C415.222 378.76 417.032 379.529 419.495 380.145L425.687 381.666C429.417 382.571 432.196 383.956 434.025 385.821C435.854 387.668 436.768 390.049 436.768 392.964C436.768 395.354 436.08 397.491 434.704 399.374C433.346 401.257 431.445 402.742 429.001 403.828C426.556 404.915 423.713 405.458 420.472 405.458C416.217 405.458 412.696 404.534 409.907 402.687C407.119 400.841 405.354 398.143 404.611 394.594L410.695 393.073C411.274 395.318 412.37 397.002 413.981 398.125C415.611 399.247 417.738 399.809 420.364 399.809C423.351 399.809 425.723 399.175 427.48 397.907C429.254 396.622 430.141 395.083 430.141 393.29C430.141 391.842 429.634 390.629 428.62 389.651C427.606 388.655 426.049 387.913 423.949 387.424L416.996 385.794C413.175 384.889 410.369 383.486 408.576 381.584C406.802 379.665 405.915 377.266 405.915 374.387C405.915 372.033 406.576 369.951 407.897 368.14C409.237 366.33 411.057 364.908 413.357 363.876C415.674 362.844 418.3 362.328 421.233 362.328C425.361 362.328 428.602 363.234 430.956 365.044C433.328 366.855 435.012 369.245 436.008 372.214Z" fill="black"/>
<path d="M252.164 255.966H255.351V252.779H252.164V255.966ZM252.164 311.589V314.775H255.351V311.589H252.164ZM245.646 311.589L243.028 313.406L243.979 314.775H245.646V311.589ZM215.336 267.916L217.954 266.099L217.003 264.729H215.336V267.916ZM214.793 267.916V264.729H211.606V267.916H214.793ZM214.793 311.589V314.775H217.979V311.589H214.793ZM208.057 311.589H204.87V314.775H208.057V311.589ZM208.057 255.966V252.779H204.87V255.966H208.057ZM214.575 255.966L217.192 254.147L216.242 252.779H214.575V255.966ZM244.994 299.747L242.377 301.565L243.328 302.934H244.994V299.747ZM245.537 299.747V302.934H248.724V299.747H245.537ZM245.537 255.966V252.779H242.35V255.966H245.537ZM248.977 255.966V311.589H255.351V255.966H248.977ZM252.164 308.402H245.646V314.775H252.164V308.402ZM248.264 309.772L217.954 266.099L212.718 269.733L243.028 313.406L248.264 309.772ZM215.336 264.729H214.793V271.103H215.336V264.729ZM211.606 267.916V311.589H217.979V267.916H211.606ZM214.793 308.402H208.057V314.775H214.793V308.402ZM211.244 311.589V255.966H204.87V311.589H211.244ZM208.057 259.152H214.575V252.779H208.057V259.152ZM211.958 257.784L242.377 301.565L247.611 297.929L217.192 254.147L211.958 257.784ZM244.994 302.934H245.537V296.56H244.994V302.934ZM248.724 299.747V255.966H242.35V299.747H248.724ZM245.537 259.152H252.164V252.779H245.537V259.152ZM271.807 309.769L270.1 312.46L270.108 312.464L271.807 309.769ZM265.18 302.246L262.317 303.645L262.321 303.652L262.324 303.658L265.18 302.246ZM265.18 279.567L262.321 278.161L262.317 278.168L262.314 278.174L265.18 279.567ZM271.807 272.017L270.108 269.321L270.1 269.326L271.807 272.017ZM291.607 272.017L289.899 274.708L289.907 274.713L291.607 272.017ZM298.234 279.567L295.368 280.96L295.371 280.967L295.374 280.973L298.234 279.567ZM298.234 302.246L295.377 300.833L295.374 300.84L295.371 300.846L298.234 302.246ZM291.607 309.769L289.907 307.073L289.899 307.078L291.607 309.769ZM288.782 304.5L286.8 302.004L286.8 302.004L288.782 304.5ZM292.883 298.715L295.871 299.824L295.871 299.824L292.883 298.715ZM292.883 283.152L295.873 282.051L295.873 282.051L292.883 283.152ZM288.782 277.313L290.779 274.83L290.779 274.83L288.782 277.313ZM274.659 277.313L272.662 274.83L272.662 274.83L274.659 277.313ZM270.558 283.152L267.568 282.051L267.568 282.051L270.558 283.152ZM270.558 298.715L267.57 299.824L267.57 299.824L270.558 298.715ZM274.659 304.5L276.641 302.004L276.641 302.004L274.659 304.5ZM281.721 309.271C278.481 309.271 275.781 308.507 273.507 307.073L270.108 312.464C273.519 314.616 277.428 315.644 281.721 315.644V309.271ZM273.515 307.078C271.22 305.622 269.392 303.574 268.037 300.833L262.324 303.658C264.156 307.364 266.745 310.331 270.1 312.46L273.515 307.078ZM268.043 300.846C266.72 298.138 266.004 294.868 266.004 290.947H259.631C259.631 295.645 260.491 299.907 262.317 303.645L268.043 300.846ZM266.004 290.947C266.004 286.986 266.721 283.687 268.047 280.96L262.314 278.174C260.489 281.93 259.631 286.217 259.631 290.947H266.004ZM268.04 280.973C269.396 278.215 271.225 276.161 273.515 274.708L270.1 269.326C266.741 271.458 264.151 274.438 262.321 278.161L268.04 280.973ZM273.507 274.713C275.781 273.279 278.481 272.515 281.721 272.515V266.142C277.428 266.142 273.519 267.17 270.108 269.321L273.507 274.713ZM281.721 272.515C284.96 272.515 287.648 273.279 289.899 274.708L293.314 269.326C289.917 267.17 286.013 266.142 281.721 266.142V272.515ZM289.907 274.713C292.211 276.165 294.033 278.214 295.368 280.96L301.1 278.174C299.284 274.439 296.688 271.454 293.306 269.321L289.907 274.713ZM295.374 280.973C296.713 283.697 297.437 286.991 297.437 290.947H303.81C303.81 286.212 302.941 281.92 301.094 278.161L295.374 280.973ZM297.437 290.947C297.437 294.863 296.714 298.128 295.377 300.833L301.09 303.658C302.94 299.917 303.81 295.65 303.81 290.947H297.437ZM295.371 300.846C294.037 303.575 292.215 305.618 289.907 307.073L293.306 312.464C296.684 310.335 299.28 307.362 301.097 303.645L295.371 300.846ZM289.899 307.078C287.648 308.507 284.96 309.271 281.721 309.271V315.644C286.013 315.644 289.917 314.616 293.314 312.46L289.899 307.078ZM281.721 309.887C285.143 309.887 288.241 308.999 290.764 306.996L286.8 302.004C285.63 302.934 284.02 303.513 281.721 303.513V309.887ZM290.764 306.996C293.103 305.138 294.798 302.714 295.871 299.824L289.896 297.606C289.194 299.496 288.155 300.929 286.8 302.004L290.764 306.996ZM295.871 299.824C296.902 297.047 297.401 294.079 297.401 290.947H291.027C291.027 293.393 290.639 295.603 289.896 297.606L295.871 299.824ZM297.401 290.947C297.401 287.816 296.901 284.841 295.873 282.051L289.893 284.254C290.639 286.28 291.027 288.502 291.027 290.947H297.401ZM295.873 282.051C294.804 279.147 293.113 276.706 290.779 274.83L286.785 279.797C288.145 280.89 289.188 282.342 289.893 284.254L295.873 282.051ZM290.779 274.83C288.255 272.801 285.152 271.899 281.721 271.899V278.273C284.011 278.273 285.615 278.856 286.785 279.797L290.779 274.83ZM281.721 271.899C278.289 271.899 275.186 272.801 272.662 274.83L276.656 279.797C277.826 278.856 279.43 278.273 281.721 278.273V271.899ZM272.662 274.83C270.328 276.706 268.638 279.147 267.568 282.051L273.548 284.254C274.253 282.342 275.297 280.89 276.656 279.797L272.662 274.83ZM267.568 282.051C266.54 284.841 266.04 287.816 266.04 290.947H272.414C272.414 288.502 272.802 286.28 273.548 284.254L267.568 282.051ZM266.04 290.947C266.04 294.079 266.54 297.047 267.57 299.824L273.546 297.606C272.802 295.603 272.414 293.393 272.414 290.947H266.04ZM267.57 299.824C268.643 302.714 270.338 305.138 272.677 306.996L276.641 302.004C275.286 300.929 274.247 299.496 273.546 297.606L267.57 299.824ZM272.677 306.996C275.2 308.999 278.298 309.887 281.721 309.887V303.513C279.421 303.513 277.812 302.934 276.641 302.004L272.677 306.996ZM328.551 269.871H331.737V266.685H328.551V269.871ZM328.551 275.303V278.49H331.737V275.303H328.551ZM306.932 275.303H303.745V278.49H306.932V275.303ZM306.932 269.871V266.685H303.745V269.871H306.932ZM313.233 259.877V256.69H310.046V259.877H313.233ZM319.642 259.877H322.829V256.69H319.642V259.877ZM320.43 303.712L317.673 305.311L317.692 305.344L317.712 305.376L320.43 303.712ZM322.494 305.505L321.389 308.494L321.428 308.508L321.467 308.522L322.494 305.505ZM326.921 305.831L327.425 308.977L327.485 308.968L327.546 308.956L326.921 305.831ZM328.007 305.614L331.115 304.91L330.429 301.879L327.382 302.489L328.007 305.614ZM329.311 311.371L330.43 314.355L333.033 313.379L332.419 310.668L329.311 311.371ZM327.491 311.86L326.839 308.741L326.804 308.748L326.77 308.756L327.491 311.86ZM319.208 310.964L317.894 313.867L317.905 313.872L319.208 310.964ZM314.916 307.406L312.311 309.241L312.318 309.251L312.325 309.261L314.916 307.406ZM325.364 269.871V275.303H331.737V269.871H325.364ZM328.551 272.117H306.932V278.49H328.551V272.117ZM310.118 275.303V269.871H303.745V275.303H310.118ZM306.932 273.058H328.551V266.685H306.932V273.058ZM313.233 263.063H319.642V256.69H313.233V263.063ZM316.456 259.877V299.638H322.829V259.877H316.456ZM316.456 299.638C316.456 301.653 316.729 303.683 317.673 305.311L323.187 302.113C323.08 301.931 322.829 301.245 322.829 299.638H316.456ZM317.712 305.376C318.562 306.765 319.774 307.897 321.389 308.494L323.599 302.516C323.548 302.497 323.384 302.434 323.148 302.048L317.712 305.376ZM321.467 308.522C322.664 308.929 323.909 309.126 325.183 309.126V302.753C324.574 302.753 324.026 302.66 323.521 302.488L321.467 308.522ZM325.183 309.126C325.978 309.126 326.742 309.087 327.425 308.977L326.418 302.684C326.195 302.72 325.8 302.753 325.183 302.753V309.126ZM327.546 308.956C327.999 308.865 328.361 308.793 328.632 308.738L327.382 302.489C327.111 302.543 326.749 302.615 326.296 302.706L327.546 308.956ZM324.899 306.317L326.203 312.075L332.419 310.668L331.115 304.91L324.899 306.317ZM328.192 308.388C327.979 308.467 327.553 308.591 326.839 308.741L328.144 314.979C328.987 314.803 329.774 314.601 330.43 314.355L328.192 308.388ZM326.77 308.756C326.313 308.862 325.59 308.945 324.531 308.945V315.319C325.862 315.319 327.113 315.22 328.213 314.964L326.77 308.756ZM324.531 308.945C323.193 308.945 321.861 308.66 320.51 308.056L317.905 313.872C320.031 314.825 322.248 315.319 324.531 315.319V308.945ZM320.522 308.061C319.332 307.522 318.335 306.707 317.508 305.551L312.325 309.261C313.779 311.292 315.643 312.849 317.894 313.867L320.522 308.061ZM317.522 305.571C316.861 304.633 316.419 303.308 316.419 301.377H310.046C310.046 304.298 310.726 306.992 312.311 309.241L317.522 305.571ZM316.419 301.377V259.877H310.046V301.377H316.419ZM236.738 372.214L237.605 375.281L240.822 374.37L239.759 371.201L236.738 372.214ZM230.98 373.844L227.998 374.969L229.031 377.707L231.847 376.91L230.98 373.844ZM229.377 371.046L226.822 372.95L226.843 372.979L226.865 373.006L229.377 371.046ZM226.553 368.765L227.978 365.915L227.978 365.915L226.553 368.765ZM215.58 369.634L217.387 372.259L217.393 372.255L215.58 369.634ZM214.793 377.836L212.807 380.329L212.807 380.329L214.793 377.836ZM220.224 380.145L219.452 383.237L219.464 383.24L220.224 380.145ZM226.417 381.666L225.657 384.761L225.665 384.763L226.417 381.666ZM234.755 385.821L232.48 388.052L232.485 388.058L232.49 388.064L234.755 385.821ZM235.434 399.374L232.861 397.494L232.855 397.502L232.849 397.51L235.434 399.374ZM210.637 402.687L212.397 400.031L212.397 400.031L210.637 402.687ZM205.341 394.594L204.568 391.502L201.594 392.246L202.222 395.246L205.341 394.594ZM211.425 393.073L214.51 392.277L213.72 389.214L210.652 389.981L211.425 393.073ZM214.711 398.125L212.889 400.739L212.896 400.744L212.903 400.749L214.711 398.125ZM228.209 397.907L230.074 400.491L230.079 400.488L228.209 397.907ZM229.35 389.651L227.117 391.924L227.128 391.935L227.138 391.945L229.35 389.651ZM224.679 387.424L223.951 390.526L223.956 390.528L224.679 387.424ZM217.726 385.794L216.991 388.895L216.999 388.897L217.726 385.794ZM209.306 381.584L206.966 383.748L206.977 383.759L206.988 383.771L209.306 381.584ZM208.627 368.14L206.066 366.245L206.06 366.253L206.053 366.261L208.627 368.14ZM214.086 363.876L212.79 360.965L212.782 360.969L214.086 363.876ZM231.686 365.044L229.743 367.57L229.752 367.577L231.686 365.044ZM235.87 369.148L230.112 370.778L231.847 376.91L237.605 375.281L235.87 369.148ZM233.961 372.719C233.473 371.425 232.77 370.215 231.89 369.087L226.865 373.006C227.397 373.688 227.762 374.343 227.998 374.969L233.961 372.719ZM231.933 369.142C230.903 367.76 229.547 366.699 227.978 365.915L225.127 371.615C225.948 372.026 226.476 372.486 226.822 372.95L231.933 369.142ZM227.978 365.915C226.201 365.026 224.138 364.682 221.963 364.682V371.056C223.517 371.056 224.515 371.309 225.127 371.615L227.978 365.915ZM221.963 364.682C218.915 364.682 216.116 365.39 213.768 367.013L217.393 372.255C218.449 371.525 219.904 371.056 221.963 371.056V364.682ZM213.774 367.009C211.366 368.666 209.868 371.06 209.868 374.061H216.241C216.241 373.477 216.426 372.92 217.387 372.259L213.774 367.009ZM209.868 374.061C209.868 376.541 210.826 378.75 212.807 380.329L216.779 375.344C216.442 375.076 216.241 374.768 216.241 374.061H209.868ZM212.807 380.329C214.491 381.671 216.819 382.578 219.452 383.237L220.997 377.053C218.705 376.48 217.412 375.849 216.779 375.344L212.807 380.329ZM219.464 383.24L225.657 384.761L227.177 378.571L220.985 377.05L219.464 383.24ZM225.665 384.763C229.072 385.59 231.22 386.768 232.48 388.052L237.03 383.59C234.632 381.145 231.222 379.553 227.169 378.569L225.665 384.763ZM232.49 388.064C233.654 389.239 234.311 390.778 234.311 392.964H240.685C240.685 389.321 239.513 386.097 237.019 383.579L232.49 388.064ZM234.311 392.964C234.311 394.696 233.828 396.171 232.861 397.494L238.007 401.254C239.792 398.811 240.685 396.012 240.685 392.964H234.311ZM232.849 397.51C231.868 398.87 230.445 400.023 228.436 400.916L231.025 406.74C233.905 405.46 236.283 403.644 238.019 401.238L232.849 397.51ZM228.436 400.916C226.476 401.787 224.09 402.271 221.202 402.271V408.644C224.797 408.644 228.096 408.042 231.025 406.74L228.436 400.916ZM221.202 402.271C217.404 402.271 214.538 401.449 212.397 400.031L208.877 405.344C212.313 407.62 216.491 408.644 221.202 408.644V402.271ZM212.397 400.031C210.37 398.688 209.047 396.745 208.46 393.941L202.222 395.246C203.12 399.54 205.328 402.993 208.877 405.344L212.397 400.031ZM206.114 397.685L212.198 396.165L210.652 389.981L204.568 391.502L206.114 397.685ZM208.339 393.869C209.073 396.712 210.543 399.105 212.889 400.739L216.533 395.51C215.656 394.899 214.936 393.924 214.51 392.277L208.339 393.869ZM212.903 400.749C215.213 402.34 218.03 402.995 221.094 402.995V396.622C218.906 396.622 217.468 396.154 216.519 395.5L212.903 400.749ZM221.094 402.995C224.503 402.995 227.604 402.274 230.074 400.491L226.345 395.323C225.303 396.075 223.66 396.622 221.094 396.622V402.995ZM230.079 400.488C232.474 398.753 234.058 396.336 234.058 393.29H227.684C227.684 393.83 227.494 394.491 226.34 395.327L230.079 400.488ZM234.058 393.29C234.058 391.004 233.219 388.954 231.562 387.357L227.138 391.945C227.51 392.303 227.684 392.679 227.684 393.29H234.058ZM231.583 387.377C229.989 385.811 227.798 384.878 225.401 384.32L223.956 390.528C225.76 390.947 226.684 391.499 227.117 391.924L231.583 387.377ZM225.406 384.321L218.453 382.692L216.999 388.897L223.951 390.526L225.406 384.321ZM218.461 382.693C214.961 381.864 212.826 380.672 211.625 379.398L206.988 383.771C209.372 386.299 212.85 387.914 216.991 388.895L218.461 382.693ZM211.646 379.421C210.473 378.152 209.831 376.552 209.831 374.387H203.458C203.458 377.98 204.59 381.178 206.966 383.748L211.646 379.421ZM209.831 374.387C209.831 372.673 210.298 371.256 211.201 370.019L206.053 366.261C204.313 368.646 203.458 371.394 203.458 374.387H209.831ZM211.189 370.036C212.166 368.715 213.53 367.619 215.391 366.784L212.782 360.969C210.044 362.198 207.768 363.944 206.066 366.245L211.189 370.036ZM215.383 366.787C217.233 365.963 219.407 365.515 221.963 365.515V359.142C218.652 359.142 215.575 359.725 212.79 360.965L215.383 366.787ZM221.963 365.515C225.657 365.515 228.127 366.327 229.743 367.57L233.629 362.518C230.537 360.14 226.525 359.142 221.963 359.142V365.515ZM229.752 367.577C231.592 368.982 232.912 370.83 233.716 373.228L239.759 371.201C238.571 367.659 236.524 364.728 233.619 362.511L229.752 367.577ZM265.289 362.871H268.476V359.685H265.289V362.871ZM265.289 368.303V371.49H268.476V368.303H265.289ZM243.67 368.303H240.483V371.49H243.67V368.303ZM243.67 362.871V359.685H240.483V362.871H243.67ZM249.971 352.877V349.69H246.784V352.877H249.971ZM256.381 352.877H259.567V349.69H256.381V352.877ZM257.168 396.712L254.412 398.311L254.431 398.344L254.451 398.376L257.168 396.712ZM259.232 398.505L258.128 401.494L258.166 401.508L258.206 401.522L259.232 398.505ZM263.659 398.831L264.163 401.977L264.224 401.968L264.284 401.956L263.659 398.831ZM264.746 398.614L267.854 397.91L267.168 394.879L264.121 395.489L264.746 398.614ZM266.05 404.371L267.168 407.355L269.771 406.379L269.158 403.668L266.05 404.371ZM264.23 404.86L263.577 401.741L263.542 401.748L263.508 401.756L264.23 404.86ZM255.946 403.964L254.632 406.867L254.643 406.872L255.946 403.964ZM251.655 400.406L249.05 402.241L249.057 402.251L249.064 402.261L251.655 400.406ZM262.102 362.871V368.303H268.476V362.871H262.102ZM265.289 365.117H243.67V371.49H265.289V365.117ZM246.857 368.303V362.871H240.483V368.303H246.857ZM243.67 366.058H265.289V359.685H243.67V366.058ZM249.971 356.063H256.381V349.69H249.971V356.063ZM253.194 352.877V392.638H259.567V352.877H253.194ZM253.194 392.638C253.194 394.653 253.468 396.683 254.412 398.311L259.925 395.113C259.819 394.931 259.567 394.245 259.567 392.638H253.194ZM254.451 398.376C255.301 399.765 256.513 400.897 258.128 401.494L260.337 395.516C260.286 395.497 260.122 395.434 259.886 395.048L254.451 398.376ZM258.206 401.522C259.403 401.929 260.647 402.126 261.921 402.126V395.753C261.312 395.753 260.764 395.66 260.259 395.488L258.206 401.522ZM261.921 402.126C262.716 402.126 263.48 402.087 264.163 401.977L263.156 395.684C262.933 395.72 262.539 395.753 261.921 395.753V402.126ZM264.284 401.956C264.737 401.865 265.099 401.793 265.371 401.738L264.121 395.489C263.849 395.543 263.487 395.615 263.035 395.706L264.284 401.956ZM261.638 399.317L262.941 405.075L269.158 403.668L267.854 397.91L261.638 399.317ZM264.931 401.388C264.717 401.467 264.292 401.591 263.577 401.741L264.883 407.979C265.725 407.803 266.513 407.601 267.168 407.355L264.931 401.388ZM263.508 401.756C263.051 401.862 262.328 401.945 261.269 401.945V408.319C262.6 408.319 263.851 408.22 264.952 407.964L263.508 401.756ZM261.269 401.945C259.931 401.945 258.599 401.66 257.249 401.056L254.643 406.872C256.77 407.825 258.987 408.319 261.269 408.319V401.945ZM257.26 401.061C256.07 400.522 255.074 399.707 254.246 398.551L249.064 402.261C250.518 404.292 252.382 405.849 254.632 406.867L257.26 401.061ZM254.26 398.571C253.6 397.633 253.158 396.308 253.158 394.377H246.784C246.784 397.298 247.465 399.992 249.05 402.241L254.26 398.571ZM253.158 394.377V352.877H246.784V394.377H253.158ZM281.517 402.769L279.809 405.46L279.817 405.464L281.517 402.769ZM274.89 395.246L272.027 396.645L272.03 396.652L272.033 396.658L274.89 395.246ZM274.89 372.567L272.03 371.161L272.027 371.168L272.024 371.174L274.89 372.567ZM281.517 365.017L279.817 362.321L279.809 362.326L281.517 365.017ZM301.316 365.017L299.609 367.708L299.617 367.713L301.316 365.017ZM307.943 372.567L305.077 373.96L305.08 373.967L305.083 373.973L307.943 372.567ZM307.943 395.246L305.087 393.833L305.083 393.84L305.08 393.846L307.943 395.246ZM301.316 402.769L299.617 400.073L299.609 400.078L301.316 402.769ZM298.492 397.5L296.51 395.004L296.51 395.004L298.492 397.5ZM302.593 391.715L305.58 392.824L305.58 392.824L302.593 391.715ZM302.593 376.152L305.583 375.051L305.583 375.051L302.593 376.152ZM298.492 370.313L300.488 367.83L300.488 367.83L298.492 370.313ZM284.369 370.313L282.372 367.83L282.372 367.83L284.369 370.313ZM280.268 376.152L277.277 375.051L277.277 375.051L280.268 376.152ZM280.268 391.715L277.28 392.824L277.28 392.824L280.268 391.715ZM284.369 397.5L286.35 395.004L286.35 395.004L284.369 397.5ZM291.43 402.271C288.191 402.271 285.491 401.507 283.217 400.073L279.817 405.464C283.229 407.616 287.137 408.644 291.43 408.644V402.271ZM283.224 400.078C280.93 398.622 279.101 396.574 277.747 393.833L272.033 396.658C273.865 400.364 276.455 403.331 279.809 405.46L283.224 400.078ZM277.753 393.846C276.429 391.138 275.714 387.868 275.714 383.947H269.34C269.34 388.645 270.2 392.907 272.027 396.645L277.753 393.846ZM275.714 383.947C275.714 379.986 276.431 376.687 277.756 373.96L272.024 371.174C270.199 374.93 269.34 379.217 269.34 383.947H275.714ZM277.75 373.973C279.106 371.215 280.934 369.161 283.224 367.708L279.809 362.326C276.451 364.458 273.861 367.438 272.03 371.161L277.75 373.973ZM283.217 367.713C285.491 366.279 288.191 365.515 291.43 365.515V359.142C287.137 359.142 283.229 360.17 279.817 362.321L283.217 367.713ZM291.43 365.515C294.67 365.515 297.357 366.279 299.609 367.708L303.024 362.326C299.626 360.17 295.723 359.142 291.43 359.142V365.515ZM299.617 367.713C301.92 369.165 303.742 371.214 305.077 373.96L310.809 371.174C308.994 367.439 306.398 364.454 303.016 362.321L299.617 367.713ZM305.083 373.973C306.422 376.697 307.147 379.991 307.147 383.947H313.52C313.52 379.212 312.651 374.92 310.803 371.161L305.083 373.973ZM307.147 383.947C307.147 387.863 306.424 391.128 305.087 393.833L310.8 396.658C312.649 392.917 313.52 388.65 313.52 383.947H307.147ZM305.08 393.846C303.747 396.575 301.925 398.618 299.617 400.073L303.016 405.464C306.393 403.335 308.989 400.362 310.806 396.645L305.08 393.846ZM299.609 400.078C297.357 401.507 294.67 402.271 291.43 402.271V408.644C295.723 408.644 299.626 407.616 303.024 405.46L299.609 400.078ZM291.43 402.887C294.852 402.887 297.95 401.999 300.473 399.996L296.51 395.004C295.339 395.934 293.73 396.513 291.43 396.513V402.887ZM300.473 399.996C302.813 398.138 304.508 395.714 305.58 392.824L299.605 390.606C298.903 392.496 297.864 393.929 296.51 395.004L300.473 399.996ZM305.58 392.824C306.611 390.047 307.11 387.079 307.11 383.947H300.737C300.737 386.393 300.349 388.603 299.605 390.606L305.58 392.824ZM307.11 383.947C307.11 380.816 306.611 377.841 305.583 375.051L299.603 377.254C300.349 379.28 300.737 381.502 300.737 383.947H307.11ZM305.583 375.051C304.513 372.147 302.823 369.706 300.488 367.83L296.495 372.797C297.854 373.89 298.898 375.342 299.603 377.254L305.583 375.051ZM300.488 367.83C297.965 365.801 294.861 364.899 291.43 364.899V371.273C293.721 371.273 295.325 371.856 296.495 372.797L300.488 367.83ZM291.43 364.899C287.999 364.899 284.895 365.801 282.372 367.83L286.365 372.797C287.536 371.856 289.14 371.273 291.43 371.273V364.899ZM282.372 367.83C280.038 369.706 278.347 372.147 277.277 375.051L283.258 377.254C283.962 375.342 285.006 373.89 286.365 372.797L282.372 367.83ZM277.277 375.051C276.249 377.841 275.75 380.816 275.75 383.947H282.124C282.124 381.502 282.511 379.28 283.258 377.254L277.277 375.051ZM275.75 383.947C275.75 387.079 276.249 390.047 277.28 392.824L283.255 390.606C282.511 388.603 282.124 386.393 282.124 383.947H275.75ZM277.28 392.824C278.353 395.714 280.048 398.138 282.387 399.996L286.35 395.004C284.996 393.929 283.957 392.496 283.255 390.606L277.28 392.824ZM282.387 399.996C284.91 401.999 288.008 402.887 291.43 402.887V396.513C289.131 396.513 287.521 395.934 286.35 395.004L282.387 399.996ZM326.527 404.589V407.775H329.714V404.589H326.527ZM320.118 404.589H316.931V407.775H320.118V404.589ZM320.118 362.871V359.685H316.931V362.871H320.118ZM326.31 362.871H329.497V359.685H326.31V362.871ZM326.31 369.39H323.123V372.576H326.31V369.39ZM326.853 369.39V372.576H328.892L329.747 370.725L326.853 369.39ZM331.307 364.284L333.035 366.961L333.044 366.956L333.053 366.95L331.307 364.284ZM346.435 364.066L344.906 366.862L344.915 366.867L344.924 366.872L346.435 364.066ZM351.378 369.281L348.532 370.715L348.537 370.724L351.378 369.281ZM353.144 404.589V407.775H356.33V404.589H353.144ZM346.734 404.589H343.547V407.775H346.734V404.589ZM344.181 370.856L341.838 373.016L341.843 373.022L341.848 373.027L344.181 370.856ZM331.688 369.417L330.151 366.625L330.144 366.629L330.137 366.633L331.688 369.417ZM327.912 373.301L325.111 371.781L325.111 371.781L327.912 373.301ZM323.341 379.493V404.589H329.714V379.493H323.341ZM326.527 401.402H320.118V407.775H326.527V401.402ZM323.304 404.589V362.871H316.931V404.589H323.304ZM320.118 366.058H326.31V359.685H320.118V366.058ZM323.123 362.871V369.39H329.497V362.871H323.123ZM326.31 372.576H326.853V366.203H326.31V372.576ZM329.747 370.725C330.467 369.165 331.543 367.925 333.035 366.961L329.579 361.606C327.088 363.214 325.195 365.378 323.96 368.054L329.747 370.725ZM333.053 366.95C334.382 366.08 336.293 365.515 339.021 365.515V359.142C335.447 359.142 332.216 359.88 329.562 361.617L333.053 366.95ZM339.021 365.515C341.402 365.515 343.33 366 344.906 366.862L347.965 361.271C345.303 359.815 342.289 359.142 339.021 359.142V365.515ZM344.924 366.872C346.417 367.676 347.623 368.909 348.532 370.715L354.224 367.847C352.78 364.981 350.69 362.738 347.946 361.261L344.924 366.872ZM348.537 370.724C349.419 372.462 349.957 374.86 349.957 378.081H356.33C356.33 374.204 355.691 370.736 354.22 367.838L348.537 370.724ZM349.957 378.081V404.589H356.33V378.081H349.957ZM353.144 401.402H346.734V407.775H353.144V401.402ZM349.921 404.589V378.515H343.547V404.589H349.921ZM349.921 378.515C349.921 374.691 348.918 371.269 346.514 368.685L341.848 373.027C342.848 374.101 343.547 375.786 343.547 378.515H349.921ZM346.524 368.697C344.109 366.076 340.857 364.899 337.174 364.899V371.273C339.43 371.273 340.849 371.943 341.838 373.016L346.524 368.697ZM337.174 364.899C334.652 364.899 332.284 365.451 330.151 366.625L333.225 372.209C334.314 371.609 335.604 371.273 337.174 371.273V364.899ZM330.137 366.633C327.982 367.833 326.305 369.582 325.111 371.781L330.713 374.82C331.367 373.616 332.206 372.776 333.238 372.201L330.137 366.633ZM325.111 371.781C323.879 374.053 323.341 376.668 323.341 379.493H329.714C329.714 377.466 330.099 375.952 330.713 374.82L325.111 371.781ZM370.831 389.379L367.645 389.423L367.743 396.585L372.997 391.717L370.831 389.379ZM370.723 381.449V378.262H367.492L367.536 381.492L370.723 381.449ZM372.026 381.449V384.635H373.363L374.3 383.682L372.026 381.449ZM390.278 362.871V359.685H388.941L388.004 360.638L390.278 362.871ZM398.208 362.871L400.474 365.112L405.842 359.685H398.208V362.871ZM378.762 382.535V385.722H380.092L381.028 384.776L378.762 382.535ZM378.219 382.535V379.348H376.969L376.053 380.197L378.219 382.535ZM364.856 404.589H361.67V407.775H364.856V404.589ZM364.856 348.966V345.779H361.67V348.966H364.856ZM371.266 348.966H374.453V345.779H371.266V348.966ZM371.266 404.589V407.775H374.453V404.589H371.266ZM391.364 404.589L388.863 406.563L389.82 407.775H391.364V404.589ZM375.068 383.947L372.842 381.667L370.79 383.671L372.567 385.922L375.068 383.947ZM379.631 379.493L382.129 377.514L379.934 374.744L377.405 377.213L379.631 379.493ZM399.512 404.589V407.775H406.102L402.01 402.61L399.512 404.589ZM374.018 389.336L373.909 381.405L367.536 381.492L367.645 389.423L374.018 389.336ZM370.723 384.635H372.026V378.262H370.723V384.635ZM374.3 383.682L392.551 365.105L388.004 360.638L369.753 379.215L374.3 383.682ZM390.278 366.058H398.208V359.685H390.278V366.058ZM395.942 360.631L376.496 380.294L381.028 384.776L400.474 365.112L395.942 360.631ZM378.762 379.348H378.219V385.722H378.762V379.348ZM376.053 380.197L368.666 387.042L372.997 391.717L380.385 384.873L376.053 380.197ZM368.043 404.589V348.966H361.67V404.589H368.043ZM364.856 352.152H371.266V345.779H364.856V352.152ZM368.079 348.966V404.589H374.453V348.966H368.079ZM371.266 401.402H364.856V407.775H371.266V401.402ZM393.865 402.614L377.569 381.973L372.567 385.922L388.863 406.563L393.865 402.614ZM377.294 386.228L381.857 381.773L377.405 377.213L372.842 381.667L377.294 386.228ZM377.133 381.472L397.014 406.567L402.01 402.61L382.129 377.514L377.133 381.472ZM399.512 401.402H391.364V407.775H399.512V401.402ZM436.008 372.214L436.876 375.281L440.092 374.37L439.029 371.201L436.008 372.214ZM430.25 373.844L427.268 374.969L428.302 377.707L431.118 376.91L430.25 373.844ZM428.647 371.046L426.092 372.95L426.113 372.979L426.135 373.006L428.647 371.046ZM425.823 368.765L427.248 365.915L427.248 365.915L425.823 368.765ZM414.85 369.634L416.657 372.259L416.663 372.255L414.85 369.634ZM414.063 377.836L412.077 380.329L412.077 380.329L414.063 377.836ZM419.495 380.145L418.722 383.237L418.735 383.24L419.495 380.145ZM425.687 381.666L424.927 384.761L424.935 384.763L425.687 381.666ZM434.025 385.821L431.75 388.052L431.755 388.058L431.761 388.064L434.025 385.821ZM434.704 399.374L432.131 397.494L432.125 397.502L432.119 397.51L434.704 399.374ZM409.907 402.687L411.667 400.031L411.667 400.031L409.907 402.687ZM404.611 394.594L403.838 391.502L400.864 392.246L401.492 395.246L404.611 394.594ZM410.695 393.073L413.781 392.277L412.99 389.214L409.922 389.981L410.695 393.073ZM413.981 398.125L412.16 400.739L412.167 400.744L412.173 400.749L413.981 398.125ZM427.48 397.907L429.344 400.491L429.349 400.488L427.48 397.907ZM428.62 389.651L426.387 391.924L426.398 391.935L426.408 391.945L428.62 389.651ZM423.949 387.424L423.222 390.526L423.226 390.528L423.949 387.424ZM416.996 385.794L416.261 388.895L416.269 388.897L416.996 385.794ZM408.576 381.584L406.237 383.748L406.247 383.759L406.258 383.771L408.576 381.584ZM407.897 368.14L405.336 366.245L405.33 366.253L405.324 366.261L407.897 368.14ZM413.357 363.876L412.06 360.965L412.052 360.969L413.357 363.876ZM430.956 365.044L429.013 367.57L429.022 367.577L430.956 365.044ZM435.14 369.148L429.382 370.778L431.118 376.91L436.876 375.281L435.14 369.148ZM433.231 372.719C432.743 371.425 432.04 370.215 431.16 369.087L426.135 373.006C426.667 373.688 427.032 374.343 427.268 374.969L433.231 372.719ZM431.203 369.142C430.173 367.76 428.817 366.699 427.248 365.915L424.398 371.615C425.219 372.026 425.746 372.486 426.092 372.95L431.203 369.142ZM427.248 365.915C425.471 365.026 423.408 364.682 421.233 364.682V371.056C422.787 371.056 423.785 371.309 424.398 371.615L427.248 365.915ZM421.233 364.682C418.185 364.682 415.386 365.39 413.038 367.013L416.663 372.255C417.719 371.525 419.175 371.056 421.233 371.056V364.682ZM413.044 367.009C410.637 368.666 409.138 371.06 409.138 374.061H415.511C415.511 373.477 415.696 372.92 416.657 372.259L413.044 367.009ZM409.138 374.061C409.138 376.541 410.096 378.75 412.077 380.329L416.049 375.344C415.712 375.076 415.511 374.768 415.511 374.061H409.138ZM412.077 380.329C413.761 381.671 416.089 382.578 418.722 383.237L420.268 377.053C417.976 376.48 416.682 375.849 416.049 375.344L412.077 380.329ZM418.735 383.24L424.927 384.761L426.447 378.571L420.255 377.05L418.735 383.24ZM424.935 384.763C428.342 385.59 430.49 386.768 431.75 388.052L436.3 383.59C433.903 381.145 430.492 379.553 426.439 378.569L424.935 384.763ZM431.761 388.064C432.924 389.239 433.581 390.778 433.581 392.964H439.955C439.955 389.321 438.783 386.097 436.289 383.579L431.761 388.064ZM433.581 392.964C433.581 394.696 433.098 396.171 432.131 397.494L437.277 401.254C439.062 398.811 439.955 396.012 439.955 392.964H433.581ZM432.119 397.51C431.139 398.87 429.715 400.023 427.706 400.916L430.295 406.74C433.175 405.46 435.553 403.644 437.289 401.238L432.119 397.51ZM427.706 400.916C425.746 401.787 423.36 402.271 420.472 402.271V408.644C424.067 408.644 427.366 408.042 430.295 406.74L427.706 400.916ZM420.472 402.271C416.674 402.271 413.808 401.449 411.667 400.031L408.148 405.344C411.583 407.62 415.761 408.644 420.472 408.644V402.271ZM411.667 400.031C409.64 398.688 408.317 396.745 407.73 393.941L401.492 395.246C402.39 399.54 404.598 402.993 408.148 405.344L411.667 400.031ZM405.384 397.685L411.468 396.165L409.922 389.981L403.838 391.502L405.384 397.685ZM407.609 393.869C408.343 396.712 409.814 399.105 412.16 400.739L415.803 395.51C414.926 394.899 414.206 393.924 413.781 392.277L407.609 393.869ZM412.173 400.749C414.483 402.34 417.301 402.995 420.364 402.995V396.622C418.176 396.622 416.738 396.154 415.789 395.5L412.173 400.749ZM420.364 402.995C423.773 402.995 426.874 402.274 429.344 400.491L425.615 395.323C424.573 396.075 422.93 396.622 420.364 396.622V402.995ZM429.349 400.488C431.744 398.753 433.328 396.336 433.328 393.29H426.954C426.954 393.83 426.764 394.491 425.61 395.327L429.349 400.488ZM433.328 393.29C433.328 391.004 432.489 388.954 430.832 387.357L426.408 391.945C426.78 392.303 426.954 392.679 426.954 393.29H433.328ZM430.853 387.377C429.259 385.811 427.069 384.878 424.671 384.32L423.226 390.528C425.03 390.947 425.954 391.499 426.387 391.924L430.853 387.377ZM424.676 384.321L417.723 382.692L416.269 388.897L423.222 390.526L424.676 384.321ZM417.731 382.693C414.231 381.864 412.096 380.672 410.895 379.398L406.258 383.771C408.642 386.299 412.12 387.914 416.261 388.895L417.731 382.693ZM410.916 379.421C409.743 378.152 409.102 376.552 409.102 374.387H402.728C402.728 377.98 403.861 381.178 406.237 383.748L410.916 379.421ZM409.102 374.387C409.102 372.673 409.569 371.256 410.471 370.019L405.324 366.261C403.583 368.646 402.728 371.394 402.728 374.387H409.102ZM410.459 370.036C411.436 368.715 412.8 367.619 414.661 366.784L412.052 360.969C409.314 362.198 407.038 363.944 405.336 366.245L410.459 370.036ZM414.653 366.787C416.504 365.963 418.677 365.515 421.233 365.515V359.142C417.922 359.142 414.845 359.725 412.06 360.965L414.653 366.787ZM421.233 365.515C424.927 365.515 427.397 366.327 429.013 367.57L432.899 362.518C429.807 360.14 425.795 359.142 421.233 359.142V365.515ZM429.022 367.577C430.862 368.982 432.182 370.83 432.986 373.228L439.029 371.201C437.841 367.659 435.794 364.728 432.89 362.511L429.022 367.577Z" fill="white" mask="url(#path-51-outside-1_12_461)"/>
</g>
<defs>
<clipPath id="clip0_12_461">
<rect x="0.557373" y="0.177246" width="474.823" height="474.823" rx="31.8673" fill="white"/>
</clipPath>
</defs>
</svg>
