<svg width="475" height="475" viewBox="0 0 475 475" fill="none" xmlns="http://www.w3.org/2000/svg">
<g clip-path="url(#clip0_12_460)">
<rect y="-0.00952148" width="474.823" height="474.823" rx="31.8673" fill="#123EAF" fill-opacity="0.7"/>
<path d="M186.424 2.38062L339.387 474.813" stroke="#D1D1D1" stroke-opacity="0.5" stroke-width="3.18673"/>
<path d="M31.0706 2.38062L239.005 474.813" stroke="#D1D1D1" stroke-opacity="0.5" stroke-width="3.18673"/>
<path d="M0.796631 35.0446L219.884 486.764" stroke="#D1D1D1" stroke-opacity="0.5" stroke-width="3.18673"/>
<path d="M380.814 475.61L258.125 0.787231" stroke="#DADADA" stroke-opacity="0.5" stroke-width="3.18673"/>
<path d="M-11.1536 87.6256L297.163 -13.5531" stroke="#DADADA" stroke-opacity="0.5" stroke-width="3.18673"/>
<path d="M-11.1536 146.58L504.3 34.2479" stroke="#DADADA" stroke-opacity="0.5" stroke-width="3.18673"/>
<path d="M-16.7304 191.194L497.13 126.663" stroke="#DADADA" stroke-opacity="0.5" stroke-width="3.18673"/>
<path d="M484.383 213.501L-21.5104 235.809" stroke="#DADADA" stroke-opacity="0.5" stroke-width="3.18673"/>
<path d="M491.553 284.406L-31.0706 266.879" stroke="#DADADA" stroke-opacity="0.5" stroke-width="3.18673"/>
<path d="M483.586 342.564L-27.0872 300.34" stroke="#DADADA" stroke-opacity="0.5" stroke-width="3.18673"/>
<path d="M483.586 391.958L-29.4773 326.63" stroke="#DADADA" stroke-opacity="0.5" stroke-width="3.18673"/>
<path d="M489.96 443.743L-39.8342 341.767" stroke="#DADADA" stroke-opacity="0.5" stroke-width="3.18673"/>
<path d="M-22.3071 376.025L473.229 478" stroke="#DADADA" stroke-opacity="0.5" stroke-width="3.18673"/>
<path d="M124.282 274.049L122.689 223.062" stroke="#525252" stroke-width="3.18673"/>
<path d="M293.179 241.385L316.283 269.107L280.094 269.107L293.179 241.385Z" fill="#D9D9D9" fill-opacity="0.5"/>
<path d="M323.453 341.767L342.245 366.215L310.626 363.391L323.453 341.767Z" fill="#D9D9D9" fill-opacity="0.5"/>
<path d="M335.403 384.788L353.727 407.892L323.615 404.085L335.403 384.788Z" fill="#D9D9D9" fill-opacity="0.5"/>
<path d="M349.532 444.372L331.42 423.826L361.52 428.831L349.532 444.372Z" fill="#D9D9D9" fill-opacity="0.5"/>
<path d="M256.9 113.578L278.503 135.69L244.748 142.004L256.9 113.578Z" fill="#D9D9D9" fill-opacity="0.5"/>
<path d="M278.042 185.617L299.575 208.814L265.396 212.141L278.042 185.617Z" fill="#D9D9D9" fill-opacity="0.5"/>
<path d="M233.276 40.5831L256.553 60.927L223.4 69.8774L233.276 40.5831Z" fill="#D9D9D9" fill-opacity="0.5"/>
<path d="M339.465 173.281L341.643 210.298L337.161 210.562L335.259 178.244L335.042 178.257L326.357 184.789L326.089 180.235L334.982 173.544L339.465 173.281ZM353.301 209.903C352.409 209.955 351.625 209.681 350.949 209.08C350.272 208.479 349.908 207.732 349.856 206.841C349.803 205.949 350.077 205.165 350.678 204.489C351.28 203.812 352.026 203.448 352.918 203.396C353.809 203.343 354.593 203.617 355.27 204.218C355.946 204.82 356.31 205.566 356.363 206.458C356.397 207.048 356.279 207.599 356.006 208.111C355.746 208.622 355.378 209.043 354.902 209.373C354.437 209.691 353.903 209.867 353.301 209.903ZM362.805 201.435L362.588 197.748L377.341 171.052L380.016 170.894L380.352 176.606L378.545 176.712L367.398 196.884L367.415 197.174L389.322 195.884L389.556 199.861L362.805 201.435ZM380.676 208.001L380.164 199.289L380.063 197.572L378.498 170.983L382.764 170.732L384.942 207.75L380.676 208.001ZM408.375 206.879C406.254 207.004 404.319 206.695 402.57 205.951C400.822 205.208 399.392 204.131 398.281 202.721C397.17 201.311 396.512 199.669 396.305 197.795L400.643 197.54C400.91 199.205 401.751 200.546 403.165 201.563C404.59 202.567 406.249 203.014 408.141 202.903C409.659 202.813 410.988 202.378 412.127 201.598C413.278 200.817 414.154 199.786 414.756 198.505C415.369 197.211 415.629 195.775 415.536 194.197C415.441 192.582 415.001 191.163 414.216 189.939C413.442 188.703 412.418 187.754 411.146 187.091C409.874 186.428 408.448 186.137 406.869 186.218C405.735 186.273 404.583 186.516 403.411 186.948C402.239 187.367 401.283 187.877 400.545 188.477L396.321 188.217L397.49 169.866L416.722 168.734L416.956 172.71L401.484 173.621L400.825 184.615L401.042 184.602C401.766 183.955 402.688 183.399 403.81 182.934C404.931 182.469 406.112 182.2 407.353 182.127C409.619 181.994 411.669 182.417 413.504 183.397C415.351 184.365 416.835 185.753 417.957 187.561C419.091 189.368 419.729 191.471 419.87 193.869C420.009 196.231 419.603 198.371 418.652 200.289C417.712 202.194 416.352 203.737 414.571 204.918C412.79 206.087 410.725 206.741 408.375 206.879ZM440.065 205.014C438.545 205.079 437.01 204.88 435.459 204.415C433.908 203.95 432.467 203.097 431.137 201.858C429.806 200.606 428.694 198.876 427.802 196.667C426.91 194.446 426.363 191.625 426.162 188.203C425.969 184.925 426.105 182.003 426.571 179.436C427.036 176.857 427.801 174.666 428.868 172.862C429.934 171.046 431.266 169.637 432.864 168.636C434.473 167.635 436.321 167.073 438.405 166.95C440.478 166.828 442.346 167.135 444.01 167.872C445.685 168.595 447.078 169.662 448.188 171.072C449.299 172.482 450.062 174.136 450.476 176.034L446.065 176.294C445.558 174.655 444.681 173.322 443.436 172.295C442.19 171.268 440.591 170.812 438.639 170.927C435.771 171.095 433.585 172.475 432.081 175.067C430.589 177.658 429.97 181.207 430.223 185.714L430.512 185.697C431.127 184.633 431.877 183.713 432.762 182.935C433.659 182.145 434.662 181.517 435.771 181.053C436.88 180.589 438.068 180.319 439.333 180.245C441.454 180.12 443.425 180.536 445.247 181.493C447.068 182.438 448.563 183.807 449.733 185.6C450.901 187.381 451.556 189.465 451.697 191.851C451.831 194.14 451.443 196.267 450.53 198.231C449.617 200.184 448.266 201.775 446.476 203.004C444.698 204.222 442.561 204.891 440.065 205.014ZM439.831 201.038C441.349 200.948 442.689 200.489 443.849 199.659C445.021 198.828 445.919 197.753 446.543 196.435C447.179 195.116 447.451 193.673 447.359 192.106C447.268 190.576 446.843 189.204 446.083 187.991C445.333 186.766 444.34 185.815 443.103 185.138C441.878 184.46 440.507 184.166 438.988 184.255C437.844 184.323 436.791 184.614 435.83 185.131C434.868 185.635 434.036 186.3 433.335 187.127C432.646 187.954 432.121 188.886 431.759 189.923C431.396 190.948 431.247 192.014 431.312 193.123C431.399 194.593 431.823 195.947 432.585 197.184C433.359 198.42 434.372 199.394 435.623 200.106C436.886 200.818 438.289 201.128 439.831 201.038ZM471.105 203.187C468.984 203.312 467.049 203.003 465.3 202.259C463.552 201.516 462.122 200.439 461.011 199.029C459.9 197.62 459.241 195.978 459.034 194.103L463.372 193.848C463.64 195.513 464.48 196.854 465.894 197.871C467.32 198.876 468.979 199.322 470.871 199.211C472.389 199.122 473.718 198.687 474.857 197.906C476.008 197.125 476.884 196.094 477.486 194.813C478.099 193.52 478.359 192.083 478.266 190.505C478.171 188.89 477.731 187.471 476.946 186.248C476.171 185.012 475.148 184.062 473.876 183.399C472.604 182.737 471.178 182.446 469.598 182.527C468.465 182.581 467.312 182.824 466.141 183.256C464.968 183.676 464.013 184.185 463.274 184.785L459.051 184.526L460.22 166.174L479.452 165.042L479.686 169.019L464.214 169.929L463.555 180.923L463.772 180.911C464.496 180.263 465.418 179.707 466.539 179.242C467.661 178.777 468.842 178.508 470.083 178.435C472.349 178.302 474.399 178.725 476.234 179.706C478.081 180.673 479.565 182.061 480.687 183.869C481.821 185.677 482.459 187.779 482.6 190.177C482.739 192.539 482.333 194.679 481.382 196.597C480.442 198.503 479.082 200.046 477.301 201.227C475.52 202.396 473.454 203.049 471.105 203.187Z" fill="#B9CBF7" fill-opacity="0.5"/>
<path d="M347.52 273.151C345.033 273.17 342.833 272.746 340.919 271.879C339.017 271 337.529 269.786 336.455 268.237C335.381 266.676 334.843 264.894 334.839 262.89C334.815 261.321 335.112 259.87 335.73 258.538C336.347 257.193 337.196 256.07 338.275 255.168C339.367 254.255 340.588 253.672 341.938 253.42L341.936 253.203C340.158 252.758 338.738 251.773 337.677 250.248C336.615 248.711 336.082 246.959 336.079 244.991C336.053 243.108 336.517 241.421 337.471 239.929C338.426 238.436 339.745 237.256 341.428 236.386C343.123 235.516 345.057 235.072 347.23 235.056C349.379 235.04 351.301 235.454 352.998 236.298C354.694 237.142 356.031 238.303 357.008 239.78C357.997 241.257 358.504 242.937 358.531 244.82C358.534 246.788 358.01 248.548 356.959 250.101C355.921 251.642 354.534 252.649 352.8 253.121L352.801 253.338C354.143 253.569 355.354 254.133 356.436 255.03C357.517 255.915 358.382 257.025 359.032 258.36C359.682 259.683 360.019 261.129 360.043 262.698C360.046 264.702 359.516 266.493 358.454 268.07C357.404 269.635 355.934 270.872 354.046 271.779C352.17 272.675 349.994 273.132 347.52 273.151ZM347.49 269.167C349.167 269.155 350.614 268.872 351.829 268.32C353.044 267.767 353.979 266.994 354.636 265.999C355.292 265.004 355.621 263.843 355.623 262.515C355.601 261.115 355.229 259.88 354.509 258.811C353.788 257.742 352.81 256.905 351.574 256.299C350.351 255.692 348.954 255.395 347.385 255.407C345.804 255.419 344.394 255.738 343.155 256.363C341.929 256.988 340.963 257.84 340.259 258.92C339.567 259.999 339.233 261.239 339.256 262.639C339.254 263.967 339.582 265.123 340.242 266.108C340.913 267.093 341.866 267.852 343.102 268.386C344.337 268.92 345.8 269.18 347.49 269.167ZM347.356 251.569C348.684 251.558 349.858 251.284 350.88 250.745C351.914 250.206 352.723 249.457 353.308 248.499C353.892 247.541 354.185 246.423 354.188 245.143C354.166 243.888 353.862 242.798 353.275 241.873C352.689 240.935 351.881 240.217 350.851 239.718C349.821 239.207 348.624 238.956 347.26 238.967C345.872 238.977 344.661 239.246 343.627 239.773C342.592 240.288 341.795 241.018 341.235 241.964C340.675 242.898 340.405 243.992 340.427 245.248C340.425 246.527 340.717 247.642 341.303 248.591C341.902 249.54 342.723 250.276 343.765 250.799C344.807 251.322 346.004 251.579 347.356 251.569ZM378.648 272.914C376.524 272.93 374.608 272.522 372.899 271.69C371.191 270.858 369.818 269.71 368.781 268.245C367.744 266.78 367.17 265.107 367.059 263.224L371.404 263.191C371.586 264.868 372.357 266.25 373.717 267.338C375.089 268.414 376.723 268.945 378.618 268.931C380.139 268.919 381.488 268.553 382.666 267.832C383.855 267.11 384.783 266.126 385.45 264.877C386.128 263.617 386.462 262.196 386.45 260.614C386.437 258.997 386.07 257.557 385.348 256.295C384.639 255.021 383.665 254.021 382.428 253.294C381.192 252.567 379.783 252.203 378.201 252.203C377.066 252.2 375.903 252.384 374.711 252.755C373.518 253.114 372.538 253.574 371.77 254.135L367.565 253.66L369.672 235.392L388.936 235.246L388.967 239.229L373.468 239.347L372.248 250.293L372.465 250.291C373.221 249.682 374.171 249.174 375.314 248.767C376.458 248.36 377.651 248.151 378.895 248.142C381.164 248.125 383.19 248.652 384.972 249.725C386.767 250.786 388.178 252.248 389.207 254.111C390.247 255.974 390.776 258.107 390.794 260.509C390.812 262.875 390.297 264.991 389.249 266.858C388.213 268.713 386.776 270.184 384.937 271.273C383.098 272.349 381.002 272.896 378.648 272.914ZM410.175 272.674C407.447 272.695 405.118 271.97 403.188 270.5C401.257 269.018 399.774 266.863 398.738 264.034C397.703 261.193 397.17 257.756 397.139 253.725C397.109 249.717 397.59 246.292 398.582 243.447C399.586 240.591 401.042 238.407 402.95 236.896C404.87 235.372 407.182 234.6 409.886 234.579C412.589 234.559 414.907 235.296 416.837 236.79C418.78 238.272 420.269 240.434 421.305 243.274C422.352 246.103 422.891 249.521 422.922 253.529C422.953 257.56 422.472 261.004 421.479 263.861C420.487 266.705 419.037 268.883 417.129 270.394C415.221 271.893 412.903 272.654 410.175 272.674ZM410.145 268.691C412.849 268.67 414.939 267.351 416.416 264.732C417.893 262.114 418.613 258.39 418.576 253.562C418.552 250.351 418.187 247.62 417.482 245.368C416.789 243.116 415.798 241.403 414.51 240.23C413.233 239.057 411.702 238.477 409.915 238.49C407.236 238.511 405.151 239.848 403.663 242.503C402.174 245.146 401.448 248.876 401.484 253.692C401.509 256.903 401.868 259.628 402.561 261.868C403.254 264.108 404.238 265.809 405.515 266.97C406.803 268.131 408.347 268.705 410.145 268.691ZM441.535 272.436C439.41 272.452 437.494 272.044 435.786 271.212C434.077 270.38 432.704 269.232 431.667 267.767C430.63 266.302 430.056 264.628 429.945 262.746L434.29 262.713C434.472 264.39 435.243 265.772 436.603 266.86C437.976 267.936 439.609 268.467 441.504 268.452C443.025 268.441 444.375 268.075 445.552 267.353C446.742 266.632 447.67 265.647 448.336 264.399C449.015 263.138 449.348 261.717 449.336 260.136C449.324 258.519 448.956 257.079 448.235 255.817C447.525 254.543 446.552 253.542 445.315 252.815C444.078 252.088 442.669 251.725 441.088 251.725C439.953 251.721 438.789 251.905 437.597 252.276C436.405 252.636 435.424 253.096 434.656 253.657L430.452 253.182L432.558 234.914L451.823 234.767L451.853 238.751L436.354 238.869L435.134 249.815L435.351 249.813C436.107 249.204 437.057 248.695 438.201 248.288C439.344 247.881 440.538 247.673 441.781 247.664C444.05 247.646 446.076 248.174 447.859 249.247C449.653 250.308 451.065 251.77 452.093 253.633C453.133 255.496 453.662 257.629 453.681 260.031C453.699 262.396 453.184 264.513 452.136 266.38C451.099 268.235 449.662 269.706 447.823 270.795C445.985 271.871 443.889 272.418 441.535 272.436Z" fill="#B9CBF7" fill-opacity="0.5"/>
<path d="M373.161 370.005C372.217 369.888 371.292 369.606 370.384 369.158C369.476 368.711 368.677 368.036 367.985 367.134C367.294 366.225 366.789 365.043 366.468 363.589C366.148 362.128 366.103 360.333 366.334 358.202C366.555 356.162 366.942 354.375 367.495 352.842C368.049 351.3 368.748 350.029 369.592 349.028C370.437 348.019 371.404 347.289 372.493 346.838C373.589 346.387 374.786 346.232 376.083 346.373C377.373 346.512 378.493 346.895 379.442 347.522C380.399 348.141 381.147 348.943 381.686 349.927C382.224 350.911 382.523 352.01 382.581 353.223L379.836 352.925C379.693 351.863 379.291 350.95 378.63 350.188C377.968 349.426 377.03 348.979 375.815 348.848C374.03 348.655 372.54 349.279 371.344 350.72C370.156 352.162 369.406 354.285 369.095 357.09L369.275 357.109C369.764 356.517 370.322 356.027 370.948 355.64C371.583 355.246 372.266 354.963 372.998 354.792C373.729 354.621 374.489 354.578 375.277 354.663C376.597 354.806 377.769 355.267 378.792 356.045C379.817 356.816 380.596 357.815 381.131 359.042C381.667 360.261 381.855 361.613 381.694 363.098C381.54 364.523 381.08 365.793 380.314 366.91C379.549 368.018 378.551 368.859 377.321 369.431C376.098 369.997 374.712 370.188 373.161 370.005ZM373.429 367.53C374.374 367.632 375.247 367.488 376.048 367.097C376.857 366.706 377.522 366.137 378.043 365.389C378.571 364.642 378.888 363.781 378.994 362.805C379.097 361.853 378.977 360.963 378.634 360.137C378.299 359.304 377.786 358.615 377.093 358.069C376.409 357.525 375.594 357.201 374.649 357.099C373.936 357.022 373.257 357.093 372.611 357.311C371.966 357.522 371.385 357.846 370.867 358.283C370.356 358.721 369.936 359.241 369.605 359.843C369.275 360.437 369.073 361.079 368.998 361.769C368.899 362.684 369.02 363.562 369.362 364.404C369.711 365.246 370.234 365.951 370.931 366.52C371.636 367.089 372.468 367.426 373.429 367.53ZM386.035 371.08L398.547 351.809L398.567 351.629L386.686 350.343L386.954 347.868L401.715 349.466L401.432 352.076L388.96 371.397L386.035 371.08ZM401.529 367.977L401.778 365.682L413.638 350.757L415.303 350.937L414.918 354.492L413.793 354.37L404.832 365.648L404.813 365.828L418.449 367.304L418.181 369.779L401.529 367.977ZM411.864 373.876L412.451 368.453L412.566 367.384L414.358 350.835L417.013 351.122L414.519 374.164L411.864 373.876ZM431.749 352.398C432.693 352.508 433.619 352.791 434.526 353.245C435.433 353.7 436.232 354.379 436.924 355.281C437.616 356.175 438.123 357.349 438.443 358.803C438.764 360.257 438.81 362.041 438.581 364.156C438.359 366.204 437.967 368.002 437.405 369.55C436.851 371.091 436.152 372.366 435.306 373.375C434.469 374.384 433.502 375.114 432.406 375.565C431.317 376.016 430.124 376.172 428.827 376.031C427.537 375.892 426.413 375.512 425.456 374.892C424.506 374.266 423.759 373.46 423.213 372.475C422.675 371.484 422.382 370.371 422.334 369.136L425.079 369.433C425.212 370.518 425.609 371.445 426.269 372.214C426.938 372.977 427.88 373.424 429.095 373.556C430.872 373.748 432.359 373.124 433.555 371.683C434.758 370.242 435.513 368.104 435.82 365.269L435.64 365.249C435.151 365.834 434.594 366.324 433.967 366.719C433.34 367.114 432.66 367.397 431.928 367.568C431.196 367.739 430.433 367.782 429.638 367.696C428.318 367.553 427.142 367.096 426.11 366.324C425.086 365.545 424.307 364.546 423.771 363.327C423.243 362.101 423.06 360.746 423.221 359.261C423.373 357.851 423.828 356.595 424.585 355.493C425.35 354.384 426.344 353.544 427.567 352.97C428.797 352.398 430.192 352.207 431.749 352.398ZM431.481 354.874C430.536 354.771 429.659 354.915 428.851 355.306C428.05 355.69 427.386 356.255 426.857 357.002C426.337 357.743 426.025 358.593 425.921 359.553C425.817 360.513 425.932 361.41 426.267 362.243C426.61 363.069 427.124 363.755 427.809 364.299C428.502 364.837 429.321 365.157 430.266 365.26C430.978 365.337 431.657 365.27 432.302 365.059C432.948 364.84 433.526 364.512 434.037 364.074C434.555 363.63 434.98 363.11 435.309 362.516C435.64 361.914 435.842 361.272 435.916 360.59C436.014 359.69 435.888 358.822 435.538 357.988C435.196 357.154 434.672 356.452 433.967 355.883C433.27 355.314 432.441 354.978 431.481 354.874ZM451.52 354.539C452.464 354.648 453.389 354.931 454.296 355.386C455.203 355.84 456.003 356.519 456.694 357.421C457.386 358.315 457.893 359.489 458.214 360.943C458.534 362.397 458.58 364.181 458.351 366.297C458.13 368.344 457.738 370.142 457.176 371.69C456.622 373.231 455.922 374.506 455.077 375.515C454.239 376.525 453.272 377.255 452.176 377.705C451.088 378.156 449.895 378.312 448.597 378.171C447.307 378.032 446.183 377.652 445.226 377.032C444.277 376.406 443.529 375.6 442.983 374.616C442.446 373.624 442.153 372.511 442.104 371.276L444.849 371.573C444.982 372.658 445.379 373.585 446.039 374.354C446.708 375.117 447.65 375.565 448.865 375.696C450.643 375.889 452.129 375.264 453.325 373.823C454.528 372.382 455.283 370.244 455.59 367.409L455.41 367.39C454.922 367.974 454.364 368.464 453.737 368.859C453.11 369.254 452.431 369.537 451.699 369.708C450.967 369.88 450.203 369.922 449.408 369.836C448.088 369.693 446.912 369.236 445.88 368.464C444.857 367.685 444.077 366.686 443.541 365.467C443.014 364.242 442.83 362.886 442.991 361.401C443.144 359.991 443.598 358.735 444.355 357.633C445.12 356.525 446.114 355.684 447.337 355.11C448.568 354.538 449.962 354.347 451.52 354.539ZM451.252 357.014C450.307 356.912 449.43 357.056 448.621 357.446C447.821 357.83 447.156 358.396 446.628 359.143C446.107 359.883 445.795 360.733 445.691 361.693C445.587 362.654 445.703 363.55 446.038 364.383C446.381 365.209 446.894 365.895 447.579 366.439C448.272 366.977 449.091 367.298 450.036 367.4C450.749 367.477 451.428 367.41 452.073 367.199C452.719 366.981 453.297 366.652 453.807 366.214C454.326 365.77 454.75 365.25 455.08 364.656C455.411 364.055 455.613 363.412 455.687 362.73C455.784 361.83 455.658 360.963 455.308 360.128C454.966 359.294 454.442 358.592 453.738 358.023C453.04 357.454 452.212 357.118 451.252 357.014Z" fill="#B9CBF7" fill-opacity="0.5"/>
<path d="M380.919 392.905L378.425 415.946L375.635 415.644L377.812 395.528L377.677 395.513L371.648 398.64L371.954 395.805L378.129 392.603L380.919 392.905ZM385.651 416.911C385.096 416.851 384.641 416.6 384.287 416.16C383.932 415.719 383.785 415.222 383.845 414.666C383.905 414.111 384.155 413.657 384.596 413.302C385.036 412.948 385.534 412.8 386.089 412.861C386.644 412.921 387.099 413.171 387.454 413.612C387.808 414.052 387.955 414.55 387.895 415.105C387.855 415.472 387.725 415.8 387.504 416.087C387.291 416.375 387.02 416.596 386.693 416.75C386.373 416.898 386.026 416.951 385.651 416.911ZM399.05 418.498C397.505 418.331 396.169 417.909 395.044 417.233C393.926 416.551 393.09 415.69 392.534 414.651C391.98 413.604 391.774 412.459 391.916 411.215C392.014 410.239 392.303 409.36 392.782 408.577C393.262 407.786 393.87 407.15 394.605 406.668C395.349 406.18 396.148 405.906 397.005 405.847L397.019 405.712C395.948 405.307 395.137 404.593 394.588 403.57C394.039 402.54 393.835 401.413 393.974 400.192C394.094 399.021 394.503 398.006 395.203 397.149C395.903 396.291 396.807 395.653 397.914 395.234C399.03 394.816 400.262 394.68 401.612 394.826C402.948 394.971 404.111 395.366 405.104 396.012C406.096 396.659 406.842 397.475 407.343 398.463C407.85 399.451 408.045 400.531 407.925 401.702C407.786 402.924 407.334 403.979 406.57 404.867C405.814 405.749 404.881 406.274 403.77 406.442L403.755 406.577C404.572 406.818 405.283 407.255 405.89 407.89C406.497 408.517 406.955 409.269 407.262 410.144C407.57 411.012 407.675 411.934 407.577 412.91C407.435 414.154 406.977 415.228 406.204 416.131C405.439 417.027 404.438 417.689 403.2 418.116C401.971 418.537 400.588 418.664 399.05 418.498ZM399.318 416.023C400.361 416.136 401.279 416.064 402.073 415.809C402.867 415.553 403.504 415.14 403.983 414.57C404.462 413.999 404.75 413.302 404.847 412.478C404.933 411.607 404.791 410.814 404.421 410.098C404.051 409.383 403.504 408.793 402.78 408.327C402.064 407.863 401.219 407.578 400.244 407.472C399.261 407.366 398.363 407.462 397.549 407.761C396.742 408.061 396.082 408.52 395.567 409.14C395.06 409.76 394.763 410.506 394.676 411.377C394.579 412.201 394.7 412.943 395.038 413.602C395.384 414.261 395.922 414.801 396.65 415.222C397.379 415.642 398.268 415.909 399.318 416.023ZM400.502 405.087C401.327 405.176 402.076 405.09 402.749 404.829C403.43 404.569 403.986 404.163 404.418 403.61C404.85 403.057 405.112 402.384 405.206 401.589C405.283 400.809 405.172 400.11 404.875 399.493C404.578 398.869 404.128 398.365 403.525 397.981C402.922 397.59 402.197 397.348 401.349 397.256C400.487 397.163 399.716 397.243 399.036 397.495C398.356 397.741 397.809 398.137 397.393 398.684C396.978 399.223 396.732 399.883 396.655 400.664C396.562 401.458 396.663 402.171 396.959 402.803C397.262 403.435 397.718 403.951 398.328 404.351C398.937 404.751 399.662 404.996 400.502 405.087ZM421.09 396.935C422.035 397.045 422.96 397.327 423.867 397.782C424.774 398.237 425.573 398.915 426.265 399.817C426.957 400.711 427.464 401.886 427.784 403.339C428.105 404.793 428.151 406.578 427.922 408.693C427.7 410.74 427.308 412.538 426.746 414.086C426.192 415.627 425.493 416.902 424.648 417.911C423.81 418.921 422.843 419.651 421.747 420.101C420.659 420.552 419.465 420.708 418.168 420.567C416.878 420.428 415.754 420.048 414.797 419.428C413.848 418.802 413.1 417.997 412.554 417.012C412.016 416.02 411.723 414.907 411.675 413.672L414.42 413.97C414.553 415.054 414.95 415.981 415.61 416.751C416.279 417.513 417.221 417.961 418.436 418.092C420.213 418.285 421.7 417.66 422.896 416.219C424.099 414.778 424.854 412.64 425.161 409.805L424.981 409.786C424.493 410.37 423.935 410.86 423.308 411.255C422.681 411.65 422.001 411.933 421.269 412.104C420.538 412.276 419.774 412.318 418.979 412.232C417.659 412.089 416.483 411.632 415.451 410.86C414.427 410.081 413.648 409.082 413.112 407.863C412.584 406.638 412.401 405.282 412.562 403.797C412.714 402.387 413.169 401.131 413.926 400.029C414.691 398.921 415.685 398.08 416.908 397.506C418.139 396.934 419.533 396.743 421.09 396.935ZM420.822 399.41C419.877 399.308 419 399.452 418.192 399.842C417.391 400.226 416.727 400.792 416.198 401.539C415.678 402.279 415.366 403.129 415.262 404.09C415.158 405.05 415.273 405.946 415.608 406.779C415.951 407.605 416.465 408.291 417.15 408.836C417.843 409.373 418.662 409.694 419.607 409.796C420.32 409.873 420.998 409.806 421.644 409.595C422.289 409.377 422.868 409.049 423.378 408.611C423.896 408.166 424.321 407.646 424.651 407.052C424.981 406.451 425.184 405.809 425.258 405.126C425.355 404.226 425.229 403.359 424.879 402.524C424.537 401.69 424.013 400.988 423.308 400.419C422.611 399.85 421.783 399.514 420.822 399.41ZM438.343 422.751C436.798 422.584 435.463 422.163 434.337 421.487C433.219 420.804 432.383 419.944 431.828 418.905C431.273 417.858 431.067 416.713 431.209 415.468C431.308 414.492 431.596 413.613 432.076 412.83C432.556 412.04 433.163 411.404 433.898 410.922C434.642 410.433 435.442 410.159 436.298 410.1L436.313 409.965C435.241 409.561 434.43 408.847 433.881 407.824C433.332 406.793 433.128 405.667 433.268 404.445C433.387 403.274 433.797 402.26 434.496 401.402C435.196 400.545 436.1 399.907 437.208 399.488C438.323 399.07 439.556 398.934 440.906 399.08C442.241 399.224 443.405 399.62 444.397 400.266C445.39 400.912 446.136 401.729 446.636 402.716C447.144 403.705 447.338 404.784 447.219 405.955C447.079 407.177 446.627 408.232 445.863 409.121C445.107 410.003 444.174 410.528 443.063 410.696L443.049 410.831C443.865 411.071 444.576 411.509 445.183 412.143C445.79 412.771 446.248 413.522 446.555 414.398C446.864 415.266 446.969 416.188 446.871 417.164C446.728 418.408 446.271 419.481 445.497 420.384C444.733 421.28 443.731 421.942 442.494 422.37C441.264 422.791 439.881 422.918 438.343 422.751ZM438.611 420.276C439.654 420.389 440.572 420.318 441.366 420.062C442.16 419.807 442.797 419.394 443.276 418.823C443.755 418.253 444.043 417.556 444.14 416.731C444.227 415.861 444.085 415.067 443.715 414.352C443.344 413.637 442.797 413.046 442.074 412.581C441.358 412.116 440.512 411.831 439.537 411.726C438.554 411.619 437.656 411.716 436.842 412.014C436.036 412.314 435.375 412.774 434.86 413.393C434.353 414.014 434.056 414.76 433.969 415.63C433.872 416.455 433.993 417.196 434.332 417.855C434.678 418.515 435.215 419.055 435.943 419.475C436.672 419.896 437.561 420.163 438.611 420.276ZM439.795 409.34C440.62 409.43 441.369 409.344 442.043 409.083C442.723 408.823 443.28 408.416 443.711 407.864C444.143 407.311 444.406 406.637 444.499 405.843C444.576 405.062 444.466 404.363 444.168 403.747C443.872 403.123 443.421 402.619 442.818 402.235C442.215 401.843 441.49 401.602 440.643 401.51C439.78 401.417 439.009 401.496 438.329 401.749C437.65 401.994 437.102 402.39 436.686 402.937C436.271 403.476 436.025 404.137 435.949 404.917C435.855 405.712 435.956 406.425 436.252 407.056C436.555 407.688 437.012 408.204 437.621 408.604C438.23 409.004 438.955 409.25 439.795 409.34Z" fill="#B9CBF7" fill-opacity="0.5"/>
<path d="M387.916 453.368C386.251 453 384.934 452.232 383.963 451.067C382.995 449.894 382.393 448.374 382.157 446.506C381.924 444.63 382.08 442.462 382.625 440.002C383.167 437.557 383.939 435.537 384.941 433.943C385.952 432.344 387.145 431.217 388.518 430.563C389.901 429.904 391.417 429.757 393.067 430.122C394.717 430.488 396.025 431.261 396.992 432.441C397.969 433.616 398.573 435.141 398.807 437.016C399.05 438.886 398.9 441.043 398.358 443.489C397.813 445.949 397.038 447.979 396.034 449.581C395.032 451.174 393.844 452.298 392.471 452.952C391.099 453.598 389.581 453.737 387.916 453.368ZM388.455 450.938C390.104 451.303 391.562 450.792 392.828 449.403C394.094 448.015 395.053 445.847 395.706 442.901C396.14 440.942 396.3 439.227 396.186 437.756C396.078 436.288 395.714 435.106 395.093 434.211C394.48 433.318 393.628 432.75 392.538 432.509C390.903 432.146 389.446 432.67 388.168 434.079C386.892 435.481 385.928 437.651 385.277 440.59C384.842 442.549 384.68 444.259 384.789 445.721C384.898 447.182 385.26 448.356 385.875 449.242C386.497 450.129 387.357 450.695 388.455 450.938ZM401.165 456.165C400.62 456.044 400.195 455.746 399.891 455.269C399.588 454.792 399.496 454.281 399.617 453.736C399.738 453.191 400.036 452.766 400.513 452.462C400.99 452.158 401.501 452.067 402.046 452.188C402.591 452.308 403.016 452.607 403.32 453.084C403.623 453.561 403.715 454.072 403.594 454.617C403.514 454.978 403.349 455.289 403.098 455.55C402.854 455.813 402.561 456.003 402.218 456.12C401.884 456.232 401.533 456.247 401.165 456.165ZM414.374 459.231C413.078 458.944 411.968 458.428 411.043 457.682C410.119 456.936 409.443 456.045 409.016 455.007C408.589 453.97 408.474 452.87 408.67 451.708L411.321 452.296C411.197 453.342 411.474 454.292 412.15 455.145C412.836 455.993 413.757 456.544 414.913 456.801C415.841 457.006 416.714 456.972 417.532 456.697C418.358 456.424 419.061 455.954 419.641 455.287C420.231 454.614 420.633 453.795 420.846 452.83C421.065 451.843 421.043 450.915 420.78 450.045C420.526 449.169 420.073 448.424 419.421 447.808C418.769 447.192 417.962 446.774 416.998 446.553C416.308 446.392 415.573 446.341 414.795 446.4C414.018 446.453 413.357 446.596 412.81 446.83L410.316 445.953L414.154 435.119L425.909 437.724L425.371 440.155L415.913 438.059L413.639 444.556L413.771 444.586C414.317 444.32 414.967 444.144 415.72 444.055C416.474 443.967 417.23 444.008 417.989 444.176C419.373 444.482 420.534 445.087 421.47 445.99C422.414 446.887 423.07 447.975 423.435 449.254C423.809 450.534 423.833 451.907 423.508 453.373C423.188 454.817 422.578 456.034 421.679 457.025C420.788 458.01 419.707 458.705 418.435 459.111C417.164 459.509 415.811 459.55 414.374 459.231ZM427.008 461.706L441.564 443.929L441.604 443.752L429.936 441.167L430.475 438.736L444.971 441.948L444.403 444.511L429.88 462.343L427.008 461.706ZM451.033 467.354C450.109 467.134 449.22 466.752 448.367 466.207C447.514 465.663 446.793 464.904 446.205 463.931C445.618 462.952 445.246 461.721 445.087 460.241C444.93 458.754 445.083 456.964 445.546 454.872C445.99 452.869 446.572 451.135 447.29 449.672C448.01 448.201 448.845 447.014 449.794 446.112C450.745 445.202 451.787 444.583 452.918 444.254C454.057 443.927 455.264 443.904 456.538 444.187C457.805 444.467 458.875 444.971 459.75 445.698C460.633 446.419 461.288 447.299 461.715 448.336C462.142 449.373 462.318 450.498 462.243 451.71L459.547 451.113C459.522 450.041 459.222 449.089 458.649 448.259C458.076 447.429 457.193 446.882 455.999 446.617C454.246 446.229 452.696 446.685 451.349 447.986C450.01 449.289 449.031 451.317 448.413 454.07L448.59 454.109C449.141 453.575 449.749 453.149 450.415 452.833C451.089 452.511 451.799 452.305 452.545 452.215C453.291 452.126 454.051 452.167 454.824 452.338C456.121 452.625 457.235 453.212 458.167 454.099C459.1 454.978 459.765 456.056 460.162 457.334C460.56 458.605 460.598 459.969 460.275 461.428C459.965 462.827 459.368 464.039 458.484 465.064C457.601 466.082 456.517 466.808 455.231 467.241C453.954 467.669 452.555 467.707 451.033 467.354ZM451.572 464.924C452.5 465.129 453.384 465.082 454.223 464.781C455.07 464.482 455.793 463.989 456.394 463.303C457.001 462.619 457.411 461.798 457.623 460.84C457.831 459.905 457.809 459.007 457.559 458.148C457.318 457.283 456.883 456.542 456.255 455.924C455.635 455.307 454.86 454.896 453.932 454.69C453.233 454.535 452.55 454.531 451.884 454.677C451.219 454.815 450.606 455.074 450.043 455.451C449.488 455.83 449.012 456.301 448.618 456.862C448.224 457.417 447.953 458.033 447.802 458.71C447.603 459.609 447.627 460.495 447.874 461.369C448.128 462.244 448.57 463.003 449.201 463.645C449.839 464.289 450.629 464.715 451.572 464.924ZM463.711 469.839L478.268 452.062L478.307 451.885L466.64 449.3L467.178 446.869L481.674 450.081L481.106 452.644L466.584 470.476L463.711 469.839Z" fill="#B9CBF7" fill-opacity="0.5"/>
<path d="M324.389 134.9C321.68 135.215 319.286 134.745 317.208 133.492C315.129 132.226 313.423 130.243 312.088 127.542C310.753 124.829 309.852 121.471 309.388 117.466C308.926 113.485 309.035 110.027 309.715 107.092C310.406 104.144 311.618 101.816 313.352 100.108C315.096 98.3868 317.312 97.3702 319.998 97.0585C322.683 96.7468 325.067 97.2297 327.147 98.5072C329.238 99.7714 330.951 101.76 332.287 104.473C333.633 107.172 334.537 110.512 334.999 114.493C335.464 118.498 335.357 121.974 334.678 124.92C333.998 127.855 332.791 130.176 331.057 131.885C329.322 133.581 327.099 134.586 324.389 134.9ZM323.93 130.944C326.616 130.632 328.552 129.095 329.738 126.332C330.925 123.57 331.239 119.79 330.683 114.994C330.313 111.805 329.656 109.129 328.712 106.966C327.78 104.801 326.611 103.205 325.203 102.178C323.808 101.149 322.223 100.737 320.448 100.943C317.787 101.252 315.859 102.807 314.665 105.607C313.469 108.395 313.149 112.181 313.704 116.965C314.074 120.154 314.725 122.825 315.655 124.977C316.585 127.13 317.747 128.714 319.141 129.731C320.547 130.747 322.144 131.151 323.93 130.944ZM345.884 132.187C344.997 132.29 344.199 132.061 343.489 131.499C342.78 130.937 342.374 130.213 342.271 129.325C342.168 128.438 342.398 127.64 342.959 126.93C343.521 126.221 344.246 125.815 345.133 125.712C346.02 125.609 346.818 125.839 347.528 126.4C348.237 126.962 348.643 127.687 348.746 128.574C348.814 129.161 348.727 129.718 348.484 130.245C348.254 130.77 347.91 131.211 347.453 131.567C347.007 131.911 346.484 132.117 345.884 132.187ZM367.353 129.914C364.883 130.201 362.65 130.016 360.654 129.361C358.668 128.692 357.058 127.646 355.823 126.221C354.587 124.785 353.86 123.071 353.641 121.079C353.448 119.522 353.587 118.047 354.057 116.656C354.526 115.253 355.249 114.045 356.225 113.032C357.212 112.006 358.363 111.296 359.678 110.9L359.653 110.684C357.837 110.433 356.319 109.607 355.099 108.205C353.878 106.791 353.16 105.106 352.945 103.151C352.716 101.281 352.996 99.5538 353.784 97.9677C354.572 96.3815 355.756 95.0654 357.336 94.0192C358.927 92.9717 360.803 92.3227 362.961 92.0722C365.095 91.8245 367.051 92.0289 368.829 92.6854C370.606 93.3419 372.06 94.3519 373.19 95.7154C374.333 97.0775 375.018 98.6931 375.248 100.562C375.462 102.518 375.131 104.325 374.254 105.982C373.388 107.626 372.118 108.776 370.444 109.432L370.469 109.647C371.828 109.733 373.093 110.163 374.264 110.939C375.435 111.702 376.415 112.712 377.205 113.97C377.993 115.215 378.484 116.616 378.677 118.173C378.896 120.165 378.562 122.002 377.676 123.685C376.8 125.354 375.473 126.742 373.693 127.848C371.924 128.94 369.811 129.629 367.353 129.914ZM366.894 125.957C368.56 125.764 369.968 125.327 371.116 124.647C372.265 123.967 373.111 123.097 373.657 122.037C374.202 120.977 374.404 119.787 374.263 118.467C374.09 117.077 373.587 115.89 372.756 114.905C371.925 113.92 370.862 113.193 369.568 112.723C368.286 112.252 366.866 112.107 365.307 112.288C363.736 112.47 362.369 112.939 361.205 113.694C360.053 114.447 359.185 115.399 358.601 116.548C358.03 117.696 357.831 118.964 358.004 120.354C358.145 121.674 358.597 122.788 359.358 123.697C360.132 124.603 361.161 125.255 362.447 125.653C363.733 126.051 365.215 126.152 366.894 125.957ZM364.865 108.475C366.184 108.322 367.322 107.923 368.28 107.277C369.25 106.629 369.974 105.798 370.451 104.783C370.929 103.767 371.1 102.623 370.964 101.351C370.808 100.105 370.388 99.0543 369.705 98.1978C369.021 97.3294 368.14 96.7025 367.063 96.3172C365.984 95.9199 364.767 95.7998 363.412 95.9571C362.033 96.1171 360.858 96.5148 359.886 97.15C358.914 97.7733 358.2 98.5853 357.745 99.586C357.288 100.575 357.139 101.692 357.295 102.937C357.431 104.21 357.841 105.286 358.527 106.167C359.224 107.046 360.119 107.689 361.212 108.097C362.304 108.505 363.522 108.631 364.865 108.475ZM394.099 88.4583C395.611 88.295 397.155 88.4074 398.731 88.7956C400.307 89.1838 401.795 89.959 403.194 91.1213C404.591 92.2715 405.797 93.9239 406.813 96.0784C407.829 98.233 408.533 101.001 408.925 104.382C409.305 107.656 409.331 110.599 409.002 113.214C408.684 115.815 408.045 118.052 407.083 119.926C406.134 121.798 404.884 123.28 403.334 124.371C401.796 125.461 399.989 126.126 397.915 126.367C395.853 126.606 393.965 126.412 392.251 125.785C390.549 125.144 389.097 124.152 387.896 122.809C386.706 121.452 385.854 119.819 385.341 117.91L389.729 117.401C390.321 119.046 391.268 120.352 392.572 121.318C393.885 122.272 395.513 122.636 397.456 122.41C400.297 122.08 402.396 120.579 403.75 117.906C405.117 115.232 405.537 111.629 405.011 107.097L404.723 107.13C404.169 108.215 403.472 109.177 402.634 110.016C401.796 110.854 400.836 111.537 399.755 112.063C398.673 112.59 397.497 112.927 396.226 113.074C394.116 113.319 392.119 113.022 390.235 112.184C388.362 111.332 386.792 110.05 385.524 108.338C384.266 106.612 383.5 104.562 383.224 102.188C382.963 99.9341 383.227 97.8133 384.017 95.8259C384.818 93.8251 386.071 92.1607 387.776 90.8327C389.493 89.5033 391.6 88.7118 394.099 88.4583ZM394.558 92.4152C393.047 92.5905 391.73 93.1262 390.607 94.0221C389.494 94.9047 388.657 96.0225 388.098 97.3756C387.548 98.7153 387.363 100.153 387.541 101.687C387.719 103.222 388.217 104.58 389.034 105.761C389.862 106.929 390.907 107.816 392.169 108.423C393.441 109.017 394.832 109.226 396.343 109.051C397.482 108.918 398.517 108.573 399.449 108.016C400.379 107.446 401.165 106.729 401.806 105.865C402.457 104.987 402.935 104.026 403.239 102.982C403.542 101.926 403.63 100.853 403.504 99.7618C403.337 98.3229 402.832 97.0143 401.991 95.8361C401.161 94.6564 400.096 93.7471 398.794 93.1083C397.505 92.4681 396.093 92.237 394.558 92.4152ZM425.704 84.7902C427.216 84.6268 428.76 84.7393 430.337 85.1275C431.913 85.5157 433.4 86.2909 434.799 87.4531C436.196 88.6034 437.403 90.2558 438.418 92.4103C439.434 94.5649 440.138 97.3328 440.53 100.714C440.91 103.987 440.936 106.931 440.608 109.546C440.29 112.147 439.65 114.384 438.689 116.258C437.739 118.13 436.49 119.612 434.939 120.703C433.401 121.793 431.595 122.458 429.52 122.699C427.458 122.938 425.57 122.744 423.857 122.117C422.154 121.476 420.702 120.484 419.501 119.141C418.311 117.784 417.459 116.151 416.946 114.242L421.334 113.733C421.926 115.378 422.874 116.683 424.177 117.65C425.491 118.604 427.119 118.967 429.061 118.742C431.903 118.412 434.001 116.911 435.356 114.238C436.722 111.564 437.143 107.961 436.617 103.429L436.329 103.462C435.774 104.547 435.078 105.509 434.239 106.348C433.401 107.186 432.441 107.869 431.36 108.395C430.279 108.922 429.103 109.259 427.832 109.406C425.721 109.651 423.724 109.354 421.841 108.516C419.968 107.664 418.397 106.382 417.129 104.67C415.872 102.944 415.105 100.894 414.83 98.5202C414.568 96.266 414.832 94.1452 415.622 92.1578C416.423 90.157 417.676 88.4926 419.381 87.1646C421.098 85.8351 423.206 85.0437 425.704 84.7902ZM426.163 88.747C424.652 88.9224 423.335 89.458 422.212 90.354C421.099 91.2366 420.263 92.3544 419.703 93.7075C419.154 95.0472 418.968 96.4844 419.146 98.0192C419.324 99.554 419.822 100.912 420.64 102.093C421.468 103.261 422.513 104.148 423.774 104.755C425.046 105.349 426.437 105.558 427.948 105.383C429.087 105.25 430.123 104.905 431.054 104.348C431.985 103.778 432.77 103.061 433.411 102.197C434.063 101.319 434.541 100.358 434.845 99.3142C435.148 98.2583 435.236 97.1848 435.109 96.0936C434.942 94.6548 434.438 93.3462 433.596 92.1679C432.767 90.9883 431.701 90.079 430.4 89.4402C429.11 88.8 427.698 88.5689 426.163 88.747ZM461.989 118.931C459.279 119.245 456.885 118.776 454.808 117.522C452.729 116.256 451.022 114.273 449.688 111.572C448.352 108.86 447.452 105.501 446.987 101.496C446.525 97.515 446.634 94.0573 447.314 91.1226C448.005 88.1746 449.218 85.8465 450.951 84.1384C452.696 82.417 454.911 81.4004 457.597 81.0887C460.283 80.7769 462.666 81.2598 464.747 82.5374C466.838 83.8015 468.551 85.7901 469.886 88.5029C471.233 91.2024 472.137 94.5425 472.599 98.5234C473.064 102.528 472.957 106.004 472.278 108.951C471.598 111.885 470.391 114.207 468.657 115.915C466.921 117.611 464.699 118.616 461.989 118.931ZM461.53 114.974C464.216 114.662 466.152 113.125 467.338 110.362C468.524 107.6 468.839 103.821 468.282 99.0243C467.912 95.8349 467.255 93.1587 466.311 90.9958C465.38 88.8315 464.21 87.2356 462.803 86.208C461.408 85.1791 459.823 84.7676 458.048 84.9736C455.386 85.2825 453.458 86.8369 452.264 89.6368C451.069 92.4246 450.749 96.2107 451.304 100.995C451.674 104.184 452.324 106.855 453.255 109.008C454.185 111.16 455.347 112.744 456.741 113.761C458.147 114.777 459.743 115.181 461.53 114.974Z" fill="#B9CBF7" fill-opacity="0.5"/>
<path d="M312.811 66.2243C310.746 66.7232 308.787 66.7619 306.934 66.3402C305.081 65.9186 303.483 65.1126 302.14 63.922C300.797 62.7315 299.857 61.2324 299.321 59.4247L303.545 58.4042C304.104 59.9954 305.169 61.1661 306.741 61.9164C308.322 62.652 310.033 62.7973 311.876 62.3523C313.354 61.9951 314.584 61.3314 315.567 60.3614C316.561 59.3884 317.241 58.2183 317.606 56.851C317.98 55.4692 317.981 54.0097 317.61 52.4727C317.23 50.9004 316.545 49.5819 315.555 48.5171C314.574 47.4378 313.399 46.6849 312.029 46.2583C310.66 45.8317 309.205 45.7983 307.665 46.1579C306.559 46.4126 305.468 46.8563 304.391 47.489C303.312 48.1099 302.462 48.7809 301.841 49.5021L297.639 49.9958L295.535 31.7277L314.262 27.2033L315.197 31.0753L300.132 34.7153L301.433 45.6518L301.644 45.6008C302.241 44.8355 303.051 44.1247 304.072 43.4681C305.093 42.8116 306.208 42.3374 307.416 42.0454C309.622 41.5124 311.715 41.5656 313.695 42.2049C315.684 42.8296 317.391 43.9322 318.816 45.5128C320.253 47.0905 321.253 49.0468 321.817 51.3817C322.373 53.6815 322.353 55.8595 321.757 57.9159C321.17 59.9578 320.105 61.7177 318.562 63.1957C317.016 64.6619 315.099 65.6715 312.811 66.2243ZM343.246 58.871C340.829 59.455 338.59 59.5427 336.529 59.1341C334.477 58.7109 332.752 57.8672 331.354 56.6031C329.953 55.3272 329.023 53.714 328.564 51.7634C328.184 50.2409 328.143 48.7606 328.441 47.3225C328.736 45.8727 329.307 44.5861 330.154 43.4627C331.009 42.3247 332.065 41.4797 333.322 40.9275L333.271 40.7163C331.439 40.6871 329.832 40.0508 328.451 38.8073C327.068 37.5521 326.151 35.9668 325.7 34.0514C325.246 32.2238 325.314 30.4751 325.904 28.8051C326.494 27.1351 327.51 25.6851 328.951 24.4552C330.405 23.2224 332.187 22.3509 334.299 21.8406C336.388 21.336 338.354 21.3018 340.198 21.738C342.042 22.1742 343.607 23.0005 344.895 24.2169C346.194 25.4304 347.07 26.951 347.524 28.7786C347.975 30.694 347.865 32.5273 347.195 34.2786C346.535 36.0154 345.413 37.3108 343.831 38.1649L343.882 38.3761C345.241 38.2961 346.549 38.57 347.806 39.1977C349.06 39.8136 350.156 40.6977 351.092 41.8499C352.026 42.9903 352.683 44.3217 353.063 45.8442C353.522 47.7948 353.414 49.6589 352.738 51.4365C352.071 53.1996 350.921 54.7378 349.289 56.0512C347.666 57.3499 345.651 58.2899 343.246 58.871ZM342.31 54.999C343.941 54.605 345.286 54.0008 346.343 53.1865C347.401 52.3722 348.136 51.406 348.549 50.2879C348.961 49.1699 349.018 47.9641 348.718 46.6706C348.377 45.3124 347.735 44.1947 346.79 43.3177C345.845 42.4407 344.702 41.8476 343.361 41.5383C342.031 41.2263 340.604 41.2545 339.079 41.623C337.542 41.9944 336.241 42.6253 335.177 43.5156C334.125 44.4032 333.379 45.4527 332.939 46.6643C332.511 47.8729 332.467 49.1564 332.807 50.5146C333.107 51.8081 333.691 52.8594 334.557 53.6685C335.434 54.4747 336.535 54.9972 337.86 55.2361C339.184 55.4749 340.668 55.3959 342.31 54.999ZM338.177 37.8918C339.468 37.58 340.549 37.0454 341.422 36.2882C342.306 35.5281 342.924 34.6152 343.275 33.5494C343.626 32.4835 343.657 31.3273 343.368 30.0807C343.062 28.8633 342.518 27.8709 341.736 27.1035C340.952 26.3244 340.002 25.8089 338.885 25.557C337.766 25.2935 336.543 25.3219 335.218 25.6422C333.868 25.9682 332.75 26.5054 331.863 27.2537C330.973 27.9903 330.363 28.8828 330.032 29.9313C329.699 30.968 329.686 32.095 329.992 33.3125C330.281 34.559 330.819 35.5777 331.606 36.3686C332.405 37.1566 333.371 37.6869 334.505 37.9594C335.639 38.2318 336.863 38.2093 338.177 37.8918ZM364.769 14.4788C366.25 14.1334 367.797 14.0578 369.408 14.2521C371.02 14.4463 372.591 15.0355 374.12 16.0196C375.646 16.992 377.044 18.486 378.313 20.5015C379.583 22.5171 380.617 25.1792 381.417 28.488C382.19 31.6912 382.573 34.6103 382.564 37.2452C382.563 39.8655 382.2 42.1638 381.473 44.1401C380.757 46.1136 379.696 47.7359 378.29 49.0071C376.895 50.2755 375.183 51.1549 373.153 51.6454C371.135 52.1329 369.237 52.1692 367.46 51.754C365.692 51.3243 364.131 50.5156 362.776 49.3279C361.43 48.1257 360.387 46.6082 359.646 44.7754L363.94 43.7378C364.727 45.2987 365.826 46.4799 367.237 47.2816C368.656 48.0687 370.316 48.2326 372.217 47.7733C374.998 47.1015 376.899 45.357 377.919 42.5398C378.952 39.7198 378.932 36.0922 377.861 31.657L377.579 31.725C377.16 32.8694 376.585 33.9085 375.855 34.8426C375.124 35.7766 374.254 36.5704 373.245 37.2241C372.236 37.8778 371.109 38.3549 369.865 38.6554C367.8 39.1543 365.782 39.1017 363.81 38.4976C361.848 37.879 360.134 36.7968 358.667 35.2511C357.21 33.6908 356.201 31.749 355.639 29.4258C355.106 27.2199 355.112 25.0827 355.655 23.0142C356.207 20.9311 357.249 19.1271 358.781 17.6022C360.324 16.0744 362.32 15.0333 364.769 14.4788ZM365.705 18.3508C364.226 18.708 362.984 19.3994 361.977 20.4249C360.98 21.4359 360.285 22.6468 359.893 24.0578C359.51 25.4542 359.5 26.9034 359.863 28.4053C360.226 29.9071 360.885 31.1947 361.84 32.2679C362.803 33.3266 363.948 34.0808 365.274 34.5304C366.608 34.9655 368.015 35.0045 369.493 34.6473C370.608 34.378 371.594 33.91 372.451 33.2434C373.305 32.5651 373.998 31.7581 374.53 30.8225C375.07 29.8724 375.428 28.8608 375.603 27.7877C375.776 26.7029 375.733 25.6266 375.475 24.5588C375.135 23.1508 374.476 21.913 373.498 20.8455C372.531 19.7751 371.363 19.0017 369.994 18.5253C368.636 18.0461 367.206 17.988 365.705 18.3508ZM404.925 43.9689C402.273 44.6096 399.84 44.4337 397.626 43.4413C395.409 42.4371 393.475 40.6754 391.823 38.1562C390.168 35.6252 388.867 32.4003 387.921 28.4813C386.979 24.5859 386.668 21.1404 386.988 18.1449C387.316 15.1349 388.237 12.677 389.751 10.7714C391.274 8.85113 393.35 7.5735 395.978 6.9385C398.607 6.30349 401.031 6.49395 403.251 7.50988C405.48 8.51124 407.421 10.2774 409.076 12.8083C410.739 15.3247 412.042 18.5306 412.983 22.4261C413.93 26.345 414.245 29.8081 413.928 32.8153C413.609 35.8108 412.692 38.2613 411.178 40.167C409.661 42.061 407.577 43.3283 404.925 43.9689ZM403.99 40.0969C406.618 39.4619 408.353 37.7015 409.196 34.8155C410.039 31.9296 409.893 28.14 408.759 23.4466C408.005 20.3256 407.028 17.7488 405.829 15.7162C404.642 13.6808 403.288 12.2385 401.766 11.3891C400.257 10.5369 398.633 10.3205 396.897 10.7401C394.292 11.3694 392.567 13.1461 391.721 16.07C390.872 18.9823 391.013 22.7792 392.145 27.4608C392.899 30.5819 393.868 33.1542 395.052 35.1779C396.237 37.2015 397.582 38.6336 399.089 39.4741C400.608 40.3117 402.241 40.5193 403.99 40.0969Z" fill="#B9CBF7" fill-opacity="0.5"/>
<path d="M280.432 262.099L363.287 126.663L334.607 109.136L422.242 68.5052L427.818 155.344L396.748 141.003L315.486 255.726" stroke="white" stroke-width="4.78009"/>
<path d="M138.623 205.535L192 229.435C193.063 233.153 194.869 241.863 193.594 246.962C200.605 253.973 202.888 269.004 203.154 275.643C205.81 279.892 210.802 289.186 209.528 292.373C220.681 301.933 240.598 355.311 240.598 361.684C240.598 366.783 239.536 375.494 239.005 379.211C237.677 381.867 233.269 387.816 226.258 390.365C223.531 391.357 212.44 395.112 198.123 399.925L203.154 481.983L29.4773 485.967L13.5436 470.83L7.80569 343.361C4.0062 339.243 0.507433 335.41 -2.39001 332.207V214.298C1.32784 214.298 9.87889 213.661 14.3403 211.111C19.9171 207.925 24.6972 203.145 29.4773 201.551C33.3014 200.277 44.8798 194.116 50.191 191.194L75.6849 205.535L121.892 266.879L125.079 211.111L138.623 205.535Z" fill="black"/>
<path d="M7.80568 343.361C23.8556 360.757 45.2716 383.242 49.3943 384.788C54.4931 386.7 93.4774 383.991 112.332 382.398L126.673 423.826C145.172 417.659 175.629 407.487 198.123 399.925M7.80568 343.361C4.0062 339.243 0.507433 335.41 -2.39001 332.207V214.298C1.32784 214.298 9.87889 213.661 14.3403 211.111C19.9171 207.925 24.6972 203.145 29.4773 201.551C33.3014 200.277 44.8798 194.116 50.191 191.194L75.6849 205.535L121.892 266.879L125.079 211.111L138.623 205.535L192 229.435C193.063 233.153 194.869 241.863 193.594 246.962C200.605 253.973 202.888 269.004 203.154 275.643C205.81 279.892 210.802 289.186 209.528 292.373C220.681 301.933 240.598 355.311 240.598 361.684C240.598 366.783 239.536 375.494 239.005 379.211C237.677 381.867 233.269 387.816 226.258 390.365C223.531 391.357 212.44 395.112 198.123 399.925M7.80568 343.361L13.5436 470.83L29.4773 485.967L203.154 481.983L198.123 399.925" stroke="black" stroke-width="3.18673"/>
<path d="M123.486 407.892L79.6683 384.788H112.332L123.486 407.892Z" fill="#664C3F" stroke="#664C3F" stroke-width="3.18673"/>
<path d="M86.0417 234.215L90.8218 222.265L91.6185 218.281L108.349 221.468L121.892 234.215L122.689 270.066L102.772 249.352L86.0417 234.215Z" fill="white" stroke="white" stroke-width="3.18673"/>
<path d="M87.6351 236.605C106.224 252.804 144.518 291.895 148.98 318.663" stroke="#525252" stroke-width="3.18673"/>
<path d="M86.8384 239.792L52.5811 192.788L133.843 205.535C133.312 208.721 123.008 226.089 121.096 235.012C111.536 226.248 110.739 224.655 101.975 223.858C94.9646 223.221 88.9629 234.215 86.8384 239.792Z" fill="white" stroke="black" stroke-width="3.18673"/>
<path d="M54.4758 92.0261C38.5421 143.651 43.8176 183.865 50.9877 191.991L99.5853 220.671L138.623 205.535C149.865 193.222 157.743 105.57 142.606 87.246C149.776 68.1256 127.771 66.5322 122.194 72.109C117.414 67.3289 83.1563 66.5322 75.9862 74.4991C70.4094 64.9389 44.1189 72.9057 54.4758 92.0261Z" fill="#664C3F" stroke="black" stroke-width="1.59336"/>
<path d="M195.187 336.272C197.737 324.8 177.66 322.994 167.303 323.526L174.473 350.613C180.316 350.613 192.638 347.745 195.187 336.272Z" fill="#664C3F" stroke="#664C3F" stroke-width="3.18673"/>
<path d="M50.191 300.34C64.2126 295.878 68.7803 307.51 69.3114 313.883L63.7346 314.68L54.9711 311.493C54.44 310.166 52.7404 306.076 50.191 300.34Z" fill="#664C3F" stroke="#664C3F" stroke-width="3.18673"/>
<path d="M172.083 355.311C177.926 352.124 190.885 345.432 195.984 344.157" stroke="#525252" stroke-width="3.18673"/>
<path d="M139.419 205.535L155.353 229.435L144.2 239.792L160.93 254.132C155.619 275.377 145.952 318.185 149.776 319.46" stroke="#525252" stroke-width="3.18673"/>
<path d="M7.96683 346.547C19.9171 358.232 45.0922 381.92 50.191 383.195C55.2898 384.47 135.17 383.726 174.473 383.195C173.677 364.34 170.49 325.834 164.117 322.647C157.743 319.46 105.162 317.601 79.6683 317.07C78.3404 316.008 74.8882 314.202 71.7014 315.477C67.8773 313.565 64.7968 315.211 63.7346 316.273C62.6724 314.68 59.2732 311.653 54.1744 312.29C53.5371 309.741 49.6599 301.136 47.801 297.153" stroke="#525252" stroke-width="3.18673"/>
<path d="M111.536 383.991C119.502 395.411 133.843 420.958 127.469 431.792C145.315 426.694 202.357 402.581 228.648 391.162C234.49 387.178 245.378 376.025 242.191 363.278C238.208 347.344 217.494 297.153 211.121 292.373C212.396 288.549 207.403 280.157 204.747 276.439C204.747 269.8 202.835 254.451 195.187 246.165C197.099 233.418 193.859 229.17 192 228.638L139.419 204.738" stroke="#525252" stroke-width="3.18673"/>
<path d="M50.9877 192.788L43.0209 219.078L64.5313 232.622V244.572C69.3114 250.149 79.987 261.78 84.4484 263.692C90.0252 266.082 121.892 289.983 126.673 293.966C131.453 297.95 148.183 317.07 148.183 320.257" stroke="#525252" stroke-width="3.18673"/>
<path d="M117.253 133.083C117.253 138.159 115.866 141.131 113.55 142.897C111.161 144.719 107.541 145.455 102.631 145.455C97.7124 145.455 94.4127 144.714 92.3228 142.935C90.2797 141.196 89.1347 138.231 89.1347 133.083C89.1347 127.941 90.2797 121.933 92.6013 117.251C94.9349 112.545 98.2913 109.464 102.631 109.464C107 109.464 110.637 112.581 113.248 117.296C115.843 121.983 117.253 127.979 117.253 133.083Z" fill="white" stroke="black" stroke-width="2.24946"/>
<path d="M104.312 122.602C103.447 123.481 102.035 123.5 101.147 122.644L99.7817 121.328C98.3347 119.933 99.3034 117.486 101.313 117.459L104.008 117.423C106.018 117.397 107.051 119.818 105.642 121.25L104.312 122.602Z" fill="black"/>
<circle cx="3.55177" cy="3.55177" r="3.55177" transform="matrix(1 0 0 -1 81.2616 115.443)" fill="black"/>
<circle cx="3.55177" cy="3.55177" r="3.55177" transform="matrix(1 0 0 -1 117.253 115.443)" fill="black"/>
<mask id="path-50-outside-1_12_460" maskUnits="userSpaceOnUse" x="202.357" y="270.522" width="248" height="65" fill="black">
<rect fill="white" x="202.357" y="270.522" width="248" height="65"/>
<path d="M239.512 288.805C239.186 286.053 237.864 283.916 235.546 282.395C233.229 280.874 230.386 280.114 227.018 280.114C224.556 280.114 222.401 280.512 220.554 281.309C218.726 282.106 217.295 283.201 216.263 284.595C215.249 285.989 214.742 287.574 214.742 289.348C214.742 290.833 215.095 292.109 215.801 293.178C216.526 294.228 217.449 295.106 218.572 295.812C219.694 296.5 220.871 297.071 222.102 297.523C223.334 297.958 224.465 298.311 225.497 298.582L231.147 300.103C232.595 300.484 234.207 301.009 235.981 301.679C237.773 302.349 239.485 303.263 241.114 304.422C242.762 305.563 244.12 307.029 245.188 308.822C246.256 310.614 246.79 312.814 246.79 315.421C246.79 318.427 246.003 321.143 244.428 323.569C242.87 325.996 240.589 327.924 237.583 329.354C234.596 330.785 230.965 331.5 226.692 331.5C222.709 331.5 219.26 330.857 216.345 329.572C213.448 328.286 211.166 326.494 209.5 324.194C207.853 321.895 206.92 319.224 206.703 316.182H213.656C213.837 318.282 214.543 320.02 215.774 321.397C217.024 322.755 218.599 323.769 220.5 324.438C222.419 325.09 224.483 325.416 226.692 325.416C229.263 325.416 231.572 325 233.618 324.167C235.664 323.316 237.285 322.139 238.48 320.636C239.675 319.115 240.272 317.341 240.272 315.313C240.272 313.466 239.756 311.963 238.724 310.804C237.692 309.646 236.334 308.704 234.65 307.98C232.966 307.255 231.147 306.622 229.191 306.079L222.347 304.123C218.001 302.874 214.561 301.09 212.026 298.773C209.491 296.455 208.224 293.422 208.224 289.674C208.224 286.56 209.066 283.844 210.75 281.526C212.452 279.191 214.733 277.38 217.594 276.094C220.473 274.791 223.687 274.139 227.236 274.139C230.821 274.139 234.007 274.782 236.796 276.067C239.584 277.335 241.793 279.073 243.423 281.282C245.07 283.491 245.939 285.999 246.03 288.805H239.512ZM275.138 288.805V294.237H253.519V288.805H275.138ZM259.82 278.81H266.23V318.572C266.23 320.383 266.493 321.741 267.018 322.646C267.561 323.533 268.249 324.131 269.082 324.438C269.933 324.728 270.829 324.873 271.771 324.873C272.477 324.873 273.056 324.837 273.509 324.764C273.961 324.674 274.324 324.601 274.595 324.547L275.899 330.305C275.464 330.468 274.858 330.631 274.079 330.794C273.301 330.975 272.314 331.065 271.119 331.065C269.308 331.065 267.534 330.676 265.795 329.898C264.075 329.119 262.645 327.933 261.504 326.34C260.382 324.746 259.82 322.736 259.82 320.31V278.81ZM301.279 331.391C297.513 331.391 294.209 330.495 291.366 328.703C288.542 326.91 286.333 324.402 284.739 321.179C283.164 317.956 282.376 314.19 282.376 309.881C282.376 305.535 283.164 301.742 284.739 298.501C286.333 295.26 288.542 292.743 291.366 290.951C294.209 289.158 297.513 288.262 301.279 288.262C305.046 288.262 308.341 289.158 311.166 290.951C314.008 292.743 316.217 295.26 317.793 298.501C319.386 301.742 320.183 305.535 320.183 309.881C320.183 314.19 319.386 317.956 317.793 321.179C316.217 324.402 314.008 326.91 311.166 328.703C308.341 330.495 305.046 331.391 301.279 331.391ZM301.279 325.633C304.14 325.633 306.494 324.9 308.341 323.434C310.188 321.967 311.555 320.039 312.442 317.649C313.329 315.259 313.773 312.669 313.773 309.881C313.773 307.093 313.329 304.494 312.442 302.086C311.555 299.678 310.188 297.731 308.341 296.247C306.494 294.762 304.14 294.02 301.279 294.02C298.419 294.02 296.065 294.762 294.218 296.247C292.371 297.731 291.004 299.678 290.117 302.086C289.23 304.494 288.786 307.093 288.786 309.881C288.786 312.669 289.23 315.259 290.117 317.649C291.004 320.039 292.371 321.967 294.218 323.434C296.065 324.9 298.419 325.633 301.279 325.633ZM336.377 305.427V330.522H329.967V288.805H336.159V295.323H336.702C337.68 293.205 339.165 291.503 341.157 290.217C343.148 288.914 345.719 288.262 348.87 288.262C351.695 288.262 354.166 288.841 356.285 290C358.403 291.141 360.051 292.879 361.228 295.215C362.404 297.532 362.993 300.466 362.993 304.014V330.522H356.583V304.449C356.583 301.172 355.732 298.619 354.03 296.79C352.328 294.943 349.993 294.02 347.023 294.02C344.977 294.02 343.148 294.463 341.537 295.35C339.943 296.238 338.685 297.532 337.762 299.234C336.838 300.936 336.377 303 336.377 305.427ZM380.681 315.313L380.572 307.382H381.876L400.127 288.805H408.058L388.611 308.469H388.068L380.681 315.313ZM374.706 330.522V274.899H381.115V330.522H374.706ZM401.213 330.522L384.918 309.881L389.48 305.427L409.361 330.522H401.213ZM445.857 298.148L440.099 299.778C439.737 298.818 439.203 297.885 438.497 296.98C437.809 296.057 436.867 295.296 435.672 294.699C434.477 294.101 432.947 293.802 431.082 293.802C428.529 293.802 426.402 294.391 424.7 295.568C423.016 296.727 422.174 298.202 422.174 299.995C422.174 301.588 422.753 302.847 423.912 303.77C425.071 304.693 426.881 305.463 429.344 306.079L435.536 307.599C439.266 308.505 442.046 309.89 443.874 311.755C445.703 313.602 446.617 315.983 446.617 318.898C446.617 321.288 445.929 323.425 444.553 325.308C443.195 327.191 441.294 328.675 438.85 329.762C436.405 330.848 433.563 331.391 430.322 331.391C426.067 331.391 422.545 330.468 419.757 328.621C416.968 326.774 415.203 324.076 414.46 320.527L420.544 319.007C421.124 321.252 422.219 322.936 423.831 324.058C425.46 325.181 427.588 325.742 430.213 325.742C433.201 325.742 435.573 325.108 437.329 323.841C439.103 322.555 439.991 321.016 439.991 319.224C439.991 317.775 439.484 316.562 438.47 315.584C437.456 314.589 435.898 313.846 433.798 313.357L426.845 311.728C423.025 310.822 420.218 309.419 418.426 307.518C416.651 305.599 415.764 303.2 415.764 300.321C415.764 297.967 416.425 295.885 417.747 294.074C419.087 292.263 420.906 290.842 423.206 289.81C425.523 288.778 428.149 288.262 431.082 288.262C435.21 288.262 438.451 289.167 440.805 290.978C443.177 292.788 444.861 295.178 445.857 298.148Z"/>
</mask>
<path d="M239.512 288.805C239.186 286.053 237.864 283.916 235.546 282.395C233.229 280.874 230.386 280.114 227.018 280.114C224.556 280.114 222.401 280.512 220.554 281.309C218.726 282.106 217.295 283.201 216.263 284.595C215.249 285.989 214.742 287.574 214.742 289.348C214.742 290.833 215.095 292.109 215.801 293.178C216.526 294.228 217.449 295.106 218.572 295.812C219.694 296.5 220.871 297.071 222.102 297.523C223.334 297.958 224.465 298.311 225.497 298.582L231.147 300.103C232.595 300.484 234.207 301.009 235.981 301.679C237.773 302.349 239.485 303.263 241.114 304.422C242.762 305.563 244.12 307.029 245.188 308.822C246.256 310.614 246.79 312.814 246.79 315.421C246.79 318.427 246.003 321.143 244.428 323.569C242.87 325.996 240.589 327.924 237.583 329.354C234.596 330.785 230.965 331.5 226.692 331.5C222.709 331.5 219.26 330.857 216.345 329.572C213.448 328.286 211.166 326.494 209.5 324.194C207.853 321.895 206.92 319.224 206.703 316.182H213.656C213.837 318.282 214.543 320.02 215.774 321.397C217.024 322.755 218.599 323.769 220.5 324.438C222.419 325.09 224.483 325.416 226.692 325.416C229.263 325.416 231.572 325 233.618 324.167C235.664 323.316 237.285 322.139 238.48 320.636C239.675 319.115 240.272 317.341 240.272 315.313C240.272 313.466 239.756 311.963 238.724 310.804C237.692 309.646 236.334 308.704 234.65 307.98C232.966 307.255 231.147 306.622 229.191 306.079L222.347 304.123C218.001 302.874 214.561 301.09 212.026 298.773C209.491 296.455 208.224 293.422 208.224 289.674C208.224 286.56 209.066 283.844 210.75 281.526C212.452 279.191 214.733 277.38 217.594 276.094C220.473 274.791 223.687 274.139 227.236 274.139C230.821 274.139 234.007 274.782 236.796 276.067C239.584 277.335 241.793 279.073 243.423 281.282C245.07 283.491 245.939 285.999 246.03 288.805H239.512ZM275.138 288.805V294.237H253.519V288.805H275.138ZM259.82 278.81H266.23V318.572C266.23 320.383 266.493 321.741 267.018 322.646C267.561 323.533 268.249 324.131 269.082 324.438C269.933 324.728 270.829 324.873 271.771 324.873C272.477 324.873 273.056 324.837 273.509 324.764C273.961 324.674 274.324 324.601 274.595 324.547L275.899 330.305C275.464 330.468 274.858 330.631 274.079 330.794C273.301 330.975 272.314 331.065 271.119 331.065C269.308 331.065 267.534 330.676 265.795 329.898C264.075 329.119 262.645 327.933 261.504 326.34C260.382 324.746 259.82 322.736 259.82 320.31V278.81ZM301.279 331.391C297.513 331.391 294.209 330.495 291.366 328.703C288.542 326.91 286.333 324.402 284.739 321.179C283.164 317.956 282.376 314.19 282.376 309.881C282.376 305.535 283.164 301.742 284.739 298.501C286.333 295.26 288.542 292.743 291.366 290.951C294.209 289.158 297.513 288.262 301.279 288.262C305.046 288.262 308.341 289.158 311.166 290.951C314.008 292.743 316.217 295.26 317.793 298.501C319.386 301.742 320.183 305.535 320.183 309.881C320.183 314.19 319.386 317.956 317.793 321.179C316.217 324.402 314.008 326.91 311.166 328.703C308.341 330.495 305.046 331.391 301.279 331.391ZM301.279 325.633C304.14 325.633 306.494 324.9 308.341 323.434C310.188 321.967 311.555 320.039 312.442 317.649C313.329 315.259 313.773 312.669 313.773 309.881C313.773 307.093 313.329 304.494 312.442 302.086C311.555 299.678 310.188 297.731 308.341 296.247C306.494 294.762 304.14 294.02 301.279 294.02C298.419 294.02 296.065 294.762 294.218 296.247C292.371 297.731 291.004 299.678 290.117 302.086C289.23 304.494 288.786 307.093 288.786 309.881C288.786 312.669 289.23 315.259 290.117 317.649C291.004 320.039 292.371 321.967 294.218 323.434C296.065 324.9 298.419 325.633 301.279 325.633ZM336.377 305.427V330.522H329.967V288.805H336.159V295.323H336.702C337.68 293.205 339.165 291.503 341.157 290.217C343.148 288.914 345.719 288.262 348.87 288.262C351.695 288.262 354.166 288.841 356.285 290C358.403 291.141 360.051 292.879 361.228 295.215C362.404 297.532 362.993 300.466 362.993 304.014V330.522H356.583V304.449C356.583 301.172 355.732 298.619 354.03 296.79C352.328 294.943 349.993 294.02 347.023 294.02C344.977 294.02 343.148 294.463 341.537 295.35C339.943 296.238 338.685 297.532 337.762 299.234C336.838 300.936 336.377 303 336.377 305.427ZM380.681 315.313L380.572 307.382H381.876L400.127 288.805H408.058L388.611 308.469H388.068L380.681 315.313ZM374.706 330.522V274.899H381.115V330.522H374.706ZM401.213 330.522L384.918 309.881L389.48 305.427L409.361 330.522H401.213ZM445.857 298.148L440.099 299.778C439.737 298.818 439.203 297.885 438.497 296.98C437.809 296.057 436.867 295.296 435.672 294.699C434.477 294.101 432.947 293.802 431.082 293.802C428.529 293.802 426.402 294.391 424.7 295.568C423.016 296.727 422.174 298.202 422.174 299.995C422.174 301.588 422.753 302.847 423.912 303.77C425.071 304.693 426.881 305.463 429.344 306.079L435.536 307.599C439.266 308.505 442.046 309.89 443.874 311.755C445.703 313.602 446.617 315.983 446.617 318.898C446.617 321.288 445.929 323.425 444.553 325.308C443.195 327.191 441.294 328.675 438.85 329.762C436.405 330.848 433.563 331.391 430.322 331.391C426.067 331.391 422.545 330.468 419.757 328.621C416.968 326.774 415.203 324.076 414.46 320.527L420.544 319.007C421.124 321.252 422.219 322.936 423.831 324.058C425.46 325.181 427.588 325.742 430.213 325.742C433.201 325.742 435.573 325.108 437.329 323.841C439.103 322.555 439.991 321.016 439.991 319.224C439.991 317.775 439.484 316.562 438.47 315.584C437.456 314.589 435.898 313.846 433.798 313.357L426.845 311.728C423.025 310.822 420.218 309.419 418.426 307.518C416.651 305.599 415.764 303.2 415.764 300.321C415.764 297.967 416.425 295.885 417.747 294.074C419.087 292.263 420.906 290.842 423.206 289.81C425.523 288.778 428.149 288.262 431.082 288.262C435.21 288.262 438.451 289.167 440.805 290.978C443.177 292.788 444.861 295.178 445.857 298.148Z" fill="black"/>
<path d="M239.512 288.805L236.347 289.18L236.68 291.992H239.512V288.805ZM235.546 282.395L233.798 285.06L233.798 285.06L235.546 282.395ZM220.554 281.309L219.292 278.383L219.282 278.387L220.554 281.309ZM216.263 284.595L213.702 282.699L213.694 282.71L213.686 282.721L216.263 284.595ZM215.801 293.178L213.143 294.935L213.16 294.961L213.178 294.987L215.801 293.178ZM218.572 295.812L216.875 298.51L216.891 298.52L216.906 298.529L218.572 295.812ZM222.102 297.523L221.003 300.514L221.022 300.521L221.042 300.528L222.102 297.523ZM225.497 298.582L226.326 295.505L226.317 295.503L226.308 295.501L225.497 298.582ZM231.147 300.103L230.318 303.181L230.328 303.183L230.337 303.186L231.147 300.103ZM235.981 301.679L234.855 304.66L234.865 304.664L235.981 301.679ZM241.114 304.422L239.267 307.019L239.284 307.03L239.3 307.042L241.114 304.422ZM245.188 308.822L247.926 307.19L247.926 307.19L245.188 308.822ZM244.428 323.569L241.755 321.834L241.75 321.841L241.746 321.848L244.428 323.569ZM237.583 329.354L236.214 326.477L236.207 326.48L237.583 329.354ZM216.345 329.572L215.052 332.484L215.059 332.487L216.345 329.572ZM209.5 324.194L206.91 326.05L206.915 326.057L206.92 326.064L209.5 324.194ZM206.703 316.182V312.995H203.28L203.524 316.409L206.703 316.182ZM213.656 316.182L216.831 315.908L216.58 312.995H213.656V316.182ZM215.774 321.397L213.399 323.521L213.414 323.538L213.429 323.554L215.774 321.397ZM220.5 324.438L219.441 327.444L219.458 327.45L219.475 327.456L220.5 324.438ZM233.618 324.167L234.82 327.118L234.831 327.114L234.842 327.109L233.618 324.167ZM238.48 320.636L240.974 322.62L240.98 322.612L240.985 322.605L238.48 320.636ZM238.724 310.804L241.104 308.685L241.104 308.685L238.724 310.804ZM234.65 307.98L233.391 310.907L233.391 310.907L234.65 307.98ZM229.191 306.079L228.316 309.143L228.327 309.146L228.338 309.149L229.191 306.079ZM222.347 304.123L221.466 307.186L221.471 307.187L222.347 304.123ZM212.026 298.773L209.876 301.125L209.876 301.125L212.026 298.773ZM210.75 281.526L208.174 279.65L208.172 279.653L210.75 281.526ZM217.594 276.094L218.9 279.001L218.908 278.997L217.594 276.094ZM236.796 276.067L235.462 278.961L235.469 278.965L235.477 278.968L236.796 276.067ZM243.423 281.282L240.858 283.174L240.863 283.18L240.868 283.187L243.423 281.282ZM246.03 288.805V291.992H249.321L249.215 288.702L246.03 288.805ZM242.676 288.43C242.24 284.743 240.399 281.768 237.295 279.731L233.798 285.06C235.329 286.064 236.132 287.363 236.347 289.18L242.676 288.43ZM237.295 279.731C234.356 277.802 230.873 276.927 227.018 276.927V283.301C229.9 283.301 232.102 283.947 233.798 285.06L237.295 279.731ZM227.018 276.927C224.217 276.927 221.616 277.38 219.292 278.383L221.817 284.235C223.186 283.644 224.895 283.301 227.018 283.301V276.927ZM219.282 278.387C217.019 279.373 215.113 280.793 213.702 282.699L218.824 286.491C219.477 285.61 220.432 284.838 221.827 284.231L219.282 278.387ZM213.686 282.721C212.263 284.677 211.555 286.921 211.555 289.348H217.929C217.929 288.226 218.235 287.302 218.84 286.47L213.686 282.721ZM211.555 289.348C211.555 291.356 212.04 293.266 213.143 294.935L218.46 291.42C218.15 290.953 217.929 290.31 217.929 289.348H211.555ZM213.178 294.987C214.157 296.407 215.401 297.583 216.875 298.51L220.268 293.115C219.497 292.629 218.894 292.049 218.425 291.369L213.178 294.987ZM216.906 298.529C218.207 299.327 219.574 299.989 221.003 300.514L223.202 294.532C222.169 294.152 221.181 293.674 220.237 293.095L216.906 298.529ZM221.042 300.528C222.338 300.986 223.554 301.366 224.686 301.664L226.308 295.501C225.377 295.255 224.329 294.93 223.163 294.518L221.042 300.528ZM224.669 301.66L230.318 303.181L231.975 297.026L226.326 295.505L224.669 301.66ZM230.337 303.186C231.655 303.532 233.159 304.019 234.855 304.66L237.107 298.697C235.254 297.998 233.535 297.436 231.956 297.021L230.337 303.186ZM234.865 304.664C236.387 305.232 237.853 306.013 239.267 307.019L242.961 301.825C241.116 300.513 239.16 299.465 237.097 298.694L234.865 304.664ZM239.3 307.042C240.557 307.912 241.606 309.036 242.451 310.453L247.926 307.19C246.634 305.022 244.966 303.213 242.928 301.802L239.3 307.042ZM242.451 310.453C243.16 311.643 243.604 313.246 243.604 315.421H249.977C249.977 312.382 249.353 309.585 247.926 307.19L242.451 310.453ZM243.604 315.421C243.604 317.837 242.981 319.945 241.755 321.834L247.1 325.305C249.025 322.341 249.977 319.018 249.977 315.421H243.604ZM241.746 321.848C240.557 323.701 238.767 325.262 236.214 326.477L238.953 332.232C242.411 330.586 245.184 328.291 247.11 325.291L241.746 321.848ZM236.207 326.48C233.755 327.654 230.622 328.313 226.692 328.313V334.687C231.309 334.687 235.437 333.915 238.96 332.229L236.207 326.48ZM226.692 328.313C223.044 328.313 220.052 327.724 217.63 326.656L215.059 332.487C218.467 333.99 222.374 334.687 226.692 334.687V328.313ZM217.637 326.659C215.193 325.574 213.38 324.117 212.081 322.325L206.92 326.064C208.952 328.87 211.702 330.998 215.052 332.484L217.637 326.659ZM212.091 322.338C210.812 320.554 210.06 318.457 209.882 315.955L203.524 316.409C203.78 319.99 204.893 323.235 206.91 326.05L212.091 322.338ZM206.703 319.369H213.656V312.995H206.703V319.369ZM210.481 316.456C210.712 319.142 211.644 321.56 213.399 323.521L218.149 319.272C217.442 318.481 216.961 317.423 216.831 315.908L210.481 316.456ZM213.429 323.554C215.063 325.33 217.095 326.617 219.441 327.444L221.559 321.433C220.103 320.92 218.984 320.179 218.119 319.239L213.429 323.554ZM219.475 327.456C221.753 328.229 224.166 328.603 226.692 328.603V322.229C224.801 322.229 223.086 321.951 221.525 321.421L219.475 327.456ZM226.692 328.603C229.609 328.603 232.335 328.13 234.82 327.118L232.417 321.215C230.809 321.87 228.918 322.229 226.692 322.229V328.603ZM234.842 327.109C237.308 326.083 239.395 324.605 240.974 322.62L235.985 318.653C235.174 319.672 234.02 320.548 232.394 321.224L234.842 327.109ZM240.985 322.605C242.644 320.494 243.459 318.018 243.459 315.313H237.085C237.085 316.664 236.705 317.736 235.974 318.667L240.985 322.605ZM243.459 315.313C243.459 312.841 242.751 310.535 241.104 308.685L236.344 312.924C236.761 313.392 237.085 314.091 237.085 315.313H243.459ZM241.104 308.685C239.711 307.121 237.944 305.928 235.909 305.052L233.391 310.907C234.724 311.48 235.673 312.17 236.344 312.924L241.104 308.685ZM235.909 305.052C234.08 304.266 232.123 303.586 230.044 303.008L228.338 309.149C230.17 309.658 231.852 310.245 233.391 310.907L235.909 305.052ZM230.067 303.014L223.222 301.059L221.471 307.187L228.316 309.143L230.067 303.014ZM223.227 301.06C219.211 299.906 216.252 298.319 214.176 296.421L209.876 301.125C212.87 303.862 216.792 305.842 221.466 307.186L223.227 301.06ZM214.176 296.421C212.366 294.766 211.411 292.619 211.411 289.674H205.037C205.037 294.226 206.616 298.144 209.876 301.125L214.176 296.421ZM211.411 289.674C211.411 287.171 212.074 285.125 213.328 283.399L208.172 279.653C206.057 282.563 205.037 285.949 205.037 289.674H211.411ZM213.325 283.403C214.673 281.553 216.5 280.079 218.9 279.001L216.288 273.188C212.966 274.68 210.23 276.828 208.174 279.65L213.325 283.403ZM218.908 278.997C221.326 277.902 224.084 277.326 227.236 277.326V270.952C223.289 270.952 219.619 271.679 216.279 273.191L218.908 278.997ZM227.236 277.326C230.437 277.326 233.156 277.898 235.462 278.961L238.13 273.173C234.859 271.665 231.205 270.952 227.236 270.952V277.326ZM235.477 278.968C237.829 280.037 239.587 281.451 240.858 283.174L245.987 279.39C243.999 276.695 241.339 274.632 238.114 273.166L235.477 278.968ZM240.868 283.187C242.119 284.863 242.775 286.739 242.845 288.908L249.215 288.702C249.104 285.258 248.022 282.118 245.977 279.376L240.868 283.187ZM246.03 285.618H239.512V291.992H246.03V285.618ZM275.138 288.805H278.325V285.618H275.138V288.805ZM275.138 294.237V297.424H278.325V294.237H275.138ZM253.519 294.237H250.333V297.424H253.519V294.237ZM253.519 288.805V285.618H250.333V288.805H253.519ZM259.82 278.81V275.624H256.634V278.81H259.82ZM266.23 278.81H269.417V275.624H266.23V278.81ZM267.018 322.646L264.261 324.245L264.28 324.278L264.3 324.31L267.018 322.646ZM269.082 324.438L267.977 327.428L268.016 327.442L268.055 327.455L269.082 324.438ZM273.509 324.764L274.012 327.911L274.073 327.901L274.134 327.889L273.509 324.764ZM274.595 324.547L277.703 323.843L277.017 320.813L273.97 321.422L274.595 324.547ZM275.899 330.305L277.018 333.289L279.621 332.313L279.007 329.601L275.899 330.305ZM274.079 330.794L273.426 327.675L273.392 327.682L273.357 327.69L274.079 330.794ZM265.795 329.898L264.481 332.801L264.493 332.806L265.795 329.898ZM261.504 326.34L258.899 328.175L258.906 328.185L258.913 328.195L261.504 326.34ZM271.952 288.805V294.237H278.325V288.805H271.952ZM275.138 291.05H253.519V297.424H275.138V291.05ZM256.706 294.237V288.805H250.333V294.237H256.706ZM253.519 291.992H275.138V285.618H253.519V291.992ZM259.82 281.997H266.23V275.624H259.82V281.997ZM263.043 278.81V318.572H269.417V278.81H263.043ZM263.043 318.572C263.043 320.586 263.317 322.617 264.261 324.245L269.774 321.047C269.668 320.864 269.417 320.179 269.417 318.572H263.043ZM264.3 324.31C265.15 325.698 266.362 326.831 267.977 327.428L270.186 321.449C270.136 321.431 269.972 321.368 269.735 320.982L264.3 324.31ZM268.055 327.455C269.252 327.863 270.496 328.06 271.771 328.06V321.686C271.162 321.686 270.614 321.594 270.109 321.422L268.055 327.455ZM271.771 328.06C272.566 328.06 273.329 328.02 274.012 327.911L273.005 321.618C272.783 321.653 272.388 321.686 271.771 321.686V328.06ZM274.134 327.889C274.586 327.799 274.949 327.726 275.22 327.672L273.97 321.422C273.699 321.477 273.336 321.549 272.884 321.64L274.134 327.889ZM271.487 325.251L272.791 331.009L279.007 329.601L277.703 323.843L271.487 325.251ZM274.78 327.321C274.567 327.401 274.141 327.525 273.426 327.675L274.732 333.913C275.574 333.737 276.362 333.535 277.018 333.289L274.78 327.321ZM273.357 327.69C272.901 327.796 272.178 327.879 271.119 327.879V334.252C272.45 334.252 273.7 334.154 274.801 333.898L273.357 327.69ZM271.119 327.879C269.78 327.879 268.448 327.594 267.098 326.989L264.493 332.806C266.619 333.758 268.836 334.252 271.119 334.252V327.879ZM267.11 326.994C265.92 326.456 264.923 325.64 264.095 324.485L258.913 328.195C260.367 330.226 262.231 331.782 264.481 332.801L267.11 326.994ZM264.109 324.504C263.449 323.567 263.007 322.242 263.007 320.31H256.634C256.634 323.231 257.314 325.925 258.899 328.175L264.109 324.504ZM263.007 320.31V278.81H256.634V320.31H263.007ZM291.366 328.703L289.659 331.393L289.666 331.398L291.366 328.703ZM284.739 321.179L281.876 322.579L281.879 322.585L281.883 322.592L284.739 321.179ZM284.739 298.501L281.879 297.095L281.876 297.102L281.873 297.108L284.739 298.501ZM291.366 290.951L289.666 288.255L289.659 288.26L291.366 290.951ZM311.166 290.951L309.458 293.641L309.466 293.646L311.166 290.951ZM317.793 298.501L314.926 299.894L314.93 299.901L314.933 299.907L317.793 298.501ZM317.793 321.179L314.936 319.767L314.933 319.773L314.929 319.78L317.793 321.179ZM311.166 328.703L309.466 326.007L309.458 326.012L311.166 328.703ZM308.341 323.434L306.359 320.938L306.359 320.938L308.341 323.434ZM312.442 317.649L315.43 318.758L315.43 318.758L312.442 317.649ZM312.442 302.086L315.432 300.984L315.432 300.984L312.442 302.086ZM308.341 296.247L310.338 293.763L310.338 293.763L308.341 296.247ZM294.218 296.247L292.221 293.763L292.221 293.763L294.218 296.247ZM290.117 302.086L287.127 300.984L287.127 300.984L290.117 302.086ZM290.117 317.649L287.129 318.758L287.129 318.758L290.117 317.649ZM294.218 323.434L296.2 320.938L296.2 320.938L294.218 323.434ZM301.279 328.205C298.04 328.205 295.34 327.441 293.066 326.007L289.666 331.398C293.078 333.549 296.987 334.578 301.279 334.578V328.205ZM293.074 326.012C290.779 324.556 288.951 322.507 287.596 319.767L281.883 322.592C283.715 326.297 286.304 329.264 289.659 331.393L293.074 326.012ZM287.602 319.78C286.279 317.072 285.563 313.802 285.563 309.881H279.19C279.19 314.579 280.049 318.841 281.876 322.579L287.602 319.78ZM285.563 309.881C285.563 305.92 286.28 302.621 287.605 299.894L281.873 297.108C280.048 300.863 279.19 305.151 279.19 309.881H285.563ZM287.599 299.907C288.955 297.149 290.783 295.095 293.074 293.641L289.659 288.26C286.3 290.392 283.71 293.371 281.879 297.095L287.599 299.907ZM293.066 293.646C295.34 292.212 298.04 291.449 301.279 291.449V285.075C296.987 285.075 293.078 286.104 289.666 288.255L293.066 293.646ZM301.279 291.449C304.519 291.449 307.206 292.212 309.458 293.641L312.873 288.26C309.476 286.104 305.572 285.075 301.279 285.075V291.449ZM309.466 293.646C311.769 295.099 313.591 297.147 314.926 299.894L320.659 297.108C318.843 293.373 316.247 290.388 312.865 288.255L309.466 293.646ZM314.933 299.907C316.272 302.63 316.996 305.925 316.996 309.881H323.369C323.369 305.146 322.5 300.854 320.652 297.095L314.933 299.907ZM316.996 309.881C316.996 313.797 316.273 317.062 314.936 319.767L320.649 322.592C322.499 318.851 323.369 314.584 323.369 309.881H316.996ZM314.929 319.78C313.596 322.509 311.774 324.552 309.466 326.007L312.865 331.398C316.243 329.268 318.839 326.296 320.656 322.579L314.929 319.78ZM309.458 326.012C307.206 327.441 304.519 328.205 301.279 328.205V334.578C305.572 334.578 309.476 333.549 312.873 331.393L309.458 326.012ZM301.279 328.82C304.702 328.82 307.8 327.933 310.323 325.929L306.359 320.938C305.189 321.868 303.579 322.447 301.279 322.447V328.82ZM310.323 325.929C312.662 324.072 314.357 321.647 315.43 318.758L309.455 316.54C308.753 318.43 307.714 319.862 306.359 320.938L310.323 325.929ZM315.43 318.758C316.46 315.981 316.96 313.012 316.96 309.881H310.586C310.586 312.326 310.198 314.536 309.455 316.54L315.43 318.758ZM316.96 309.881C316.96 306.749 316.46 303.775 315.432 300.984L309.452 303.188C310.198 305.214 310.586 307.436 310.586 309.881H316.96ZM315.432 300.984C314.363 298.081 312.672 295.64 310.338 293.763L306.344 298.73C307.704 299.823 308.747 301.275 309.452 303.188L315.432 300.984ZM310.338 293.763C307.814 291.734 304.711 290.833 301.279 290.833V297.206C303.57 297.206 305.174 297.79 306.344 298.73L310.338 293.763ZM301.279 290.833C297.848 290.833 294.745 291.734 292.221 293.763L296.215 298.73C297.385 297.79 298.989 297.206 301.279 297.206V290.833ZM292.221 293.763C289.887 295.64 288.196 298.081 287.127 300.984L293.107 303.188C293.812 301.275 294.855 299.823 296.215 298.73L292.221 293.763ZM287.127 300.984C286.099 303.775 285.599 306.749 285.599 309.881H291.973C291.973 307.436 292.361 305.214 293.107 303.188L287.127 300.984ZM285.599 309.881C285.599 313.012 286.099 315.981 287.129 318.758L293.104 316.54C292.361 314.536 291.973 312.326 291.973 309.881H285.599ZM287.129 318.758C288.202 321.647 289.897 324.072 292.236 325.929L296.2 320.938C294.845 319.862 293.806 318.43 293.104 316.54L287.129 318.758ZM292.236 325.929C294.759 327.933 297.857 328.82 301.279 328.82V322.447C298.98 322.447 297.37 321.868 296.2 320.938L292.236 325.929ZM336.377 330.522V333.709H339.563V330.522H336.377ZM329.967 330.522H326.78V333.709H329.967V330.522ZM329.967 288.805V285.618H326.78V288.805H329.967ZM336.159 288.805H339.346V285.618H336.159V288.805ZM336.159 295.323H332.973V298.51H336.159V295.323ZM336.702 295.323V298.51H338.741L339.596 296.659L336.702 295.323ZM341.157 290.217L342.885 292.895L342.893 292.889L342.902 292.884L341.157 290.217ZM356.285 290L354.755 292.796L354.764 292.801L354.774 292.806L356.285 290ZM361.228 295.215L358.382 296.649L358.386 296.658L361.228 295.215ZM362.993 330.522V333.709H366.18V330.522H362.993ZM356.583 330.522H353.397V333.709H356.583V330.522ZM354.03 296.79L351.687 298.95L351.692 298.955L351.698 298.961L354.03 296.79ZM341.537 295.35L340 292.559L339.993 292.563L339.987 292.566L341.537 295.35ZM337.762 299.234L334.961 297.715L334.961 297.715L337.762 299.234ZM333.19 305.427V330.522H339.563V305.427H333.19ZM336.377 327.335H329.967V333.709H336.377V327.335ZM333.154 330.522V288.805H326.78V330.522H333.154ZM329.967 291.992H336.159V285.618H329.967V291.992ZM332.973 288.805V295.323H339.346V288.805H332.973ZM336.159 298.51H336.702V292.137H336.159V298.51ZM339.596 296.659C340.316 295.098 341.392 293.858 342.885 292.895L339.428 287.54C336.938 289.148 335.044 291.311 333.809 293.988L339.596 296.659ZM342.902 292.884C344.232 292.013 346.143 291.449 348.87 291.449V285.075C345.296 285.075 342.065 285.814 339.411 287.551L342.902 292.884ZM348.87 291.449C351.251 291.449 353.18 291.934 354.755 292.796L357.814 287.204C355.153 285.749 352.138 285.075 348.87 285.075V291.449ZM354.774 292.806C356.267 293.61 357.472 294.843 358.382 296.649L364.073 293.781C362.629 290.915 360.539 288.672 357.795 287.194L354.774 292.806ZM358.386 296.658C359.269 298.395 359.806 300.793 359.806 304.014H366.18C366.18 300.138 365.54 296.669 364.069 293.772L358.386 296.658ZM359.806 304.014V330.522H366.18V304.014H359.806ZM362.993 327.335H356.583V333.709H362.993V327.335ZM359.77 330.522V304.449H353.397V330.522H359.77ZM359.77 304.449C359.77 300.624 358.768 297.203 356.363 294.619L351.698 298.961C352.697 300.035 353.397 301.719 353.397 304.449H359.77ZM356.374 294.63C353.958 292.009 350.706 290.833 347.023 290.833V297.206C349.279 297.206 350.698 297.877 351.687 298.95L356.374 294.63ZM347.023 290.833C344.501 290.833 342.133 291.384 340 292.559L343.074 298.142C344.163 297.542 345.453 297.206 347.023 297.206V290.833ZM339.987 292.566C337.832 293.766 336.154 295.515 334.961 297.715L340.563 300.754C341.216 299.549 342.055 298.709 343.087 298.135L339.987 292.566ZM334.961 297.715C333.728 299.987 333.19 302.602 333.19 305.427H339.563C339.563 303.399 339.949 301.886 340.563 300.754L334.961 297.715ZM380.681 315.313L377.494 315.356L377.592 322.518L382.846 317.65L380.681 315.313ZM380.572 307.382V304.195H377.341L377.386 307.426L380.572 307.382ZM381.876 307.382V310.569H383.212L384.149 309.616L381.876 307.382ZM400.127 288.805V285.618H398.79L397.854 286.572L400.127 288.805ZM408.058 288.805L410.323 291.046L415.691 285.618H408.058V288.805ZM388.611 308.469V311.655H389.942L390.877 310.709L388.611 308.469ZM388.068 308.469V305.282H386.819L385.902 306.131L388.068 308.469ZM374.706 330.522H371.519V333.709H374.706V330.522ZM374.706 274.899V271.713H371.519V274.899H374.706ZM381.115 274.899H384.302V271.713H381.115V274.899ZM381.115 330.522V333.709H384.302V330.522H381.115ZM401.213 330.522L398.712 332.497L399.669 333.709H401.213V330.522ZM384.918 309.881L382.692 307.601L380.639 309.604L382.416 311.856L384.918 309.881ZM389.48 305.427L391.978 303.448L389.784 300.677L387.254 303.146L389.48 305.427ZM409.361 330.522V333.709H415.951L411.859 328.543L409.361 330.522ZM383.867 315.269L383.758 307.339L377.386 307.426L377.494 315.356L383.867 315.269ZM380.572 310.569H381.876V304.195H380.572V310.569ZM384.149 309.616L402.4 291.038L397.854 286.572L379.602 305.149L384.149 309.616ZM400.127 291.992H408.058V285.618H400.127V291.992ZM405.792 286.564L386.345 306.228L390.877 310.709L410.323 291.046L405.792 286.564ZM388.611 305.282H388.068V311.655H388.611V305.282ZM385.902 306.131L378.515 312.975L382.846 317.65L390.234 310.806L385.902 306.131ZM377.892 330.522V274.899H371.519V330.522H377.892ZM374.706 278.086H381.115V271.713H374.706V278.086ZM377.928 274.899V330.522H384.302V274.899H377.928ZM381.115 327.335H374.706V333.709H381.115V327.335ZM403.715 328.548L387.419 307.906L382.416 311.856L398.712 332.497L403.715 328.548ZM387.144 312.161L391.706 307.707L387.254 303.146L382.692 307.601L387.144 312.161ZM386.982 307.406L406.863 332.501L411.859 328.543L391.978 303.448L386.982 307.406ZM409.361 327.335H401.213V333.709H409.361V327.335ZM445.857 298.148L446.725 301.214L449.941 300.304L448.878 297.135L445.857 298.148ZM440.099 299.778L437.118 300.903L438.151 303.641L440.967 302.844L440.099 299.778ZM438.497 296.98L435.941 298.884L435.962 298.912L435.984 298.94L438.497 296.98ZM435.672 294.699L437.097 291.848L437.097 291.848L435.672 294.699ZM424.7 295.568L426.506 298.193L426.512 298.189L424.7 295.568ZM423.912 303.77L421.926 306.262L421.926 306.262L423.912 303.77ZM429.344 306.079L428.571 309.17L428.584 309.173L429.344 306.079ZM435.536 307.599L434.776 310.694L434.785 310.696L435.536 307.599ZM443.874 311.755L441.599 313.986L441.604 313.992L441.61 313.997L443.874 311.755ZM444.553 325.308L441.98 323.427L441.974 323.435L441.969 323.444L444.553 325.308ZM419.757 328.621L421.516 325.964L421.516 325.964L419.757 328.621ZM414.46 320.527L413.688 317.436L410.714 318.179L411.341 321.18L414.46 320.527ZM420.544 319.007L423.63 318.21L422.84 315.148L419.771 315.915L420.544 319.007ZM423.831 324.058L422.009 326.673L422.016 326.678L422.023 326.683L423.831 324.058ZM437.329 323.841L439.194 326.425L439.199 326.422L437.329 323.841ZM438.47 315.584L436.237 317.858L436.247 317.868L436.258 317.878L438.47 315.584ZM433.798 313.357L433.071 316.46L433.076 316.461L433.798 313.357ZM426.845 311.728L426.11 314.829L426.118 314.83L426.845 311.728ZM418.426 307.518L416.086 309.681L416.096 309.693L416.107 309.704L418.426 307.518ZM417.747 294.074L415.185 292.178L415.179 292.187L415.173 292.195L417.747 294.074ZM423.206 289.81L421.909 286.899L421.901 286.903L423.206 289.81ZM440.805 290.978L438.862 293.504L438.872 293.511L440.805 290.978ZM444.989 295.082L439.231 296.711L440.967 302.844L446.725 301.214L444.989 295.082ZM443.081 298.652C442.593 297.359 441.89 296.149 441.009 295.02L435.984 298.94C436.516 299.622 436.881 300.277 437.118 300.903L443.081 298.652ZM441.052 295.076C440.022 293.694 438.666 292.633 437.097 291.848L434.247 297.549C435.068 297.959 435.595 298.42 435.941 298.884L441.052 295.076ZM437.097 291.848C435.32 290.96 433.258 290.616 431.082 290.616V296.989C432.637 296.989 433.634 297.243 434.247 297.549L437.097 291.848ZM431.082 290.616C428.034 290.616 425.235 291.323 422.887 292.947L426.512 298.189C427.568 297.459 429.024 296.989 431.082 296.989V290.616ZM422.893 292.943C420.486 294.599 418.987 296.993 418.987 299.995H425.361C425.361 299.411 425.546 298.854 426.506 298.193L422.893 292.943ZM418.987 299.995C418.987 302.474 419.945 304.684 421.926 306.262L425.898 301.278C425.561 301.009 425.361 300.702 425.361 299.995H418.987ZM421.926 306.262C423.61 307.604 425.938 308.512 428.571 309.17L430.117 302.987C427.825 302.414 426.532 301.783 425.898 301.278L421.926 306.262ZM428.584 309.173L434.776 310.694L436.296 304.505L430.104 302.984L428.584 309.173ZM434.785 310.696C438.191 311.523 440.339 312.701 441.599 313.986L446.15 309.524C443.752 307.078 440.341 305.487 436.288 304.503L434.785 310.696ZM441.61 313.997C442.774 315.173 443.431 316.711 443.431 318.898H449.804C449.804 315.254 448.632 312.031 446.139 309.513L441.61 313.997ZM443.431 318.898C443.431 320.63 442.947 322.104 441.98 323.427L447.126 327.188C448.912 324.745 449.804 321.946 449.804 318.898H443.431ZM441.969 323.444C440.988 324.803 439.564 325.957 437.556 326.85L440.144 332.674C443.024 331.394 445.403 329.578 447.138 327.172L441.969 323.444ZM437.556 326.85C435.595 327.721 433.209 328.205 430.322 328.205V334.578C433.916 334.578 437.215 333.975 440.144 332.674L437.556 326.85ZM430.322 328.205C426.523 328.205 423.657 327.382 421.516 325.964L417.997 331.278C421.432 333.553 425.61 334.578 430.322 334.578V328.205ZM421.516 325.964C419.489 324.622 418.166 322.679 417.58 319.875L411.341 321.18C412.239 325.474 414.447 328.927 417.997 331.278L421.516 325.964ZM415.233 323.619L421.317 322.098L419.771 315.915L413.688 317.436L415.233 323.619ZM417.459 319.803C418.192 322.646 419.663 325.039 422.009 326.673L425.652 321.443C424.775 320.833 424.055 319.858 423.63 318.21L417.459 319.803ZM422.023 326.683C424.333 328.274 427.15 328.929 430.213 328.929V322.555C428.025 322.555 426.588 322.088 425.638 321.434L422.023 326.683ZM430.213 328.929C433.622 328.929 436.723 328.208 439.194 326.425L435.464 321.257C434.422 322.009 432.779 322.555 430.213 322.555V328.929ZM439.199 326.422C441.593 324.687 443.177 322.269 443.177 319.224H436.804C436.804 319.764 436.613 320.424 435.459 321.26L439.199 326.422ZM443.177 319.224C443.177 316.938 442.338 314.888 440.682 313.29L436.258 317.878C436.629 318.237 436.804 318.613 436.804 319.224H443.177ZM440.703 313.311C439.108 311.745 436.918 310.812 434.521 310.254L433.076 316.461C434.879 316.881 435.803 317.432 436.237 317.858L440.703 313.311ZM434.525 310.255L427.572 308.625L426.118 314.83L433.071 316.46L434.525 310.255ZM427.58 308.627C424.08 307.798 421.945 306.606 420.744 305.332L416.107 309.704C418.491 312.233 421.969 313.847 426.11 314.829L427.58 308.627ZM420.766 305.355C419.593 304.086 418.951 302.486 418.951 300.321H412.577C412.577 303.913 413.71 307.111 416.086 309.681L420.766 305.355ZM418.951 300.321C418.951 298.606 419.418 297.19 420.321 295.953L415.173 292.195C413.432 294.58 412.577 297.327 412.577 300.321H418.951ZM420.308 295.97C421.286 294.649 422.649 293.553 424.511 292.717L421.901 286.903C419.163 288.131 416.888 289.878 415.185 292.178L420.308 295.97ZM424.502 292.721C426.353 291.897 428.526 291.449 431.082 291.449V285.075C427.772 285.075 424.694 285.659 421.909 286.899L424.502 292.721ZM431.082 291.449C434.777 291.449 437.247 292.261 438.862 293.504L442.748 288.452C439.656 286.073 435.644 285.075 431.082 285.075V291.449ZM438.872 293.511C440.711 294.915 442.032 296.764 442.836 299.161L448.878 297.135C447.691 293.593 445.643 290.662 442.739 288.445L438.872 293.511Z" fill="white" mask="url(#path-50-outside-1_12_460)"/>
</g>
<rect x="0.796682" y="0.787161" width="473.229" height="473.229" rx="31.0706" stroke="#D1D1D1" stroke-width="1.59336"/>
<defs>
<clipPath id="clip0_12_460">
<rect y="-0.00952148" width="474.823" height="474.823" rx="31.8673" fill="white"/>
</clipPath>
</defs>
</svg>
