<svg width="475" height="476" viewBox="0 0 475 476" fill="none" xmlns="http://www.w3.org/2000/svg">
<path d="M212.622 81.0718C169.624 58.8 162.398 85.0489 164.161 100.957C133.85 133.41 106.888 363.181 97.1953 474.009H379.155C380.036 389.96 372.458 197.68 335.099 100.957C339.328 64.6861 311.602 72.5873 297.21 81.0718C282.525 76.8295 245.048 70.8904 212.622 81.0718Z" fill="#664C3F" stroke="black" stroke-width="1.59336"/>
<path d="M321.882 179.237C321.882 187.204 319.943 203.137 312.189 203.137C308.665 203.137 308.077 198.092 308.665 196.764C307.196 203.403 302.448 215.088 294.567 215.088C291.042 215.088 289.28 211.104 290.161 208.714M273.42 216.681C274.595 219.337 278.178 223.055 283.112 216.681" stroke="black" stroke-width="1.59336"/>
<path d="M180.021 185.61C182.958 193.843 193.238 215.884 202.049 214.291C209.803 213.016 211.154 204.2 210.86 199.951C214.385 208.183 224.782 224.807 238.175 225.445C243.109 224.17 241.406 218.54 239.937 215.884C240.818 218.274 243.462 223.055 246.986 223.055C250.511 223.055 251.979 220.399 252.273 219.071" stroke="black" stroke-width="1.59336"/>
<path d="M281.66 180.889C259.793 206.986 230.054 191.328 222.183 180.889C218.684 175.669 220.142 172.486 220.433 169.58C223.932 157.111 235.478 132.348 253.671 133.044C271.864 133.74 284.284 160.881 285.159 169.58C285.446 172.437 284.62 177.356 281.66 180.889Z" fill="white" stroke="black" stroke-width="1.59336"/>
<path d="M255.321 159.27C253.946 159.98 252.313 159.98 250.938 159.271L242.421 154.878C237.967 152.581 239.6 145.85 244.612 145.85L261.645 145.849C266.656 145.848 268.291 152.579 263.837 154.877L255.321 159.27Z" fill="black"/>
<ellipse cx="234.651" cy="128.249" rx="5.28674" ry="4.78009" fill="black"/>
<ellipse cx="271.658" cy="128.249" rx="5.28674" ry="4.78009" fill="black"/>
<path d="M358.008 188.797C269.191 293.322 172.384 232.349 135.084 188.797C132.44 198.357 129.797 219.868 128.035 229.428C228.483 313.876 178.552 335.121 112.174 340.963C107.181 370.706 100.72 431.785 100.72 438.159C147.243 453.455 312.189 464.449 379.155 437.362C379.448 408.416 376.511 349.727 374.749 340.963C228.13 324.393 306.609 259.171 364.176 228.631C363.588 217.743 359.77 197.561 358.008 188.797Z" fill="#E2F8FF" stroke="black" stroke-width="1.59336"/>
<rect width="49.6095" height="23.0806" rx="4.78009" transform="matrix(0.85194 -0.52364 0.600942 0.799293 248.938 411.422)" fill="#373737"/>
<path d="M248.748 418.242L255.797 413.462" stroke="black" stroke-width="1.59336"/>
<path d="M255.797 426.209L262.846 421.428" stroke="black" stroke-width="1.59336"/>
<path d="M296.328 413.548L291.171 407.088" stroke="black" stroke-width="1.59336"/>
<path d="M301.615 410.361L296.457 403.901" stroke="black" stroke-width="1.59336"/>
<path d="M291.135 392.859L298.401 388.353" stroke="black" stroke-width="1.59336"/>
<path d="M292.805 395.93L300.071 391.424" stroke="black" stroke-width="1.59336"/>
<path d="M166.804 401.511C166.804 409.871 161.339 409.478 151.606 409.478C141.874 409.478 134.202 404.295 134.202 395.935C134.202 387.575 141.874 379.204 151.606 379.204C161.339 379.204 166.804 393.151 166.804 401.511Z" fill="#664C3F"/>
<path d="M172.091 410.275C172.091 413.795 168.054 415.852 164.161 415.852C160.268 415.852 156.231 414.592 156.231 411.072C156.231 407.552 160.268 403.901 164.161 403.901C168.054 403.901 172.091 406.755 172.091 410.275Z" fill="#664C3F"/>
<path d="M374.12 340.964C376.511 344.15 369.462 265.279 363.547 228.631C363.547 228.631 302.497 260.499 290.413 293.959C287.249 302.723 267.523 355.674 295.7 367.254C315.085 375.221 330.945 357.694 340.638 335.387L374.12 340.964Z" fill="#664C3F" stroke="black" stroke-width="1.59336"/>
<path d="M287.003 373.193C285.263 369.503 284.513 359.118 286.942 356.21C290.121 353.06 292.929 358.833 292.685 361.798C292.505 363.982 288.742 376.884 287.003 373.193Z" fill="black" stroke="black" stroke-width="1.59336"/>
<path d="M302.119 379.928C299.371 376.986 295.579 367.359 297.025 363.804C299.113 359.776 303.494 364.349 304.141 367.247C304.618 369.381 304.867 382.869 302.119 379.928Z" fill="black" stroke="black" stroke-width="1.59336"/>
<path d="M315.865 381.234C312.651 378.869 307.243 370.13 308.045 366.358C309.395 361.997 314.5 365.654 315.642 368.38C316.482 370.386 319.08 383.6 315.865 381.234Z" fill="black" stroke="black" stroke-width="1.59336"/>
<path d="M340.183 336.183L347.354 318.656" stroke="black" stroke-width="1.59336"/>
<path d="M111.544 342.557C109.782 344.947 123.629 265.544 128.035 229.428C128.035 229.428 194.119 289.976 195.251 295.553C199.406 301.129 218.141 357.267 189.964 368.847C170.58 376.814 154.72 359.287 145.027 336.98L111.544 342.557Z" fill="#664C3F" stroke="black" stroke-width="1.59336"/>
<path d="M205.711 373.193C207.451 369.503 208.201 359.118 205.772 356.21C202.593 353.06 199.784 358.833 200.029 361.798C200.208 363.982 203.972 376.884 205.711 373.193Z" fill="black" stroke="black" stroke-width="1.59336"/>
<path d="M190.595 379.928C193.342 376.986 197.135 367.359 195.688 363.804C193.601 359.776 189.22 364.349 188.572 367.247C188.096 369.38 187.847 382.869 190.595 379.928Z" fill="black" stroke="black" stroke-width="1.59336"/>
<path d="M176.849 381.234C180.063 378.869 185.471 370.13 184.669 366.358C183.319 361.997 178.214 365.654 177.072 368.38C176.231 370.386 173.634 383.6 176.849 381.234Z" fill="black" stroke="black" stroke-width="1.59336"/>
<path d="M144.996 336.98L139.419 321.046" stroke="black" stroke-width="1.59336"/>
</svg>
